<svg xmlns="http://www.w3.org/2000/svg" xmlns:xlink="http://www.w3.org/1999/xlink" viewBox="0 0 1623.25 860.86" width="550" height="550"><defs><linearGradient id="a" x1="817.14" x2="796.08" y1="337.25" y2="1179.37" gradientUnits="userSpaceOnUse"><stop offset="0" stop-color="#9df191" class="stopColor9df191 svgShape"></stop><stop offset=".34" stop-color="#5cdcb8" class="stopColor5cdcb8 svgShape"></stop><stop offset=".64" stop-color="#2accd6" class="stopColor2accd6 svgShape"></stop><stop offset=".86" stop-color="#0bc2e8" class="stopColor0bc2e8 svgShape"></stop><stop offset=".99" stop-color="#00beef" class="stopColor00beef svgShape"></stop></linearGradient><linearGradient id="b" x1="720.28" x2="720.28" y1="255.06" y2="446.16" gradientUnits="userSpaceOnUse"><stop offset="0" stop-color="#ebcac7" class="stopColorebcac7 svgShape"></stop><stop offset="1" stop-color="#c98c8d" class="stopColorc98c8d svgShape"></stop></linearGradient><linearGradient id="c" x1="811.64" x2="811.64" y1="255.06" y2="446.14" gradientUnits="userSpaceOnUse"><stop offset="0" stop-color="#dc9489" class="stopColordc9489 svgShape"></stop><stop offset="1" stop-color="#9b4c51" class="stopColor9b4c51 svgShape"></stop></linearGradient><linearGradient id="d" x1="648.85" x2="790.39" y1="215.52" y2="448.85" xlink:href="#a"></linearGradient><linearGradient id="e" x1="717.37" x2="717.37" y1="205.04" y2="478.28" gradientUnits="userSpaceOnUse"><stop offset="0" stop-color="#da9a90" class="stopColorda9a90 svgShape"></stop><stop offset="1" stop-color="#934048" class="stopColor934048 svgShape"></stop></linearGradient><linearGradient id="f" x1="717.37" x2="717.37" y1="232.16" y2="444.63" gradientUnits="userSpaceOnUse"><stop offset="0" stop-color="#e6b0a7" class="stopColore6b0a7 svgShape"></stop><stop offset="1" stop-color="#b36b66" class="stopColorb36b66 svgShape"></stop></linearGradient><linearGradient id="g" x1="4744.86" x2="4806.35" y1="506.1" y2="506.1" gradientTransform="matrix(-1 0 0 1 5423.69 0)" gradientUnits="userSpaceOnUse"><stop offset="0" stop-color="#f35529" class="stopColorf35529 svgShape"></stop><stop offset="1" stop-color="#812100" class="stopColor812100 svgShape"></stop></linearGradient></defs><path fill="url(#a)" d="M1623.25 782.36c-42.79-11.48-89.59-14.51-132.39-30.6-116.07-43.62-196.95-145-296.81-214-54.16-37.44-113.8-64.4-179.73-71.89-75.79-8.62-151.72 5-225.85 19.71-74.54 14.84-150.11 32.15-226.58 30.42-74.16-1.68-147.71-23.78-209.8-64.58-62.3-40.95-108.36-100.77-167.21-145.91-51.29-39.35-117.77-65.68-183.13-51.44-.59.13-1.17.28-1.75.42v606.37h1623.25Z"></path><path fill="#ffbcd2" d="m134.48 368.04 66.75-38.53V228.63l-66.75 38.54v100.87z" class="colorffbcd2 svgShape"></path><path fill="#ffffff" d="m143.3 320.89 49.01-28.3v-48.1l-49.01 28.3v48.1zM161.94 320.51l30.37-17.53v-2.74l-30.37 17.53v2.74z" class="colorfff svgShape"></path><path fill="#ffffff" d="m143.3 331.27 13.83-7.98v-2.74l-13.83 7.98v2.74z" opacity=".6" class="colorfff svgShape"></path><path fill="#ffffff" d="m143.3 342.17 49.01-28.3v-2.74l-49.01 28.3v2.74zM104.5 500.67h3v121.58h-3zM107.5 658.92h-3v-4.48h3Zm0-11.2h-3v-4.49h3Zm0-11.21h-3V632h3Z" class="colorfff svgShape"></path><path fill="#ffffff" d="M100.09 508.77 98 506.65l7-7a1.5 1.5 0 0 1 1.06-.44 1.52 1.52 0 0 1 1.06.44l6.9 6.91-2.12 2.12-5.84-5.85Z" class="colorfff svgShape"></path><path fill="#b8edff" d="M838.44 401.65h-3v-4.49h3Zm0-11.21h-3V386h3Zm0-11.21h-3v-4.49h3Zm0-11.21h-3v-4.48h3Zm0-11.21h-3v-4.48h3Zm0-11.21h-3v-4.48h3Zm0-11.21h-3v-4.48h3Zm0-11.21h-3v-4.48h3ZM869.81 404.37a9 9 0 1 1 9-9 9 9 0 0 1-9 9Zm0-15a6 6 0 1 0 6 6 6 6 0 0 0-6-6.03ZM189.75 179.27a9 9 0 1 1 9-9 9 9 0 0 1-9 9Zm0-15a6 6 0 1 0 6 6 6 6 0 0 0-6-6.03ZM464.41 128.38a15.49 15.49 0 1 1 15.49-15.49 15.51 15.51 0 0 1-15.49 15.49Zm0-28a12.49 12.49 0 1 0 12.49 12.49 12.5 12.5 0 0 0-12.49-12.47Z" class="colorb8edff svgShape"></path><path fill="#ffffff" d="M831.8 715.08a12.6 12.6 0 1 1 12.6-12.6 12.61 12.61 0 0 1-12.6 12.6Zm0-22.2a9.6 9.6 0 1 0 9.6 9.6 9.62 9.62 0 0 0-9.6-9.6ZM986.77 576.21h-21.9a1.5 1.5 0 0 1-1.5-1.5v-21.9a1.5 1.5 0 0 1 1.5-1.5h21.9a1.5 1.5 0 0 1 1.5 1.5v21.9a1.5 1.5 0 0 1-1.5 1.5Zm-20.4-3h18.9v-18.9h-18.9Z" class="colorfff svgShape"></path><path fill="#b8edff" d="M806.93 192.53H785a1.5 1.5 0 0 1-1.5-1.5v-21.9a1.5 1.5 0 0 1 1.5-1.5h21.9a1.5 1.5 0 0 1 1.5 1.5V191a1.5 1.5 0 0 1-1.47 1.53Zm-20.4-3h18.9v-18.9h-18.9Z" class="colorb8edff svgShape"></path><path fill="#ffffff" d="M214.94 748.71a1.5 1.5 0 0 1-1.06-.43l-13.71-13.72a1.49 1.49 0 0 1 0-2.12l13.71-13.72a1.55 1.55 0 0 1 2.12 0l13.72 13.72a1.5 1.5 0 0 1 0 2.12L216 748.28a1.48 1.48 0 0 1-1.06.43Zm-11.59-15.21 11.59 11.59 11.6-11.59-11.6-11.6Z" class="colorfff svgShape"></path><path fill="#ffffff" d="M439.73 726.23h3v52.86h-3z" transform="rotate(-60 441.223 752.659)" class="colorfff svgShape"></path><path fill="#ffffff" d="m227.9 683.64-3.9-2.24 1.5-2.6 3.9 2.2Zm-9.71-5.64-3.88-2.24 1.5-2.6 3.88 2.25Zm-9.7-5.6-3.89-2.24 1.5-2.6 3.89 2.24Zm-9.71-5.61-3.88-2.24 1.5-2.59 3.88 2.24Zm-9.71-5.6-3.88-2.19 1.5-2.6 3.88 2.24Zm-9.71-5.6-3.88-2.25 1.5-2.59 3.88 2.24Zm-9.7-5.61-3.89-2.24 1.5-2.6 3.89 2.24Zm-9.71-5.6-3.88-2.24 1.5-2.6 3.88 2.24ZM507 765.79l-1.51-2.59 3.87-2.26 1.51 2.59Zm9.68-5.66-1.52-2.59 3.87-2.26 1.52 2.59Zm9.67-5.66-1.52-2.59 3.87-2.26 1.52 2.59Zm9.67-5.66-1.51-2.59 3.87-2.26 1.51 2.59Zm9.68-5.66-1.52-2.59 3.82-2.26 1.52 2.59Zm9.67-5.66-1.51-2.59 3.87-2.26 1.51 2.59Zm9.68-5.66-1.52-2.59 3.87-2.26 1.52 2.59Zm9.67-5.66-1.51-2.59 3.87-2.26 1.51 2.59Z" class="colorfff svgShape"></path><path d="m114.47 597.75 388.52-227.58 143.59 80.85-87.95 55.6L371.6 615.19l-110.39 65.28-47.27-27.02-99.47-55.7z" opacity=".1" fill="#000000" class="color000 svgShape"></path><path fill="#e60026" d="m464.21 345.75-88.27-52.22 123.98-72.37 88.27 52.22-123.98 72.37z" class="colore60026 svgShape"></path><path fill="#ff6161" d="m399.71 150.31-68.81 4.59-69.37 78.94 2.98 6.38 66.39-78.11 65.94-5.62 2.87-6.18z" class="colorff6161 svgShape"></path><path fill="#f62121" d="m338.19 332.11-96.7-55.06 155.94-90.87 96.71 55.06-155.95 90.87z" class="colorf62121 svgShape"></path><path fill="#ffdd73" d="m584.99 427.26-120.34 69.48V346.11l120.34-69.48v150.63z" class="colorffdd73 svgShape"></path><path fill="#91bcf8" d="m479.94 384.78 21.36-12.33v-21.57l-21.36 12.33v21.57z" class="color91bcf8 svgShape"></path><path fill="#dfa93f" d="m503.45 347.17-2.39 4.2-21.13 12.2v-2.82l23.52-13.58z" class="colordfa93f svgShape"></path><path fill="#edb640" d="M501.06 351.32v21.26l2.41-1.42v-23.98l-2.41 4.14z" class="coloredb640 svgShape"></path><path fill="#8fa6e6" d="m501.06 372.48-2.66 1.54v-21.06l2.66-1.54v21.06z" class="color8fa6e6 svgShape"></path><path fill="#8fa6e6" d="M500.94 351.34v3.07l-21 12.13v-3.08l21-12.12z" class="color8fa6e6 svgShape"></path><path fill="#8fa6e6" d="m490.35 378.52-1.36.78v-19.41l1.36-.78v19.41z" class="color8fa6e6 svgShape"></path><path fill="#91bcf8" d="m511.86 366.36 21.36-12.34v-21.57l-21.36 12.34v21.57z" class="color91bcf8 svgShape"></path><path fill="#dfa93f" d="m535.37 328.74-2.39 4.2-21.13 12.2-.01-2.76v-.05l23.53-13.59z" class="colordfa93f svgShape"></path><path fill="#edb640" d="M532.98 332.9v21.25l2.4-1.42v-23.98l-2.4 4.15z" class="coloredb640 svgShape"></path><path fill="#8fa6e6" d="m532.98 354.06-2.66 1.53v-21.06l2.66-1.53v21.06z" class="color8fa6e6 svgShape"></path><path fill="#8fa6e6" d="M532.86 332.91v3.07l-21 12.13v-3.07l21-12.13z" class="color8fa6e6 svgShape"></path><path fill="#8fa6e6" d="m522.26 360.09-1.35.78v-19.41l1.35-.78v19.41z" class="color8fa6e6 svgShape"></path><path fill="#91bcf8" d="m543.77 347.93 21.36-12.34v-21.57l-21.36 12.34v21.57z" class="color91bcf8 svgShape"></path><path fill="#dfa93f" d="m567.29 310.31-2.4 4.21-21.13 12.2v-2.82l23.53-13.59z" class="colordfa93f svgShape"></path><path fill="#edb640" d="M564.9 314.47v21.25l2.4-1.41v-23.99l-2.4 4.15z" class="coloredb640 svgShape"></path><path fill="#8fa6e6" d="m564.9 335.63-2.66 1.54V316.1l2.66-1.53v21.06z" class="color8fa6e6 svgShape"></path><path fill="#8fa6e6" d="M564.78 314.49v3.07l-21.01 12.12v-3.07l21.01-12.12z" class="color8fa6e6 svgShape"></path><path fill="#8fa6e6" d="m554.18 341.66-1.36.79v-19.41l1.36-.79v19.41z" class="color8fa6e6 svgShape"></path><path fill="#91bcf8" d="m479.94 424.46 21.36-12.34v-21.57l-21.36 12.34v21.57z" class="color91bcf8 svgShape"></path><path fill="#dfa93f" d="m503.45 386.84-2.39 4.21-21.13 12.2v-2.82l23.52-13.59z" class="colordfa93f svgShape"></path><path fill="#edb640" d="M501.06 391v21.25l2.41-1.42v-23.98l-2.41 4.15z" class="coloredb640 svgShape"></path><path fill="#8fa6e6" d="m501.06 412.16-2.66 1.53v-21.06l2.66-1.53v21.06z" class="color8fa6e6 svgShape"></path><path fill="#8fa6e6" d="M500.94 391.01v3.07l-21 12.13v-3.07l21-12.13z" class="color8fa6e6 svgShape"></path><path fill="#8fa6e6" d="m490.35 418.19-1.36.79v-19.42l1.36-.78v19.41z" class="color8fa6e6 svgShape"></path><path fill="#91bcf8" d="m511.86 406.03 21.36-12.33v-21.57l-21.36 12.33v21.57z" class="color91bcf8 svgShape"></path><path fill="#dfa93f" d="m535.37 368.42-2.39 4.2-21.13 12.2-.01-2.76V382l23.53-13.58z" class="colordfa93f svgShape"></path><path fill="#edb640" d="M532.98 372.57v21.25l2.4-1.41v-23.99l-2.4 4.15z" class="coloredb640 svgShape"></path><path fill="#8fa6e6" d="m532.98 393.73-2.66 1.54v-21.06l2.66-1.54v21.06z" class="color8fa6e6 svgShape"></path><path fill="#8fa6e6" d="M532.86 372.59v3.07l-21 12.12v-3.07l21-12.12z" class="color8fa6e6 svgShape"></path><path fill="#8fa6e6" d="m522.26 399.76-1.35.79v-19.41l1.35-.78v19.4z" class="color8fa6e6 svgShape"></path><path fill="#91bcf8" d="m543.77 387.6 21.36-12.33V353.7l-21.36 12.33v21.57z" class="color91bcf8 svgShape"></path><path fill="#dfa93f" d="m567.29 349.99-2.4 4.2-21.13 12.2v-2.82l23.53-13.58z" class="colordfa93f svgShape"></path><path fill="#edb640" d="M564.9 354.14v21.26l2.4-1.42V350l-2.4 4.14z" class="coloredb640 svgShape"></path><path fill="#8fa6e6" d="m564.9 375.3-2.66 1.54v-21.06l2.66-1.54v21.06z" class="color8fa6e6 svgShape"></path><path fill="#8fa6e6" d="M564.78 354.16v3.07l-21.01 12.13v-3.07l21.01-12.13z" class="color8fa6e6 svgShape"></path><path fill="#8fa6e6" d="m554.18 381.34-1.36.78v-19.41l1.36-.78v19.41z" class="color8fa6e6 svgShape"></path><path fill="#91bcf8" d="m479.94 464.13 21.36-12.33v-21.57l-21.36 12.33v21.57z" class="color91bcf8 svgShape"></path><path fill="#dfa93f" d="m503.45 426.52-2.39 4.2-21.13 12.2v-2.82l23.52-13.58z" class="colordfa93f svgShape"></path><path fill="#edb640" d="M501.06 430.67v21.26l2.41-1.42v-23.99l-2.41 4.15z" class="coloredb640 svgShape"></path><path fill="#8fa6e6" d="m501.06 451.83-2.66 1.54v-21.06l2.66-1.54v21.06z" class="color8fa6e6 svgShape"></path><path fill="#8fa6e6" d="M500.94 430.69v3.07l-21 12.12v-3.07l21-12.12z" class="color8fa6e6 svgShape"></path><path fill="#8fa6e6" d="m490.35 457.87-1.36.78v-19.41l1.36-.78v19.41z" class="color8fa6e6 svgShape"></path><path fill="#91bcf8" d="m511.86 445.7 21.36-12.33V411.8l-21.36 12.33v21.57z" class="color91bcf8 svgShape"></path><path fill="#dfa93f" d="m535.37 408.09-2.39 4.2-21.13 12.2-.01-2.76v-.05l23.53-13.59z" class="colordfa93f svgShape"></path><path fill="#edb640" d="M532.98 412.25v21.25l2.4-1.42V408.1l-2.4 4.15z" class="coloredb640 svgShape"></path><path fill="#8fa6e6" d="m532.98 433.41-2.66 1.53v-21.06l2.66-1.53v21.06z" class="color8fa6e6 svgShape"></path><path fill="#8fa6e6" d="M532.86 412.26v3.07l-21 12.13v-3.07l21-12.13z" class="color8fa6e6 svgShape"></path><path fill="#8fa6e6" d="m522.26 439.44-1.35.78v-19.41l1.35-.78v19.41z" class="color8fa6e6 svgShape"></path><path fill="#91bcf8" d="m543.77 427.28 21.36-12.34v-21.57l-21.36 12.34v21.57z" class="color91bcf8 svgShape"></path><path fill="#dfa93f" d="m567.29 389.66-2.4 4.21-21.13 12.19v-2.81l23.53-13.59z" class="colordfa93f svgShape"></path><path fill="#edb640" d="M564.9 393.82v21.25l2.4-1.41v-23.99l-2.4 4.15z" class="coloredb640 svgShape"></path><path fill="#8fa6e6" d="m564.9 414.98-2.66 1.53v-21.06l2.66-1.53v21.06z" class="color8fa6e6 svgShape"></path><path fill="#8fa6e6" d="M564.78 393.83v3.07l-21.01 12.13v-3.07l21.01-12.13z" class="color8fa6e6 svgShape"></path><path fill="#8fa6e6" d="m554.18 421.01-1.36.79v-19.41l1.36-.79v19.41z" class="color8fa6e6 svgShape"></path><path fill="#ff6161" d="m464.11 351.77 124.08-71.64v-6.79l-124.08 71.64v6.79z" class="colorff6161 svgShape"></path><path fill="#cd7556" d="m585.08 427.21-120.67 69.67v-12.77l120.67-69.67v12.77z" class="colorcd7556 svgShape"></path><path fill="#f3c356" d="m331.48 563.02-87.43-45.06V282.95l88.03 48.85-.6 231.22z" class="colorf3c356 svgShape"></path><path fill="#ffdd73" d="m443.54 245.55-112.92 65.19v-56.49l56.31-62.76 56.61-1.63v55.69z" class="colorffdd73 svgShape"></path><path fill="#f3c356" d="m330.62 310.74-59.17-34.39-.16-45.36 59.17 20.63.16 59.12z" class="colorf3c356 svgShape"></path><ellipse cx="390.02" cy="225.53" fill="#bcbcbc" rx="15.31" ry="8.84" transform="rotate(-60 390.007 225.528)" class="colorbcbcbc svgShape"></ellipse><path fill="#f7f7f7" d="M388.39 214.12c-5.21 3.91-9.2 11.39-9.2 17.66s4 9.13 9.2 7c5.21-3.91 9.21-11.39 9.21-17.66s-4-9.12-9.21-7Z" class="colorf7f7f7 svgShape"></path><path fill="#eaeaea" d="M388.46 214.08c-.42.31-.82.65-1.22 1 4.6-1.21 8 1.66 8 7.43s-3.39 12.55-8 16.65a10.71 10.71 0 0 0 1.22-.39c5.21-3.92 9.2-11.4 9.2-17.67s-3.99-9.1-9.2-7.02Z" class="coloreaeaea svgShape"></path><path fill="#84807e" d="M387.06 228.45a.45.45 0 0 1-.4.05c-.24-.11-.26-.54 0-.95l4.92-9.12c.22-.4.6-.65.84-.53s.27.54.05.95l-4.96 9.15a1.31 1.31 0 0 1-.45.45Z" class="color84807e svgShape"></path><path fill="#84807e" d="M390.91 231.14a.38.38 0 0 1-.44 0l-3.85-2.71c-.22-.15-.2-.6.05-1s.62-.59.84-.43l3.85 2.71c.22.15.2.6-.05 1a1.09 1.09 0 0 1-.4.43Z" class="color84807e svgShape"></path><path fill="#ffe799" d="m490.33 332.59-158.25 91.37v-89.04l158.25-91.37v89.04z" class="colorffe799 svgShape"></path><path fill="#ffe799" d="m490.33 474.66-158.85 91.48V423.73l158.85-91.48v142.41z" class="colorffe799 svgShape"></path><path fill="#e2832d" d="m396.61 510.56 45.65-26.36v-65.49l-45.65 26.36v65.49z" class="colore2832d svgShape"></path><path fill="#cd7556" d="m511.12 477.72-158.91 91.97.04-9.21 158.87-91.64v8.88zM524.96 494.56l-158.91 92.22v-9.13l158.91-91.97v8.88zM537.92 510.97 379.19 603.2v-8.87l158.73-92.24v8.88z" class="colorcd7556 svgShape"></path><path fill="#d16f20" d="m442.22 419.02-45.6 26.33.02 3.07 42.79-24.71v61.84l2.67-1.55v-61.83l.12-3.15z" class="colord16f20 svgShape"></path><path fill="#d16f20" d="m420.92 496.23-2.63 1.52v-62.44l2.63-1.52v62.44z" class="colord16f20 svgShape"></path><path fill="#c26445" d="M331.37 574.93v-26.96l20.88 12.51v9.21l13.84 7.96v8.88l13.1 7.7v8.88l-47.82-28.18z" class="colorc26445 svgShape"></path><path fill="#ff6161" d="m476.81 386.68-117.05 67.58v-19.08l117.05-67.58v19.08z" class="colorff6161 svgShape"></path><path fill="#f62121" d="m330.9 154.9-69.51 78.99 2.98 6.37 56.4 32.57 67.62-84.76-57.49-33.17z" class="colorf62121 svgShape"></path><path fill="#d11818" d="m264.37 240.26-2.98-6.37 56.41 32.57 2.97 6.37-56.4-32.57z" class="colord11818 svgShape"></path><path fill="#91bcf8" d="m343.43 382.44 132.7-76.62v-21.89l-132.7 76.61v21.9z" class="color91bcf8 svgShape"></path><path fill="#8fa6e6" d="m471.12 308.43 4.77-8.3-.35 4.77-.38 1.32-4.04 2.21zM436.53 328.4l16.33-28.38 21.7-12.53-.12 7.13-10.61 18.14-27.3 15.64zM398.37 350.43l16.33-28.37 4.56-2.64-16.85 28.8-4.04 2.21zM363.79 370.4l16.32-28.38 27.82-16.06-16.85 28.8-27.29 15.64z" class="color8fa6e6 svgShape"></path><path fill="#dfa93f" d="m478.29 280.21-2.4 4.21-132.47 76.48-.01-2.76v-.06l134.88-77.87z" class="colordfa93f svgShape"></path><path fill="#edb640" d="M475.89 284.37v21.58l2.41-1.42v-24.31l-2.41 4.15z" class="coloredb640 svgShape"></path><path fill="#8fa6e6" d="m475.89 305.86-2.66 1.53V286l2.66-1.53v21.39z" class="color8fa6e6 svgShape"></path><path fill="#8fa6e6" d="M475.77 284.38v3.07l-132.34 76.42v-3.07l132.34-76.42z" class="color8fa6e6 svgShape"></path><path fill="#edb640" d="m455.44 317.77 1.68-.97v-24.36l-1.68.96v24.37z" class="coloredb640 svgShape"></path><path fill="#dfa93f" d="m453.76 318.74 1.68-.97V293.4l-1.68.97v24.37z" class="colordfa93f svgShape"></path><path fill="#edb640" d="m432.47 331.03 1.68-.97V305.7l-1.68.97v24.36z" class="coloredb640 svgShape"></path><path fill="#dfa93f" d="m430.79 332 1.68-.97v-24.36l-1.68.97V332z" class="colordfa93f svgShape"></path><path fill="#edb640" d="m409.5 344.29 1.68-.97v-24.36l-1.68.97v24.36z" class="coloredb640 svgShape"></path><path fill="#dfa93f" d="m407.82 345.26 1.68-.97v-24.36l-1.68.97v24.36z" class="colordfa93f svgShape"></path><path fill="#edb640" d="m386.53 357.56 1.67-.97v-24.37l-1.67.97v24.37z" class="coloredb640 svgShape"></path><path fill="#dfa93f" d="m384.85 358.52 1.68-.96v-24.37l-1.68.97v24.36z" class="colordfa93f svgShape"></path><path fill="#edb640" d="m363.56 370.82 1.67-.97v-24.36l-1.67.96v24.37z" class="coloredb640 svgShape"></path><path fill="#dfa93f" d="m361.88 371.79 1.68-.97v-24.37l-1.68.97v24.37z" class="colordfa93f svgShape"></path><path fill="#91bcf8" d="m343.43 423.69 132.7-76.62v-21.89l-132.7 76.61v21.9z" class="color91bcf8 svgShape"></path><path fill="#8fa6e6" d="m343.51 423.42-.08-18.99 16.41-9.39 14.1-8.14-16.84 28.79-13.59 7.73zM362.59 412.4l16.33-28.38 4.56-2.63-16.84 28.8-4.05 2.21zM435.34 370.4l16.33-28.38 4.56-2.63-16.85 28.8-4.04 2.21zM400.76 390.37l16.32-28.38 27.82-16.06-16.85 28.8-27.29 15.64z" class="color8fa6e6 svgShape"></path><path fill="#dfa93f" d="m478.29 321.46-2.4 4.21-132.47 76.48-.01-2.76v-.06l134.88-77.87z" class="colordfa93f svgShape"></path><path fill="#edb640" d="M475.89 325.62v21.58l2.41-1.42v-24.31l-2.41 4.15z" class="coloredb640 svgShape"></path><path fill="#8fa6e6" d="m475.89 347.11-2.66 1.53v-21.39l2.66-1.53v21.39z" class="color8fa6e6 svgShape"></path><path fill="#8fa6e6" d="M475.77 325.63v3.08l-132.34 76.41v-3.07l132.34-76.42z" class="color8fa6e6 svgShape"></path><path fill="#edb640" d="m455.44 359.02 1.68-.97v-24.36l-1.68.96v24.37z" class="coloredb640 svgShape"></path><path fill="#dfa93f" d="m453.76 359.99 1.68-.97v-24.37l-1.68.97v24.37z" class="colordfa93f svgShape"></path><path fill="#edb640" d="m432.47 372.28 1.68-.97v-24.36l-1.68.97v24.36z" class="coloredb640 svgShape"></path><path fill="#dfa93f" d="m430.79 373.25 1.68-.97v-24.36l-1.68.97v24.36z" class="colordfa93f svgShape"></path><path fill="#edb640" d="m409.5 385.54 1.68-.97v-24.36l-1.68.97v24.36z" class="coloredb640 svgShape"></path><path fill="#dfa93f" d="m407.82 386.51 1.68-.97v-24.36l-1.68.97v24.36z" class="colordfa93f svgShape"></path><path fill="#edb640" d="m386.53 398.81 1.67-.97v-24.37l-1.67.97v24.37z" class="coloredb640 svgShape"></path><path fill="#dfa93f" d="m384.85 399.77 1.68-.96v-24.37l-1.68.97v24.36z" class="colordfa93f svgShape"></path><path fill="#edb640" d="m363.56 412.07 1.67-.97v-24.36l-1.67.96v24.37z" class="coloredb640 svgShape"></path><path fill="#dfa93f" d="m361.88 413.04 1.68-.97V387.7l-1.68.97v24.37z" class="colordfa93f svgShape"></path><path fill="#d11818" d="m337.53 338.56-96.04-54.95v-6.79l96.04 54.96v6.78z" class="colord11818 svgShape"></path><path fill="#ff6161" d="m494.63 247.86-157.1 90.7v-6.78l157.1-90.71v6.79z" class="colorff6161 svgShape"></path><path fill="#91bcf8" d="m358.33 282.95 13.88-8.02v-16.32l-13.88 8.01v16.33z" class="color91bcf8 svgShape"></path><path fill="#dfa93f" d="m374.36 254.9-2.39 4.2-13.65 7.88v-2.82l16.04-9.26z" class="colordfa93f svgShape"></path><path fill="#dfa93f" d="M371.97 259.05v16.01l2.41-1.41V254.9l-2.41 4.15z" class="colordfa93f svgShape"></path><path fill="#8fa6e6" d="m371.97 274.97-2.66 1.53v-15.82l2.66-1.53v15.82z" class="color8fa6e6 svgShape"></path><path fill="#8fa6e6" d="M371.85 259.06v3.07l-13.52 7.81v-3.07l13.52-7.81z" class="color8fa6e6 svgShape"></path><path fill="#91bcf8" d="m384.22 268 13.88-8.01v-16.33l-13.88 8.01V268z" class="color91bcf8 svgShape"></path><path fill="#dfa93f" d="m400.25 239.95-2.39 4.2-13.65 7.88v-2.82l16.04-9.26z" class="colordfa93f svgShape"></path><path fill="#dfa93f" d="M397.86 244.1v16.02l2.41-1.42v-18.75l-2.41 4.15z" class="colordfa93f svgShape"></path><path fill="#8fa6e6" d="m397.86 260.02-2.66 1.54v-15.82l2.66-1.54v15.82z" class="color8fa6e6 svgShape"></path><path fill="#8fa6e6" d="M397.74 244.12v3.07L384.22 255v-3.07l13.52-7.81z" class="color8fa6e6 svgShape"></path><path fill="#91bcf8" d="m410.11 253.05 13.88-8.01v-16.33l-13.88 8.01v16.33z" class="color91bcf8 svgShape"></path><path fill="#dfa93f" d="m426.15 225-2.4 4.2-13.65 7.88v-2.82l16.05-9.26z" class="colordfa93f svgShape"></path><path fill="#dfa93f" d="M423.75 229.15v16.02l2.41-1.42v-18.74l-2.41 4.14z" class="colordfa93f svgShape"></path><path fill="#8fa6e6" d="m423.75 245.07-2.65 1.54v-15.82l2.65-1.54v15.82z" class="color8fa6e6 svgShape"></path><path fill="#8fa6e6" d="M423.63 229.17v3.07l-13.52 7.81v-3.07l13.52-7.81z" class="color8fa6e6 svgShape"></path><path fill="#c26445" d="m331.37 574.93-36.61-21.13v-12.77l36.61 21.14v12.76z" class="colorc26445 svgShape"></path><path fill="#c26445" d="m331.37 564.1-36.61-21.13v-16.12l36.61 21.14v16.11z" class="colorc26445 svgShape"></path><path fill="#dc9473" d="m352.23 560.49 158.89-91.63-20.86-12.48-158.89 91.63 20.86 12.48zM352.25 569.69l13.84 7.96 158.87-91.99-13.84-7.96-158.87 91.99zM366.09 586.58l13.1 7.94 158.73-92.31-13.01-7.84-158.82 92.21z" class="colordc9473 svgShape"></path><path fill="#ffdd73" d="m211.23 645.09 120.34-69.48V424.97l-120.34 69.48v150.64z" class="colorffdd73 svgShape"></path><path fill="#f3c356" d="m129.95 598.49 81.28 46.64V494.5l-81.28-46.64v150.63z" class="colorf3c356 svgShape"></path><path fill="#91bcf8" d="m229.83 531.22 21.36-12.33v-21.57l-21.36 12.33v21.57z" class="color91bcf8 svgShape"></path><path fill="#dfa93f" d="m253.34 493.61-2.39 4.2-21.13 12.2-.01-2.76v-.06l23.53-13.58z" class="colordfa93f svgShape"></path><path fill="#edb640" d="M250.95 497.76v21.25l2.4-1.41v-23.99l-2.4 4.15z" class="coloredb640 svgShape"></path><path fill="#8fa6e6" d="m250.95 518.92-2.66 1.54V499.4l2.66-1.54v21.06z" class="color8fa6e6 svgShape"></path><path fill="#8fa6e6" d="M250.83 497.78v3.07l-21 12.12v-3.07l21-12.12z" class="color8fa6e6 svgShape"></path><path fill="#8fa6e6" d="m240.24 524.96-1.36.78v-19.41l1.36-.78v19.41z" class="color8fa6e6 svgShape"></path><path fill="#7797d4" d="m195.06 612.1-18.17-10.49V500.9l18.17 10.49V612.1z" class="color7797d4 svgShape"></path><path fill="#dfa93f" d="m174.73 497.19 2.4 4.2 17.94 10.36v-2.82l-20.34-11.74z" class="colordfa93f svgShape"></path><path fill="#ffdd73" d="M177.13 501.34v100.4l-2.41-1.42V497.19l2.41 4.15z" class="colorffdd73 svgShape"></path><path fill="#7386b9" d="m177.13 601.65 2.65 1.53v-100.2l-2.65-1.54v100.21z" class="color7386b9 svgShape"></path><path fill="#7386b9" d="M177.25 501.36v3.07l17.81 10.28v-3.07l-17.81-10.28z" class="color7386b9 svgShape"></path><path fill="#7797d4" d="m164.47 594.45-18.17-10.5V483.24l18.17 10.49v100.72z" class="color7797d4 svgShape"></path><path fill="#dfa93f" d="m144.15 479.53 2.4 4.2 17.93 10.36.01-2.76v-.06l-20.34-11.74z" class="colordfa93f svgShape"></path><path fill="#ffdd73" d="M146.54 483.68v100.4l-2.4-1.41V479.54l2.4 4.14z" class="colorffdd73 svgShape"></path><path fill="#7386b9" d="m146.54 583.99 2.66 1.53v-100.2l-2.66-1.54v100.21z" class="color7386b9 svgShape"></path><path fill="#7386b9" d="M146.66 483.7v3.07l17.81 10.28v-3.07l-17.81-10.28z" class="color7386b9 svgShape"></path><path fill="#91bcf8" d="m261.74 512.79 21.37-12.33v-21.57l-21.37 12.33v21.57z" class="color91bcf8 svgShape"></path><path fill="#dfa93f" d="m285.26 475.18-2.4 4.2-21.13 12.2v-2.82l23.53-13.58z" class="colordfa93f svgShape"></path><path fill="#edb640" d="M282.87 479.33v21.26l2.4-1.42v-23.98l-2.4 4.14z" class="coloredb640 svgShape"></path><path fill="#8fa6e6" d="m282.87 500.5-2.66 1.53v-21.06l2.66-1.54v21.07z" class="color8fa6e6 svgShape"></path><path fill="#8fa6e6" d="M282.75 479.35v3.07l-21 12.13v-3.07l21-12.13z" class="color8fa6e6 svgShape"></path><path fill="#8fa6e6" d="m272.15 506.53-1.35.78V487.9l1.35-.78v19.41z" class="color8fa6e6 svgShape"></path><path fill="#91bcf8" d="m293.66 494.37 21.36-12.34v-21.57l-21.36 12.34v21.57z" class="color91bcf8 svgShape"></path><path fill="#dfa93f" d="m317.18 456.75-2.4 4.2-21.13 12.2v-2.81l23.53-13.59z" class="colordfa93f svgShape"></path><path fill="#edb640" d="M314.78 460.91v21.25l2.41-1.42v-23.98l-2.41 4.15z" class="coloredb640 svgShape"></path><path fill="#8fa6e6" d="m314.79 482.07-2.66 1.53v-21.06l2.66-1.53v21.06z" class="color8fa6e6 svgShape"></path><path fill="#8fa6e6" d="M314.67 460.92v3.07l-21.01 12.13v-3.07l21.01-12.13z" class="color8fa6e6 svgShape"></path><path fill="#8fa6e6" d="m304.07 488.1-1.36.78v-19.41l1.36-.78v19.41z" class="color8fa6e6 svgShape"></path><path fill="#91bcf8" d="m229.83 570.89 21.36-12.33v-21.57l-21.36 12.34v21.56z" class="color91bcf8 svgShape"></path><path fill="#dfa93f" d="m253.34 533.28-2.39 4.2-21.13 12.2-.01-2.76v-.05l23.53-13.59z" class="colordfa93f svgShape"></path><path fill="#edb640" d="M250.95 537.44v21.25l2.4-1.42v-23.98l-2.4 4.15z" class="coloredb640 svgShape"></path><path fill="#8fa6e6" d="m250.95 558.6-2.66 1.53v-21.06l2.66-1.53v21.06z" class="color8fa6e6 svgShape"></path><path fill="#8fa6e6" d="M250.83 537.45v3.07l-21 12.13v-3.07l21-12.13z" class="color8fa6e6 svgShape"></path><path fill="#8fa6e6" d="m240.24 564.63-1.36.78V546l1.36-.78v19.41z" class="color8fa6e6 svgShape"></path><path fill="#91bcf8" d="m261.74 552.47 21.37-12.34v-21.56l-21.37 12.33v21.57z" class="color91bcf8 svgShape"></path><path fill="#dfa93f" d="m285.26 514.86-2.4 4.2-21.13 12.2v-2.82l23.53-13.58z" class="colordfa93f svgShape"></path><path fill="#edb640" d="M282.87 519.01v21.25l2.4-1.41v-23.99l-2.4 4.15z" class="coloredb640 svgShape"></path><path fill="#8fa6e6" d="m282.87 540.17-2.66 1.54v-21.07l2.66-1.53v21.06z" class="color8fa6e6 svgShape"></path><path fill="#8fa6e6" d="M282.75 519.02v3.08l-21 12.12v-3.07l21-12.13z" class="color8fa6e6 svgShape"></path><path fill="#8fa6e6" d="m272.15 546.2-1.35.79v-19.41l1.35-.79v19.41z" class="color8fa6e6 svgShape"></path><path fill="#91bcf8" d="m293.66 534.04 21.36-12.33v-21.57l-21.36 12.33v21.57z" class="color91bcf8 svgShape"></path><path fill="#dfa93f" d="m317.18 496.43-2.4 4.2-21.13 12.2v-2.82l23.53-13.58z" class="colordfa93f svgShape"></path><path fill="#edb640" d="M314.78 500.58v21.26l2.41-1.42v-23.98l-2.41 4.14z" class="coloredb640 svgShape"></path><path fill="#8fa6e6" d="m314.79 521.74-2.66 1.54v-21.06l2.66-1.54v21.06z" class="color8fa6e6 svgShape"></path><path fill="#8fa6e6" d="M314.67 500.6v3.07l-21.01 12.12v-3.07l21.01-12.12z" class="color8fa6e6 svgShape"></path><path fill="#8fa6e6" d="m304.07 527.78-1.36.78v-19.41l1.36-.78v19.41z" class="color8fa6e6 svgShape"></path><path fill="#91bcf8" d="m229.83 610.57 21.36-12.33v-21.57L229.83 589v21.57z" class="color91bcf8 svgShape"></path><path fill="#dfa93f" d="m253.34 572.96-2.39 4.2-21.13 12.2-.01-2.76v-.06l23.53-13.58z" class="colordfa93f svgShape"></path><path fill="#edb640" d="M250.95 577.11v21.26l2.4-1.42v-23.99l-2.4 4.15z" class="coloredb640 svgShape"></path><path fill="#8fa6e6" d="m250.95 598.27-2.66 1.54v-21.06l2.66-1.54v21.06z" class="color8fa6e6 svgShape"></path><path fill="#8fa6e6" d="M250.83 577.13v3.07l-21 12.12v-3.07l21-12.12z" class="color8fa6e6 svgShape"></path><path fill="#8fa6e6" d="m240.24 604.3-1.36.79v-19.41l1.36-.79v19.41z" class="color8fa6e6 svgShape"></path><path fill="#91bcf8" d="m261.74 592.14 21.37-12.33v-21.57l-21.37 12.33v21.57z" class="color91bcf8 svgShape"></path><path fill="#dfa93f" d="m285.26 554.53-2.4 4.2-21.13 12.2V568.12l23.53-13.59z" class="colordfa93f svgShape"></path><path fill="#edb640" d="M282.87 558.68v21.26l2.4-1.42v-23.98l-2.4 4.14z" class="coloredb640 svgShape"></path><path fill="#8fa6e6" d="m282.87 579.84-2.66 1.54v-21.06l2.66-1.54v21.06z" class="color8fa6e6 svgShape"></path><path fill="#8fa6e6" d="M282.75 558.7v3.07l-21 12.13v-3.07l21-12.13z" class="color8fa6e6 svgShape"></path><path fill="#8fa6e6" d="m272.15 585.88-1.35.78v-19.41l1.35-.78v19.41z" class="color8fa6e6 svgShape"></path><path fill="#91bcf8" d="m293.66 573.72 21.36-12.34v-21.57l-21.36 12.34v21.57z" class="color91bcf8 svgShape"></path><path fill="#dfa93f" d="m317.18 536.1-2.4 4.2-21.13 12.2v-2.81l23.53-13.59z" class="colordfa93f svgShape"></path><path fill="#edb640" d="M314.78 540.26v21.25l2.41-1.42v-23.98l-2.41 4.15z" class="coloredb640 svgShape"></path><path fill="#8fa6e6" d="m314.79 561.42-2.66 1.53v-21.06l2.66-1.53v21.06z" class="color8fa6e6 svgShape"></path><path fill="#8fa6e6" d="M314.67 540.27v3.07l-21.01 12.13v-3.07l21.01-12.13z" class="color8fa6e6 svgShape"></path><path fill="#8fa6e6" d="m304.07 567.45-1.36.78v-19.41l1.36-.78v19.41z" class="color8fa6e6 svgShape"></path><path fill="#ff6161" d="m332.11 430.02-124.08 71.64v-6.79l124.08-71.64v6.79z" class="colorff6161 svgShape"></path><path fill="#d11818" d="m208.03 501.35-88.88-51.31v-6.78l88.88 51.31v6.78z" class="colord11818 svgShape"></path><path fill="#c26445" d="m211.23 645.28-81.28-46.79v-12.76l81.28 46.78v12.77z" class="colorc26445 svgShape"></path><path fill="#cd7556" d="m331.57 575.61-120.4 69.52v-12.76l120.4-69.53v12.77z" class="colorcd7556 svgShape"></path><path fill="#f62121" d="m208.12 495.52-88.27-52.22 123.98-72.37 88.28 52.22-123.99 72.37z" class="colorf62121 svgShape"></path><path fill="#e60026" d="m330.9 154.9 57.49 33.17s68-4.32 67.58-5.15-56.26-32.61-56.26-32.61Z" class="colore60026 svgShape"></path><path fill="#ff6161" d="m455.97 182.92-68.81 4.59-69.36 78.95 2.97 6.37 66.39-78.11 65.95-5.62 2.86-6.18z" class="colorff6161 svgShape"></path><path fill="url(#b)" d="M813.51 279.41 634.75 176.35a1.31 1.31 0 0 0-1.24-.15h-.08l-6.79 4v7.18h7.9l-.32-3.51 172.53 99.47a3.09 3.09 0 0 1 .55.42l6.62-4.09a2.26 2.26 0 0 0-.41-.26Z"></path><path fill="url(#c)" d="m815.31 282.18-6.74 4.16a.86.86 0 0 1 0 .22v189a1.22 1.22 0 0 1-.66 1.23s6.82-4 6.82-4a1.25 1.25 0 0 0 .59-1.21v-189a2.73 2.73 0 0 0-.01-.4Z"></path><path fill="url(#e)" fill-rule="evenodd" d="M636.11 369.88a4 4 0 0 1-1.82-3.15V189.5l-.83-.48c-1-.58-1.82-.11-1.82 1v178a4 4 0 0 0 1.82 3.15l167.82 96.74c1 .58 1.82.11 1.82-1.05v-.76Z"></path><path fill="url(#f)" d="M806.75 476.63 628 373.58a4.06 4.06 0 0 1-1.83-3.18v-189c0-1.17.82-1.65 1.83-1.06l178.76 103a4.08 4.08 0 0 1 1.84 3.18v189c-.01 1.22-.84 1.7-1.85 1.11Zm-172.9-105.82 167 96.29c1 .59 1.84.11 1.84-1.06V289.33a4 4 0 0 0-1.84-3.18l-167-96.29c-1-.59-1.84-.11-1.84 1.06v176.71a4.07 4.07 0 0 0 1.84 3.18Z"></path><path fill="#df918a" d="m815.31 282.18-6.74 4.16a4.08 4.08 0 0 0-1.27-2.54l6.62-4.09a4.16 4.16 0 0 1 1.39 2.47Z" class="colordf918a svgShape"></path><path fill="#2d2b34" d="m687.82 209.58-9.68-5.58c-.25-.15-.22-.4.07-.57l1.26-.73a1.11 1.11 0 0 1 1 0l9.68 5.59c.25.14.22.4-.07.57l-1.26.73a1.11 1.11 0 0 1-1-.01Z" class="color2d2b34 svgShape"></path><path fill="#514e5a" d="m687.82 209.42-9.68-5.59c-.25-.14-.22-.4.07-.57l1.26-.73a1.11 1.11 0 0 1 1 0l9.68 5.59c.25.15.22.4-.07.57l-1.26.73a1.11 1.11 0 0 1-1 0Z" class="color514e5a svgShape"></path><path fill="#7c6467" d="m682.54 188.82-.68.35v1.23s.79.08.79 0-.11-1.58-.11-1.58ZM680.1 191.51l-.66.34v.59h.76l-.1-.93zM683.72 195.1l-.66.34v-.76l.64-.12.02.54zM689.01 208.42l-.7.36v-1.05l.68-.35.02 1.04z" class="color7c6467 svgShape"></path><path fill="#7c6467" d="m688.25 195.9-1.35-.78v-2.85a2.37 2.37 0 0 0-1.08-1.87l-2.57-1.48c-.59-.35-1.08-.07-1.08.62v2.85l-1.35-.78c-.59-.35-1.08-.07-1.08.62v10a2.39 2.39 0 0 0 1.08 1.87l7.43 4.29c.6.35 1.08.07 1.08-.62v-9.95a2.37 2.37 0 0 0-1.08-1.92Zm-.94 8.65c0 .3-.22.42-.48.27l-4.59-2.65a1 1 0 0 1-.47-.82v-6.7c0-.3.21-.42.47-.27l1.18.68c.26.15.47 0 .47-.28v-2.48c0-.3.21-.42.47-.27l.35.2a1 1 0 0 1 .47.82v2.48a1.06 1.06 0 0 0 .48.82l1.17.68a1 1 0 0 1 .48.81Z" class="color7c6467 svgShape"></path><path fill="#cfa49a" d="m687.6 196.23-1.35-.78v-2.84a2.37 2.37 0 0 0-1.08-1.87l-2.57-1.49c-.59-.34-1.08-.06-1.08.63v2.84l-1.35-.77c-.59-.35-1.08-.07-1.08.62v10a2.39 2.39 0 0 0 1.08 1.87l7.43 4.29c.6.35 1.08.07 1.08-.62v-10a2.4 2.4 0 0 0-1.08-1.88Zm-.94 8.65a.3.3 0 0 1-.48.28l-4.59-2.66a1 1 0 0 1-.47-.81V195c0-.3.21-.43.47-.28l1.18.68c.26.15.47 0 .47-.27v-2.48c0-.3.21-.42.47-.27l.35.2a1.06 1.06 0 0 1 .48.82v2.48a1 1 0 0 0 .47.82l1.17.68a1 1 0 0 1 .48.81Z" class="colorcfa49a svgShape"></path><path fill="#2d2b34" d="m767.84 256.21-9.67-5.58c-.26-.15-.23-.41.07-.58l1.26-.72a1.12 1.12 0 0 1 1-.05l9.68 5.59c.25.15.22.41-.07.58l-1.26.72a1.11 1.11 0 0 1-1.01.04Z" class="color2d2b34 svgShape"></path><path fill="#514e5a" d="m767.84 256.06-9.67-5.59c-.26-.15-.23-.41.07-.58l1.26-.72a1.09 1.09 0 0 1 1 0l9.68 5.58c.25.15.22.41-.07.58l-1.26.72a1.14 1.14 0 0 1-1.01.01Z" class="color514e5a svgShape"></path><path fill="#7c6467" d="m762.56 235.45-.68.36V237s.8.07.8 0-.12-1.55-.12-1.55ZM760.13 238.15l-.67.34v.59h.76l-.09-.93zM763.75 241.74l-.66.34v-.76l.63-.13.03.55zM769.04 255.05l-.71.37v-1.06l.68-.34.03 1.03z" class="color7c6467 svgShape"></path><path fill="#7c6467" d="m768.27 242.53-1.35-.78v-2.84a2.4 2.4 0 0 0-1.08-1.88l-2.56-1.48c-.6-.34-1.08-.06-1.08.63V239l-1.35-.78c-.6-.34-1.08-.06-1.08.63v9.95a2.37 2.37 0 0 0 1.08 1.87l7.42 4.29c.6.34 1.08.06 1.08-.62v-10a2.38 2.38 0 0 0-1.08-1.81Zm-.94 8.65c0 .3-.21.42-.47.27l-4.6-2.65a1 1 0 0 1-.47-.81v-6.71c0-.3.21-.42.47-.27l1.18.68c.26.15.47 0 .47-.27v-2.48c0-.3.21-.43.47-.28l.36.21a1 1 0 0 1 .47.82v2.48a1 1 0 0 0 .47.81l1.18.68a1 1 0 0 1 .47.82Z" class="color7c6467 svgShape"></path><path fill="#cfa49a" d="m767.62 242.87-1.35-.78v-2.85a2.38 2.38 0 0 0-1.08-1.87l-2.56-1.48c-.6-.34-1.08-.06-1.08.62v2.85l-1.35-.78c-.6-.34-1.08-.06-1.08.62v10a2.38 2.38 0 0 0 1.08 1.8l7.42 4.29c.6.34 1.08.06 1.08-.63v-9.95a2.37 2.37 0 0 0-1.08-1.84Zm-.94 8.65c0 .3-.21.42-.47.27l-4.6-2.65a1 1 0 0 1-.47-.82v-6.7c0-.3.21-.42.47-.27l1.18.68c.26.15.47 0 .47-.27v-2.49c0-.3.21-.42.47-.27l.36.21a1 1 0 0 1 .47.81v2.49a1 1 0 0 0 .47.81l1.18.68a1 1 0 0 1 .47.82Z" class="colorcfa49a svgShape"></path><path fill="#ffffff" d="M664.82 287.82a3.4 3.4 0 0 1-1.58-2.75v-23.82q0-.81.45-1.05a1.12 1.12 0 0 1 1.13.14l7.28 4.2a13.83 13.83 0 0 1 3.65 3 15 15 0 0 1 2.46 4 11.23 11.23 0 0 1 .9 4.32 3.91 3.91 0 0 1-.81 2.65 2.77 2.77 0 0 1-2.2.92 13.63 13.63 0 0 1 3.23 4.08 10.82 10.82 0 0 1 1.21 5 6 6 0 0 1-1 3.72 3.41 3.41 0 0 1-2.75 1.35 8 8 0 0 1-4.06-1.27Zm1.59-15.27 5.69 3.29a3.71 3.71 0 0 0 2.85.66c.74-.23 1.12-1 1.12-2.35a6.25 6.25 0 0 0-1.12-3.62 8.71 8.71 0 0 0-2.85-2.61l-5.69-3.29Zm0 12.8 6.33 3.66a5.79 5.79 0 0 0 2.47.87 2 2 0 0 0 1.68-.69 3.73 3.73 0 0 0 .61-2.36 6.88 6.88 0 0 0-.61-2.85 9.11 9.11 0 0 0-1.68-2.46 10.46 10.46 0 0 0-2.47-1.93l-6.33-3.66ZM691.91 303.6a13.86 13.86 0 0 1-4-3.59 19.23 19.23 0 0 1-2.79-5.09 16.14 16.14 0 0 1-1-5.57 7.48 7.48 0 0 1 1.11-4.36 4 4 0 0 1 3-1.75 7.27 7.27 0 0 1 4.28 1.18 15.31 15.31 0 0 1 4.26 3.75 20.29 20.29 0 0 1 3 5.23 15.54 15.54 0 0 1 1.13 5.6l-1.19-.69a8.13 8.13 0 0 1-1 4.39 3.87 3.87 0 0 1-2.79 1.88 6.3 6.3 0 0 1-4.01-.98Zm.61-2.82a4.43 4.43 0 0 0 2.77.74 2.59 2.59 0 0 0 1.92-1.25 5.37 5.37 0 0 0 .7-2.95 10.81 10.81 0 0 0-.7-3.8 13.05 13.05 0 0 0-1.92-3.47 9.71 9.71 0 0 0-2.77-2.46 4.49 4.49 0 0 0-2.76-.73 2.64 2.64 0 0 0-2 1.23 5.34 5.34 0 0 0-.72 3 10.68 10.68 0 0 0 .72 3.78 13.2 13.2 0 0 0 2 3.48 9.46 9.46 0 0 0 2.76 2.43Zm6.82 7a3.3 3.3 0 0 1-1.55-2.69v-5.38l.58-3.39 2.53 2.68v7.85a.93.93 0 0 1-1.56.89ZM713.09 315.82a15.25 15.25 0 0 1-4.35-3.79 19.39 19.39 0 0 1-3-5.2 15.64 15.64 0 0 1-1.08-5.61 8 8 0 0 1 1.06-4.45 3.77 3.77 0 0 1 2.93-1.77 7.26 7.26 0 0 1 4.26 1.21 13.45 13.45 0 0 1 3.29 2.69 19 19 0 0 1 2.69 3.92 2 2 0 0 1 .3 1.34.84.84 0 0 1-.67.67 1.1 1.1 0 0 1-.94-.32 4.19 4.19 0 0 1-1-1.16 10 10 0 0 0-3.72-4 4.55 4.55 0 0 0-2.74-.76 2.43 2.43 0 0 0-1.86 1.23 6 6 0 0 0-.67 3.1 10.86 10.86 0 0 0 .69 3.77 12.43 12.43 0 0 0 1.9 3.44 9.76 9.76 0 0 0 2.84 2.5 6.45 6.45 0 0 0 1.87.78 2.62 2.62 0 0 0 1.48-.08 1.26 1.26 0 0 1 1 .07 2.33 2.33 0 0 1 .92.86 3.33 3.33 0 0 1 .58 1.45.83.83 0 0 1-.37.89q-2.12 1.13-5.41-.78ZM725.34 322.76a3.05 3.05 0 0 1-1.5-2.59v-24a.89.89 0 0 1 1.5-.86 3 3 0 0 1 1.08 1.1 3 3 0 0 1 .41 1.48v24c0 .52-.14.86-.41 1a1.08 1.08 0 0 1-1.08-.13Zm1.43-6.21-1.89-3.49 9.35-4.24a1 1 0 0 1 1 .13 2.9 2.9 0 0 1 1 1.12 2.63 2.63 0 0 1 .4 1.39.92.92 0 0 1-.49.85Zm9.44 12.31a1.19 1.19 0 0 1-1.08-.22 3.05 3.05 0 0 1-1-1.19l-6.13-12.4 2.13-1.09 6.34 12.67a2.76 2.76 0 0 1 .35 1.41.86.86 0 0 1-.61.82ZM749.41 321.14a2.9 2.9 0 0 1-1-1 2.55 2.55 0 0 1-.4-1.29c0-.47.14-.77.4-.9a1.17 1.17 0 0 1 1 .18l7 4.07a2.85 2.85 0 0 1 1 1 2.64 2.64 0 0 1 .4 1.36.84.84 0 0 1-.4.83 1.09 1.09 0 0 1-1-.18Zm6.76 19.42a9.39 9.39 0 0 1-2.74-2.48 13.27 13.27 0 0 1-1.92-3.56 11.33 11.33 0 0 1-.7-3.88v-16.79a1.1 1.1 0 0 1 .42-1 1.11 1.11 0 0 1 1.1.14 3.06 3.06 0 0 1 1.1 1.13 3 3 0 0 1 .42 1.51v16.78a6 6 0 0 0 .68 2.75 4.34 4.34 0 0 0 1.64 1.9l1 .6a2.55 2.55 0 0 1 .93 1 3.13 3.13 0 0 1 .38 1.48c0 .52-.17.84-.51 1a1.48 1.48 0 0 1-1.29-.26ZM769.88 348.61a15.69 15.69 0 0 1-4.36-3.76 18.94 18.94 0 0 1-3-5.16 15.84 15.84 0 0 1-1.08-5.68 7.84 7.84 0 0 1 1.08-4.46 3.84 3.84 0 0 1 3-1.73 7.71 7.71 0 0 1 4.36 1.27 15.51 15.51 0 0 1 4.33 3.75 18.8 18.8 0 0 1 3 5.16 15.84 15.84 0 0 1 1.08 5.71 7.8 7.8 0 0 1-1.07 4.43 3.74 3.74 0 0 1-3 1.74 7.65 7.65 0 0 1-4.34-1.27Zm0-3.16a4.62 4.62 0 0 0 2.81.77 2.5 2.5 0 0 0 1.9-1.22 5.61 5.61 0 0 0 .68-3 11 11 0 0 0-.68-3.82 12.41 12.41 0 0 0-1.9-3.44 9.93 9.93 0 0 0-2.81-2.47 4.68 4.68 0 0 0-2.8-.77 2.53 2.53 0 0 0-1.92 1.23 5.57 5.57 0 0 0-.7 3 10.74 10.74 0 0 0 .7 3.81 12.88 12.88 0 0 0 1.92 3.44 9.72 9.72 0 0 0 2.8 2.47ZM675.59 336.61a18.47 18.47 0 0 1-3.71-2.85 21.49 21.49 0 0 1-3.08-3.76 15.54 15.54 0 0 1-1.92-4 1.53 1.53 0 0 1 0-1.36c.22-.3.58-.36 1.09-.19a2.5 2.5 0 0 1 1.08.82 4.56 4.56 0 0 1 .8 1.47 9.55 9.55 0 0 0 1.21 2.31 15.14 15.14 0 0 0 2 2.37 13.22 13.22 0 0 0 2.5 1.9 7.88 7.88 0 0 0 2.7 1 2.57 2.57 0 0 0 2-.38 2.37 2.37 0 0 0 .77-2 8.35 8.35 0 0 0-1.27-4.07 13.69 13.69 0 0 0-4.16-4.23 21.15 21.15 0 0 1-5.94-6 12.26 12.26 0 0 1-2.16-6.56 4.14 4.14 0 0 1 1.12-3.29 3.72 3.72 0 0 1 3.07-.7 12.18 12.18 0 0 1 4.31 1.65 15.06 15.06 0 0 1 3.24 2.47 17.32 17.32 0 0 1 2.43 3.05 21.74 21.74 0 0 1 1.79 3.54 3.29 3.29 0 0 1 .35 1.66c-.05.43-.24.67-.59.73a1.52 1.52 0 0 1-1.25-.55 4 4 0 0 1-1-1.49 13.86 13.86 0 0 0-1.19-2.41 12 12 0 0 0-1.65-2.06 10.65 10.65 0 0 0-2.22-1.69 6.81 6.81 0 0 0-3.78-1.21c-1 .08-1.52.81-1.52 2.2a6.33 6.33 0 0 0 .47 2.29 9 9 0 0 0 1.73 2.68 20.81 20.81 0 0 0 3.65 3.08 19.72 19.72 0 0 1 5.65 5.82 12.8 12.8 0 0 1 2 6.78 5.47 5.47 0 0 1-.71 3.07 3.2 3.2 0 0 1-1.92 1.37 5.37 5.37 0 0 1-2.74-.09 12.74 12.74 0 0 1-3.15-1.37ZM696.25 348.32a15.34 15.34 0 0 1-4.34-3.79 19.32 19.32 0 0 1-3-5.21 15.54 15.54 0 0 1-1.08-5.6 8 8 0 0 1 1.07-4.45 3.75 3.75 0 0 1 2.92-1.77 7.31 7.31 0 0 1 4.27 1.21 13.64 13.64 0 0 1 3.29 2.69 19 19 0 0 1 2.68 3.92 2.06 2.06 0 0 1 .31 1.34.87.87 0 0 1-.68.67 1.1 1.1 0 0 1-.94-.32 4 4 0 0 1-.94-1.16 10.1 10.1 0 0 0-3.72-4 4.56 4.56 0 0 0-2.74-.76 2.4 2.4 0 0 0-1.86 1.23 5.92 5.92 0 0 0-.67 3.1 11.08 11.08 0 0 0 .68 3.77 12.46 12.46 0 0 0 1.91 3.44 9.72 9.72 0 0 0 2.83 2.5 6.49 6.49 0 0 0 1.88.78 2.59 2.59 0 0 0 1.47-.08 1.28 1.28 0 0 1 1 .07 2.31 2.31 0 0 1 .91.86 3.22 3.22 0 0 1 .58 1.45.84.84 0 0 1-.36.89q-2.18 1.13-5.47-.78ZM708.56 348.29a3.3 3.3 0 0 1-1.56-2.69v-16.89c0-.54.14-.89.44-1a1.11 1.11 0 0 1 1.11.15 3.18 3.18 0 0 1 1.55 2.69v16.89a1.14 1.14 0 0 1-.42 1 1.1 1.1 0 0 1-1.12-.15Zm0 7a3 3 0 0 1-1.11-1.16 3 3 0 0 1-.44-1.54v-15.65c0-.54.14-.89.44-1a1.11 1.11 0 0 1 1.11.15 3 3 0 0 1 1.13 1.14 3.09 3.09 0 0 1 .42 1.55v15.69a1.15 1.15 0 0 1-.42 1 1.1 1.1 0 0 1-1.13-.14Zm12.52 7.23a3.18 3.18 0 0 1-1.08-1.12 3.09 3.09 0 0 1-.44-1.54v-8.65a9.73 9.73 0 0 0-2.36-6.52 9.72 9.72 0 0 0-2.48-2.05 4.8 4.8 0 0 0-2.32-.74 2.14 2.14 0 0 0-1.64.65 2.78 2.78 0 0 0-.62 2l-1.91-1.11a5.48 5.48 0 0 1 .93-3.42 3.24 3.24 0 0 1 2.54-1.3 6.73 6.73 0 0 1 3.63 1.08 14.06 14.06 0 0 1 3.76 3.21 15.57 15.57 0 0 1 3.58 10v8.66a1.1 1.1 0 0 1-.44 1 1.12 1.12 0 0 1-1.15-.11ZM735.38 370.91a15.55 15.55 0 0 1-4.36-3.76 18.85 18.85 0 0 1-3-5.17 15.75 15.75 0 0 1-1.08-5.67 7.84 7.84 0 0 1 1.08-4.46 3.81 3.81 0 0 1 3-1.73 7.63 7.63 0 0 1 4.36 1.26 15.62 15.62 0 0 1 4.32 3.75 18.85 18.85 0 0 1 3 5.17 15.83 15.83 0 0 1 1.08 5.7 7.92 7.92 0 0 1-1.06 4.44 3.81 3.81 0 0 1-3 1.74 7.68 7.68 0 0 1-4.34-1.27Zm0-3.16a4.66 4.66 0 0 0 2.8.77 2.48 2.48 0 0 0 1.9-1.22 5.6 5.6 0 0 0 .69-3 11.11 11.11 0 0 0-.69-3.83 12.29 12.29 0 0 0-1.9-3.44 9.86 9.86 0 0 0-2.8-2.46 4.64 4.64 0 0 0-2.81-.77 2.53 2.53 0 0 0-1.92 1.23 5.53 5.53 0 0 0-.7 3 10.75 10.75 0 0 0 .7 3.82 12.67 12.67 0 0 0 1.92 3.43 9.8 9.8 0 0 0 2.81 2.47ZM755.94 382.79a15.55 15.55 0 0 1-4.35-3.77 19.24 19.24 0 0 1-3-5.16 15.75 15.75 0 0 1-1.08-5.67 7.82 7.82 0 0 1 1.08-4.46 3.88 3.88 0 0 1 3-1.74 7.7 7.7 0 0 1 4.35 1.27 15.51 15.51 0 0 1 4.33 3.75 18.94 18.94 0 0 1 3 5.16 15.88 15.88 0 0 1 1.08 5.71 7.86 7.86 0 0 1-1.06 4.43 3.77 3.77 0 0 1-3 1.74 7.63 7.63 0 0 1-4.35-1.26Zm0-3.17a4.62 4.62 0 0 0 2.81.77 2.5 2.5 0 0 0 1.9-1.22 5.58 5.58 0 0 0 .69-3 11.05 11.05 0 0 0-.69-3.82 12.41 12.41 0 0 0-1.9-3.44 9.89 9.89 0 0 0-2.81-2.46 4.68 4.68 0 0 0-2.8-.78 2.59 2.59 0 0 0-1.92 1.23 5.57 5.57 0 0 0-.7 3 10.84 10.84 0 0 0 .7 3.82 12.82 12.82 0 0 0 1.92 3.43 9.86 9.86 0 0 0 2.8 2.47ZM772.91 392.44a7.6 7.6 0 0 1-2.37-2.21 11.71 11.71 0 0 1-1.62-3.24 12.11 12.11 0 0 1-.58-3.69v-19.21a1.08 1.08 0 0 1 .43-1 1.07 1.07 0 0 1 1.1.14 3 3 0 0 1 1.09 1.12 3 3 0 0 1 .43 1.52v19.21a6.43 6.43 0 0 0 .43 2.39 2.8 2.8 0 0 0 1.09 1.48l.77.44a2.68 2.68 0 0 1 1 1.06 3.17 3.17 0 0 1 .38 1.49.84.84 0 0 1-.58.93 2 2 0 0 1-1.49-.37Z" class="colorfff svgShape"></path><path d="m669.9 634.65-106.1-61.26 123.97-71.57 106.1 61.25-123.97 71.58z" opacity=".1" fill="#000000" class="color000 svgShape"></path><path fill="#ff4926" fill-rule="evenodd" d="m779.16 560.31-93.85-54.11-101.48 58.58-1.83-12.64-5.67-1.68-3.15 5 1.68 9.87 3.88 5.25 1-.66 91.41 52.71 75.15-43.39 32.85-18.95.01.02Z" class="colorff4926 svgShape"></path><path fill="#feffff" fill-rule="evenodd" d="M771 550.78a16.27 16.27 0 0 1 .67-4.8l.84-2-67.84-39c-3.36-1.94-6.1-.36-6.1 3.51v1.29a13.52 13.52 0 0 0 6.1 10.56l54 31.08L668 599.83l-3.22 8.81 4.73 9.7 103-59a27.1 27.1 0 0 1-1.51-8.56Z" class="colorfeffff svgShape"></path><path fill="#ebefef" fill-rule="evenodd" d="m584.64 569.61 84.91 48.87a34 34 0 0 1-1.89-10.7 17.82 17.82 0 0 1 1.88-8.52l-84.9-48.87c-4.2-2.43-7.63-.45-7.63 4.4v1.61a16.91 16.91 0 0 0 7.63 13.21Z" class="colorebefef svgShape"></path><path fill="#ff2015" d="m671.19 625.91-89.81-51.69c-5.33-3.08-9.66-10.58-9.66-16.73v-1.73c0-6.15 4.33-8.65 9.66-5.58l89.81 51.69v3.36l-89.81-51.69c-3.72-2.15-6.75-.4-6.75 3.9v1.72a15 15 0 0 0 6.75 11.7l89.81 51.69Z" class="colorff2015 svgShape"></path><path fill="#ff753d" fill-rule="evenodd" d="M671.19 605.23v-3.36l107.97-62.34v3.05l-107.97 62.65zM671.17 625.9v-3.35l107.99-62.24-.02 2.95-107.97 62.64z" class="colorff753d svgShape"></path><path fill="#ff4926" fill-rule="evenodd" d="m779.16 539.53-1.38-.8-92.47-53.32L577.2 548l-2.34 1.4c1.72-.83 4-.63 6.52.82l89.81 51.69v.09Z" class="colorff4926 svgShape"></path><path fill="#138839" fill-rule="evenodd" d="m770.62 552-77 45.14a.75.75 0 0 1-1.13-.63l-.2-17.93a3 3 0 0 1 1.44-2.56L739 549.33l31.83 2.6h-.06a.25.25 0 0 0-.15.07Z" class="color138839 svgShape"></path><path fill="#0068cc" fill-rule="evenodd" d="m770.62 552-77 45.14a.75.75 0 0 1-1.13-.63l-.2-17.93a3 3 0 0 1 1.44-2.56l62.74-32.83 14.42 8.77h-.06a.25.25 0 0 0-.21.04Z" class="color0068cc svgShape"></path><path fill="#cfe3fc" d="m692.1 594.43 72-43.37a19.39 19.39 0 0 1-1.9-7.31 29.59 29.59 0 0 1 1.31-9.51l-72.24 43.17Z" class="colorcfe3fc svgShape"></path><path fill="#005fc1" fill-rule="evenodd" d="M689.44 577a3.15 3.15 0 0 1 0-.53l-110.81-60.8a3.08 3.08 0 0 0 0 .53l.47 21a2.93 2.93 0 0 0 1.51 2.51l110.48 60.6Z" class="color005fc1 svgShape"></path><path fill="#0068cc" fill-rule="evenodd" d="m770.48 527.59-110.66-60.71-79.77 46.72a1.31 1.31 0 0 0-.27.19l110.84 60.81.27-.18Z" class="color0068cc svgShape"></path><path fill="#0074db" fill-rule="evenodd" d="m669.51 569.11.32 14.81-71-39-.32-14.8 71 39Zm-78.68-47.88.53 24.35 3.45 1.9-.53-24.35-3.45-1.9ZM674 590.94l3.45 1.9-.45-24.35-3.45-1.9Z" class="color0074db svgShape"></path><path fill="#06a2e3" fill-rule="evenodd" d="m579.78 513.79 110.84 60.81a3 3 0 0 0-1.15 1.88l-110.84-60.81a2.93 2.93 0 0 1 1.15-1.88Z" class="color06a2e3 svgShape"></path><path fill="#06a2e3" fill-rule="evenodd" d="m580.05 513.6 79.77-46.72 1.64.9s-70.05 41-77.72 45.55a.56.56 0 0 0 0 1l108.31 59.41-1.18.7-.27.18-110.55-60.68Z" class="color06a2e3 svgShape"></path><path fill="#06a2e3" d="M689.77 575.58a6.14 6.14 0 0 0-.43 3l.22 19.22a2.93 2.93 0 0 0 4.41 2.49l76.82-45.06a.77.77 0 0 0 .37-.69l-.15-2.37a.26.26 0 0 0-.39-.2l-77 45.14a.75.75 0 0 1-1.13-.63l-.2-17.93a3 3 0 0 1 1.44-2.56l76.63-45a.85.85 0 0 0 .42-.77l-.11-2.31a.3.3 0 0 0-.46-.25l-78 45.86a6.39 6.39 0 0 0-2.44 2.06Z" class="color06a2e3 svgShape"></path><path fill="url(#g)" fill-rule="evenodd" d="m619.06 511.86 20.43 11.21a8.13 8.13 0 0 0 7.31.14l30.76-18.67a2.72 2.72 0 0 0 .59-4.11l-21.64-11.3a8.1 8.1 0 0 0-7.31-.14l-31.52 18.69a3.08 3.08 0 0 0 1.38 4.18Z"></path><path fill="#fafafc" fill-rule="evenodd" d="m619.24 509.11 20.38 11.18a8.08 8.08 0 0 0 7.29.14l30.67-18.61c1.84-1.12 1.57-3-.61-4.2l-20.38-11.17a8.12 8.12 0 0 0-7.29-.15l-30.67 18.62c-1.84 1.08-1.57 2.99.61 4.19Z" class="colorfafafc svgShape"></path><path fill="#2b6da7" fill-rule="evenodd" d="m770.62 521.62-77 45.15a.75.75 0 0 1-1.13-.64l-.2-17.93a2.92 2.92 0 0 1 1.44-2.55L739 519l31.83 2.59h-.06a.21.21 0 0 0-.15.03Z" class="color2b6da7 svgShape"></path><path fill="#ff4b54" fill-rule="evenodd" d="m770.62 521.62-77 45.15a.75.75 0 0 1-1.13-.64l-.2-17.93a2.92 2.92 0 0 1 1.44-2.55l62.74-32.83 14.42 8.76h-.06a.21.21 0 0 0-.21.04Z" class="colorff4b54 svgShape"></path><path fill="#ffeff1" d="m692.1 564.08 72-43.37a19.3 19.3 0 0 1-1.9-7.3 29.62 29.62 0 0 1 1.31-9.52l-72.24 43.17Z" class="colorffeff1 svgShape"></path><path fill="#ff2d33" fill-rule="evenodd" d="M689.44 546.67a3.08 3.08 0 0 1 0-.53l-110.81-60.82a3.15 3.15 0 0 0 0 .53l.47 21a2.91 2.91 0 0 0 1.51 2.5L691.05 570Z" class="colorff2d33 svgShape"></path><path fill="#ff4b54" fill-rule="evenodd" d="m770.48 497.24-110.66-60.71-79.77 46.73a1.31 1.31 0 0 0-.27.19l110.84 60.81a2.22 2.22 0 0 1 .27-.19Z" class="colorff4b54 svgShape"></path><path fill="#ff495d" fill-rule="evenodd" d="m669.51 538.77.32 14.8-71-39-.32-14.8 71 39Zm-78.68-47.89.53 24.35 3.45 1.9-.53-24.35-3.45-1.9ZM674 560.59l3.45 1.9-.45-24.35-3.45-1.89Z" class="colorff495d svgShape"></path><path fill="#ff7688" fill-rule="evenodd" d="m579.78 483.45 110.84 60.8a3 3 0 0 0-1.15 1.88l-110.84-60.81a2.88 2.88 0 0 1 1.15-1.87Z" class="colorff7688 svgShape"></path><path fill="#ff7688" fill-rule="evenodd" d="m580.05 483.26 79.77-46.73 1.64.9s-70.05 41-77.72 45.55a.56.56 0 0 0 0 1l108.31 59.42-1.18.69a2.22 2.22 0 0 0-.27.19L580.05 483.6Z" class="colorff7688 svgShape"></path><path fill="#ff7688" d="M689.77 545.23a6.16 6.16 0 0 0-.43 3l.22 19.21A2.89 2.89 0 0 0 691 570a2.92 2.92 0 0 0 2.93 0l76.82-45.06a.77.77 0 0 0 .37-.69l-.15-2.37a.26.26 0 0 0-.39-.21l-77 45.15a.75.75 0 0 1-1.13-.64l-.2-17.93a2.92 2.92 0 0 1 1.44-2.55l76.63-45a.85.85 0 0 0 .42-.78l-.11-2.31a.31.31 0 0 0-.46-.25l-78 45.87a6.36 6.36 0 0 0-2.4 2Z" class="colorff7688 svgShape"></path><path fill="#ff3b44" fill-rule="evenodd" d="m619.06 480.58 20.43 11.2a8.1 8.1 0 0 0 7.31.15l30.76-18.67a2.72 2.72 0 0 0 .59-4.11l-21.64-11.3a8.13 8.13 0 0 0-7.31-.15l-31.52 18.7a3.08 3.08 0 0 0 1.38 4.18Z" class="colorff3b44 svgShape"></path><path fill="#ff7b80" fill-rule="evenodd" d="m619.24 478.77 20.38 11.17a8.12 8.12 0 0 0 7.29.15l30.67-18.62c1.84-1.12 1.57-3-.61-4.19l-20.38-11.18a8.08 8.08 0 0 0-7.29-.14l-30.67 18.61c-1.84 1.12-1.57 3 .61 4.2Z" class="colorff7b80 svgShape"></path><path fill="#ffeff1" fill-rule="evenodd" d="m633.42 477.39 24.45-14.12-1.75-1-24.44 14.11 1.74 1.01zM640.09 481.24l24.44-14.12-1.74-1-24.44 14.11 1.74 1.01z" class="colorffeff1 svgShape"></path><path fill="#ff7b80" fill-rule="evenodd" d="m661.26 504.34 39.05-22.54-1.75-1.01-39.04 22.54 1.74 1.01zM674.03 504.67l26.84-15.5-1.75-1-26.83 15.49 1.74 1.01z" class="colorff7b80 svgShape"></path><path fill="#78d0ff" d="M572.26 188.26c-1.66-.95-3.15-1-4.21-.35l-6.53 3.77 8 15.82 6.85-3.95h.07a4.19 4.19 0 0 0 1.62-3.73v-1.36a12.94 12.94 0 0 0-5.8-10.2Z" class="color78d0ff svgShape"></path><path fill="#e1f5ff" d="M565.76 192c-3.23-1.87-5.85-.36-5.85 3.37v1.37a12.92 12.92 0 0 0 5.85 10.12c3.23 1.87 5.85.36 5.85-3.37v-1.36a12.92 12.92 0 0 0-5.85-10.13Z" class="colore1f5ff svgShape"></path><path fill="#caedff" d="M568 207.24a4.85 4.85 0 0 1-2.39-.74 12.44 12.44 0 0 1-5.62-9.73v-1.37c0-2.29 1.06-3.72 2.78-3.72a4.85 4.85 0 0 1 2.39.74 12.45 12.45 0 0 1 5.62 9.74v1.36a4.5 4.5 0 0 1-.8 2.8 2.45 2.45 0 0 1-2 .92Z" class="colorcaedff svgShape"></path><path fill="#78d0ff" d="M589.86 134.3a40.15 40.15 0 0 0-14.79-14.63q-9.78-5.64-15.13-2.32l-6.55 3.8 1.93 2.74a27.14 27.14 0 0 0-.91 3.36 8.45 8.45 0 0 0 .82 4.95l1.19 9 6.5-3.77a3.34 3.34 0 0 0 1.44-2.27q2.08-9.76 10-5.18a17.67 17.67 0 0 1 6.67 6.78 20.12 20.12 0 0 1 2.45 10.06c0 3.35-.59 5.76-1.75 7.26s-3.3 2.88-6.39 4.16a17.48 17.48 0 0 0-2.81 1.45l-6.55 3.8 3 .57h.1a45.91 45.91 0 0 0-.83 10.44v2.48l2.12 1.22 1.1 8.24 6.54-3.8v-3.27a13.76 13.76 0 0 1 1-6.11 7.21 7.21 0 0 1 3.27-2.63l.1.78 6.54-3.8a11 11 0 0 0 4.54-4.6 21.63 21.63 0 0 0 1.86-9.16 37.92 37.92 0 0 0-5.46-19.55Z" class="color78d0ff svgShape"></path><path fill="#e1f5ff" d="M583.3 138.12a40 40 0 0 0-14.78-14.62q-17.07-9.85-20.66 7.57c-.59 2.82 1.26 7 4 9.19s5.34 1.55 5.95-1.29q2.07-9.78 10-5.19a17.69 17.69 0 0 1 6.68 6.78 20.16 20.16 0 0 1 2.51 10.07q0 5-1.76 7.25c-1.17 1.5-3.29 2.88-6.39 4.16s-5.08 2.88-5.87 4.73-1.18 5.7-1.18 11.55l-.06 2.48 9.78 5.64-.06-3.25a13.91 13.91 0 0 1 1-6.11c.67-1.28 2.58-2.51 5.71-3.68q6.89-2.53 8.74-6.57a21.6 21.6 0 0 0 1.86-9.16 37.94 37.94 0 0 0-5.47-19.55Z" class="colore1f5ff svgShape"></path><path fill="#caedff" d="m561.81 180.54.05-2.21c0-5.76.39-9.59 1.15-11.38s2.63-3.24 5.63-4.49 5.36-2.75 6.57-4.3 1.85-4.11 1.85-7.53a20.61 20.61 0 0 0-2.51-10.29 18.2 18.2 0 0 0-6.84-7 9.72 9.72 0 0 0-4.7-1.53c-3 0-5 2.36-6 7-.31 1.44-1.17 2.27-2.36 2.27a4.81 4.81 0 0 1-2.86-1.23c-2.63-2.11-4.39-6.12-3.85-8.75 1.5-7.25 4.65-10.77 9.65-10.77 2.85 0 6.33 1.17 10.35 3.49a39.94 39.94 0 0 1 14.62 14.47 37.66 37.66 0 0 1 5.36 19.32 21.2 21.2 0 0 1-1.82 9c-1.18 2.57-4 4.7-8.48 6.34-3.28 1.22-5.22 2.5-6 3.89a14.2 14.2 0 0 0-1.06 6.32v2.46Z" class="colorcaedff svgShape"></path><path fill="#41cdff" d="m97.18 423.3 66.74-38.54V283.88l-66.74 38.54V423.3z" class="color41cdff svgShape"></path><path fill="#ffffff" d="m106 351.34 49.01-28.3v-23.3L106 328.04v23.3zM134.48 348.29l20.53-11.85v-5.25l-20.53 11.86v5.24zM106 375.63l49.01-28.3v-2.74L106 372.89v2.74zM106 386.52l49.01-28.29v-2.74L106 383.78v2.74zM106 397.42l49.01-28.3v-2.74L106 394.68v2.74zM106 364.74l20.53-11.86v-5.24L106 359.49v5.25z" class="colorfff svgShape"></path><path fill="#183a6b" d="M815.35 598.46a3 3 0 0 0 1.23 2.44 9.06 9.06 0 0 0 8 1.56 2.82 2.82 0 0 0 2.12-2.07l1.18-6.38a2.81 2.81 0 0 0-1.16-2.84 9.06 9.06 0 0 0-8-1.56 2.91 2.91 0 0 0-2.11 2l-1.2 6.53a1.59 1.59 0 0 0-.06.3Z" class="color183a6b svgShape"></path><path fill="#e5e5e5" d="M817.28 597.1a9.23 9.23 0 0 0 8.21 1.59c2.53-.87 2.94-3 .93-4.74a9.26 9.26 0 0 0-8.22-1.6c-2.52.87-2.94 2.99-.92 4.75Z" class="colore5e5e5 svgShape"></path><path fill="#f9035c" d="m847.38 463.77-25.89 134.52a16.84 16.84 0 0 0 1.91.12c2.46-.19 3.66-.75 4.17-2.3l24.76-127.87a2.8 2.8 0 0 0-1.19-2.74 8.42 8.42 0 0 0-3.76-1.73Z" class="colorf9035c svgShape"></path><path fill="#db055d" d="M843.11 463.94a2.76 2.76 0 0 0-2.13 2.17l-24.7 127.48c-.37 1.91 1.14 3.52 4.23 4.47.24.08 1 .23 1 .23l25.89-134.52a8.49 8.49 0 0 0-4.29.17Z" class="colordb055d svgShape"></path><path fill="#ffba0d" d="m848.54 454.71-3.75 5.42 6.26 1.39-1.45-6.55-1.06-.26z" class="colorffba0d svgShape"></path><path fill="#e9e6fa" d="m845.15 459.6-3.89 5.65 11.05 1.97-1.43-6.4-5.73-1.22z" class="colore9e6fa svgShape"></path><path fill="#ffba0d" d="M846.09 459a1.28 1.28 0 0 0-.46 2.39 4.67 4.67 0 0 0 4.16.81 1.28 1.28 0 0 0 .46-2.39 4.67 4.67 0 0 0-4.16-.81Z" class="colorffba0d svgShape"></path><path fill="#e9e6fa" d="M843.15 463.83c-2.44.83-2.84 2.89-.88 4.59a9 9 0 0 0 8 1.55c2.45-.84 2.84-2.89.89-4.59a9 9 0 0 0-8.01-1.55Z" class="colore9e6fa svgShape"></path><path fill="#ffca55" d="M848.69 454.61c-.24.09-.28.29-.08.45a.88.88 0 0 0 .78.16c.24-.09.28-.29.08-.45a.88.88 0 0 0-.78-.16Z" class="colorffca55 svgShape"></path><ellipse cx="910.89" cy="541.7" opacity=".1" rx="23.83" ry="13.76" fill="#000000" class="color000 svgShape"></ellipse><path fill="#c7e1fd" fill-rule="evenodd" d="m945.54 433.93 8.07 64.9-64.92 49.07-1.98-.87-2.76-66.54 59.89-47.62 1.7 1.06z" class="colorc7e1fd svgShape"></path><path fill="#ebfaff" fill-rule="evenodd" d="m943.84 432.85-61.59 46.56 4.45 67.64 65.21-49.3-8.07-64.9z" class="colorebfaff svgShape"></path><path fill="#bfecff" d="m931.74 500.79-5.18-42.99 3-2.27 5.18 42.99-3 2.27zM922.26 495.02l-3.71-31.17 3-2.27 3.71 31.17-3 2.27zM915.27 509.16l-4.72-39.26 3-2.27 4.72 39.26-3 2.27zM907.73 518.94l-1.16-9.33 3-2.27 1.16 9.33-3 2.27zM904.87 495.92l-2.33-19.97 3.01-2.27 2.32 19.97-3 2.27zM896.16 496.37 894.54 482l3-2.27 1.62 14.37-3 2.27z" class="colorbfecff svgShape"></path><path fill-rule="evenodd" d="M949.67 637.42 891 665.11l-66.63-46.2 62.37-25.12 62.93 43.63z" opacity=".1" fill="#000000" class="color000 svgShape"></path><path fill="#c7e1fd" fill-rule="evenodd" d="m946.26 632.91-54.78 25.86-61.94-42.95.2-2 57.76-21.65 59.2 38.94-.44 1.8z" class="colorc7e1fd svgShape"></path><path fill="#ebfaff" fill-rule="evenodd" d="m946.72 631.11-54.78 25.85-62.22-43.14 58.23-23.45 58.77 40.74z" class="colorebfaff svgShape"></path><path fill="#bfecff" d="m888.77 601.29 4.2.64-4.28 14.66-14.11 1.29 4.08 16.29-4.21.12-4.64-18.52 15.14-1.39 3.82-13.09z" class="colorbfecff svgShape"></path><path fill="#bfecff" d="m877.87 638.94 5.89-5.55-14.56.51 8.67 5.04zM894.98 626.65l20.09-9.48 2.86 1.98-20.09 9.48-2.86-1.98zM887.94 621.77l20.09-9.48 2.86 1.98-20.09 9.48-2.86-1.98z" class="colorbfecff svgShape"></path><ellipse cx="705.57" cy="714.46" opacity=".1" rx="23.83" ry="13.76" fill="#000000" class="color000 svgShape"></ellipse><path fill="#c7e1fd" fill-rule="evenodd" d="m783.86 599.8-10.12 78.4-90.79 37.86-2.06-1.61 16.84-78.73 84.46-37.67 1.67 1.75z" class="colorc7e1fd svgShape"></path><path fill="#ebfaff" fill-rule="evenodd" d="m782.2 598.03-10.13 78.4-91.19 38.04 15.19-80.52 86.13-35.92z" class="colorebfaff svgShape"></path><path fill="#bfecff" d="m756.95 630.01 1.4-12.9 4.2-1.75-1.4 12.9-4.2 1.75zM746.81 634.24l1.4-12.9 4.19-1.75-1.39 12.9-4.2 1.75zM715.28 675c-8.38 1.73-13.81-3.76-12.54-13.56 1.44-11.17 11-23.75 21.44-28.09s17.66 1.21 16.22 12.39a28.17 28.17 0 0 1-1.43 5.83c-8.31.09-18.87.3-18.87.3Z" class="colorbfecff svgShape"></path><path fill="#bfecff" d="M723.32 679.29a21 21 0 0 1-3.73 1.18l4.89-23.47s10.71-.21 19.14-.31c-3.38 9.57-11.57 18.96-20.3 22.6Z" class="colorbfecff svgShape"></path><path fill="#78d0ff" d="m260.74 139.9 8.23 4.54.51-10.29 9.66-52.39-8.82-4.96-11.97 6.91 2.39 56.19z" class="color78d0ff svgShape"></path><path fill="#caedff" d="m279.14 81.76-9.66 52.39-.51 10.29-.52-.39-1.87-55.82 11.96-6.9.6.43z" class="colorcaedff svgShape"></path><path fill="#78d0ff" d="M265.18 148.72c1.95-1.13 3.72-1.21 5-.42l7.68 4.44-9.42 18.63-8.07-4.64h-.06l-.08-.05c-1.18-.75-1.91-2.26-1.91-4.39v-1.6a15.22 15.22 0 0 1 6.86-11.97Z" class="color78d0ff svgShape"></path><path fill="#78d0ff" d="M272.84 153.15c3.8-2.2 6.89-.42 6.89 4v1.6a15.23 15.23 0 0 1-6.89 11.93c-3.81 2.2-6.89.42-6.89-4v-1.61a15.22 15.22 0 0 1 6.89-11.92Z" class="color78d0ff svgShape"></path><path fill="#caedff" d="M270.16 171.07a5.76 5.76 0 0 0 2.81-.87 14.67 14.67 0 0 0 6.63-11.47v-1.6c0-2.71-1.26-4.39-3.29-4.39a5.79 5.79 0 0 0-2.81.87 14.66 14.66 0 0 0-6.62 11.47v1.61a5.28 5.28 0 0 0 .94 3.29 2.87 2.87 0 0 0 2.34 1.09ZM269.05 144.44l8.46-4.85 1.63-57.83-11.96 6.91 1.87 55.77z" class="colorcaedff svgShape"></path><path fill="#caedff" d="m269.05 144.44 8.46-4.85 1.63-57.83-11.96 6.91 1.87 55.77z" class="colorcaedff svgShape"></path><path d="m484.91 757.89 97-56.52-129.18-74.58-97 56.52 129.18 74.58z" opacity=".1" fill="#000000" class="color000 svgShape"></path><path fill="#c7e1fd" d="m484.62 751.33 91.44-52.8v-2.13l-124.44-69.72-91.44 50.67v2.13l124.44 71.85z" class="colorc7e1fd svgShape"></path><path fill="#ebfaff" d="m484.62 749.2 91.44-52.8-124.44-71.84-91.44 52.79 124.44 71.85z" class="colorebfaff svgShape"></path><path fill="#bfecff" d="m387.78 681.55 71.12-41.06-2.56-1.48-71.12 41.07 2.56 1.47zM433.7 667.01l35.56-20.53-2.56-1.48-35.56 20.53 2.56 1.48zM419.66 684.12l57.4-33.14 2.57 1.48-57.41 33.14-2.56-1.48zM414.58 687.05l2.56 1.48-8.63 4.99-2.57-1.48 8.64-4.99zM464.56 670.16l2.57 1.48-48.26 27.86-2.57-1.48 48.26-27.86zM472.69 665.47l14.73-8.51 2.57 1.48-14.73 8.51-2.57-1.48zM429.23 705.49l71.12-41.07-2.56-1.47-71.12 41.06 2.56 1.48zM465.22 693.71l42.93-24.78 2.56 1.48-42.92 24.78-2.57-1.48zM495.4 688.26l2.56 1.48-48 27.71-2.57-1.48 48.01-27.71zM502.51 684.15l16-9.24 2.57 1.48-16.01 9.24-2.56-1.48z" class="colorbfecff svgShape"></path><path fill="#ff4b54" d="M521.56 693c.89-.84 1.73-1.69 2.56-2.55-1.16-.26-2.34-.51-3.54-.74s0-1.7 1.28-1.46 2.44.49 3.63.76c.72-.79 1.43-1.58 2.11-2.38s2.83-.54 2 .41-1.42 1.64-2.17 2.45c1 .26 2.09.54 3.11.85.51.15.74.51.37.93a1.91 1.91 0 0 1-1.65.53c-1-.31-2.11-.6-3.19-.87-.81.83-1.64 1.66-2.5 2.48a2 2 0 0 1-1.66.53c-.48-.15-.75-.6-.35-.94ZM524.34 711.23c.86.63 2.72-.63 1.87-1.25-1.92-1.39-3.88-2.76-5.86-4.11a65 65 0 0 0 4.91-5.48l9.78.92c1.41.13 2.24-1.39.84-1.52l-28.94-2.7a1.51 1.51 0 0 0-.3 0c-1-.19-2.37.86-1.53 1.37q10.05 6.12 19.23 12.77Zm-5.45-6.36q-4.47-3-9.13-5.93l13.32 1.25a64.277 64.277 0 0 1-4.19 4.68Z" class="colorff4b54 svgShape"></path><ellipse cx="312.13" cy="740.8" opacity=".1" rx="26.89" ry="15.52" fill="#000000" class="color000 svgShape"></ellipse><path fill="#ce0000" d="M296.54 749.05a14.16 14.16 0 0 1-6.76-10.87c-.13-4.07 2.68-5.82 6.27-3.9a14.13 14.13 0 0 1 6.76 10.87c.19 4.08-2.67 5.85-6.27 3.9Z" class="colorce0000 svgShape"></path><path fill="#e60026" d="M306.74 748.9a3.84 3.84 0 0 0 .79-.49l47-29.2-12.34-19.84-47.82 29.74a6.36 6.36 0 0 0-1.78 5.14c.17 5.28 4.08 11.57 8.74 14 2.08 1.12 3.95 1.27 5.38.64Z" class="colore60026 svgShape"></path><path fill="#ff5050" d="M341.15 709.38c-.21-.86-.88-4.33-.92-5.16l-47.08 28.72v.95c0 .56.83 3.65.93 4.23Z" class="colorff5050 svgShape"></path><path fill="#f62121" d="M348.38 719c-4.65-2.49-8.56-8.78-8.74-14s3.46-7.53 8.11-5.05 8.57 8.78 8.74 14.05-3.49 7.5-8.11 5Z" class="colorf62121 svgShape"></path><path fill="#2051a4" d="M348.29 713.63a8.11 8.11 0 0 1-3.87-6.22c-.08-2.34 1.53-3.34 3.59-2.24a8.1 8.1 0 0 1 3.88 6.23c.11 2.34-1.54 3.34-3.6 2.23Z" class="color2051a4 svgShape"></path><path fill="#2051a4" d="M350.7 695.45h10.37v18.25H350.7z" transform="rotate(58 354.462 705.474)" class="color2051a4 svgShape"></path><path fill="#cdd4fc" d="M363.94 703.9a8.11 8.11 0 0 1-3.87-6.23c-.07-2.33 1.54-3.33 3.6-2.23a8.11 8.11 0 0 1 3.87 6.22c.08 2.34-1.54 3.34-3.6 2.24Z" class="colorcdd4fc svgShape"></path><path fill="#e5e5e5" d="M364.14 703.78a8.13 8.13 0 0 1-3.87-6.23 2.65 2.65 0 0 1 .91-2.33 2.49 2.49 0 0 0-1.11 2.45 8.11 8.11 0 0 0 3.87 6.23 2.49 2.49 0 0 0 2.69.09 2.61 2.61 0 0 1-2.49-.21Z" class="colore5e5e5 svgShape"></path><path fill="#234190" d="M449.05 612.7c15 15.51 10.83 52.21-9.31 81.79-17.8 26.16-42.21 38.14-58 29.85-2.07-1.08-10.15-5.73-10.15-5.73s-13.13-51.77 7-81.36c17.23-25.31 55.82-33.67 55.82-33.67s9 4.89 9.9 5.44a21.57 21.57 0 0 1 4.74 3.68Zm-67 98.4c12.51 12.94 32.06.9 48.86-23.77s24.59-52.78 12.09-65.72-43.06-4.36-59.86 20.32-13.58 56.24-1.07 69.17Z" class="color234190 svgShape"></path><path fill="#e60026" d="M307.43 748.47h-.07c-1.42.63-3.3.47-5.38-.64-4.65-2.49-8.56-8.78-8.73-14-.08-2.36.61-4.11 1.8-5.1a5 5 0 0 0-.72.39 6.36 6.36 0 0 0-1.78 5.14c.17 5.28 4.08 11.57 8.74 14 2.08 1.12 3.95 1.27 5.38.64h.07a3.38 3.38 0 0 0 .74-.46Z" class="colore60026 svgShape"></path><path fill="#234190" d="M379.74 704.15c-11.42-11.8-8.24-39.73 7.09-62.25 12.49-18.35 29.25-27.53 41.17-23.9-12-5.76-30.25 3.38-43.59 23-15.33 22.51-18.51 50.44-7.09 62.25a16.82 16.82 0 0 0 7.3 4.48 16.91 16.91 0 0 1-4.88-3.58Z" class="color234190 svgShape"></path><path fill="#4187ff" d="M432.1 690.31c20.14-29.59 24.32-66.28 9.31-81.79s-43.6-4.07-63.74 25.52-24.31 66.28-9.31 81.79 43.64 4.07 63.74-25.52ZM384.37 641c15.18-22.31 36.74-30.94 48.06-19.25s8.16 39.37-7 61.68-36.72 31.29-48 19.59-8.25-39.75 6.94-62.02Z" class="color4187ff svgShape"></path><path fill="#316fff" d="M429.37 688.54c19.74-29 23.83-65 9.13-80.16s-42.73-4-62.47 25-23.83 65-9.13 80.17 42.73 3.99 62.47-25.01Zm-46.78-48.36c14.88-21.87 36-30.33 47.1-18.87s8 38.58-6.88 60.45-36 30.66-47.08 19.2-8.02-38.96 6.86-60.78Z" class="color316fff svgShape"></path><path d="m613.03 674.72-97.88-54.48 8.61-4.97 97.88 54.48-8.61 4.97z" opacity=".1" fill="#000000" class="color000 svgShape"></path><path fill="#dd055e" d="M581.47 628.84c-.74-2-7.88-5.77-7.71-3.64 1.41 17.58-15.82 37.27-15.82 37.27l8 1.56s18.89-26.17 15.53-35.19Z" class="colordd055e svgShape"></path><path fill="#f9035c" d="M590 625.51c-.74-2-7.88-5.77-7.71-3.65 1.41 17.59-15.82 37.27-15.82 37.27l8 1.57s18.86-26.17 15.53-35.19Z" class="colorf9035c svgShape"></path><path fill="#ebfaff" d="M507.8 600.74c0-6.74 4.77-15 10.61-18.31A9.45 9.45 0 0 1 523 581a5.28 5.28 0 0 1 2.35.53l103.92 60.29c1.76 1.13 2.78 3.44 2.77 6.55 0 6.74-4.77 15-10.61 18.31a9.26 9.26 0 0 1-4.63 1.41 5.1 5.1 0 0 1-3-.9L511 607.54c-2-1.01-3.2-3.43-3.2-6.8Z" class="colorebfaff svgShape"></path><path fill="#bfecff" d="M616.84 668.1a9.26 9.26 0 0 0 4.63-1.41c5.84-3.36 10.6-11.57 10.61-18.31 0-4.52-2.13-7.33-5.59-7.34a9.45 9.45 0 0 0-4.63 1.42c-5.84 3.36-10.6 11.57-10.61 18.31 0 4.52 2.14 7.33 5.59 7.33Z" class="colorbfecff svgShape"></path><path fill="#f9035c" d="M575.55 615.58a9.29 9.29 0 0 1 4.63-1.41 5.27 5.27 0 0 1 2.35.52l5.78 3.35c.06 0 0 .11 0 .15a4.7 4.7 0 0 0-2.88-.86 9.4 9.4 0 0 0-4.63 1.41c-5.84 3.36-10.6 11.58-10.61 18.31 0 3.11 1 5.31 2.8 6.44h-.19l-4.64-2.79c-2-1-3.24-3.44-3.23-6.81.07-6.74 4.78-14.95 10.62-18.31Z" class="colorf9035c svgShape"></path><path fill="#f9035c" d="M566.79 610.48a9.39 9.39 0 0 1 4.63-1.42 5.28 5.28 0 0 1 2.35.53l5.78 3.35c.06 0 0 .11 0 .15a4.67 4.67 0 0 0-2.87-.86 9.4 9.4 0 0 0-4.63 1.41c-5.84 3.36-10.6 11.57-10.61 18.31 0 3.11 1 5.3 2.79 6.44h-.18l-4.64-2.79c-2-1-3.24-3.43-3.23-6.8.01-6.75 4.82-14.96 10.61-18.32Z" class="colorf9035c svgShape"></path><path fill="#b8edff" d="M713.07 208.15c-.16-.75-.33-1.51-.5-2.27l2.93-.65c.17.76.34 1.53.5 2.3Zm-2.07-8.76c-.37-1.43-.75-2.86-1.15-4.29l2.89-.8c.4 1.44.79 2.89 1.16 4.35Zm-3-10.69c-.45-1.42-.9-2.83-1.37-4.23l2.84-1c.48 1.43.94 2.86 1.39 4.29Zm-3.59-10.51q-.78-2.08-1.59-4.14l2.79-1.11c.55 1.4 1.09 2.8 1.61 4.21Zm-4.14-10.3q-.87-2-1.8-4l2.73-1.25q.93 2 1.83 4.11Zm-4.66-10.07-2-4 2.66-1.39 2 4Zm-5.2-9.82c-.73-1.29-1.47-2.58-2.22-3.85l2.58-1.53q1.15 1.95 2.25 3.91Zm-5.7-9.54c-.79-1.26-1.59-2.5-2.41-3.74l2.5-1.65q1.25 1.88 2.45 3.78Zm-360-4-2.5-1.66c.84-1.26 1.68-2.5 2.54-3.74l2.47 1.71c-.81 1.23-1.64 2.49-2.47 3.73Zm353.79-5.28c-.86-1.21-1.73-2.42-2.61-3.61l2.42-1.78q1.33 1.82 2.64 3.66Zm-347.39-3.84-2.41-1.78c.89-1.21 1.8-2.42 2.72-3.61l2.37 1.84c-.86 1.21-1.79 2.4-2.64 3.59Zm340.74-5.07c-.92-1.17-1.85-2.32-2.79-3.47l2.32-1.9q1.43 1.74 2.82 3.51ZM338 116.61l-2.31-1.91q1.43-1.74 2.9-3.46l2.28 2c-.97 1.08-1.87 2.22-2.87 3.37Zm326.78-4.86c-1-1.12-2-2.22-3-3.32l2.21-2q1.53 1.66 3 3.37ZM345.3 108.2l-2.21-2q1.52-1.67 3.08-3.3l2.17 2.07c-1.03 1.03-2.04 2.14-3.04 3.23Zm311.94-4.63q-1.54-1.6-3.13-3.16l2.11-2.14q1.6 1.59 3.18 3.21ZM353 100.19l-2.11-2.14c1.07-1.06 2.16-2.1 3.25-3.14l2.06 2.18c-1.06 1.02-2.12 2.05-3.2 3.1Zm296.27-4.41c-1.09-1-2.18-2-3.29-3l2-2.24q1.68 1.5 3.33 3Zm-288.15-3.2-2-2.24c1.12-1 2.26-2 3.4-3l1.95 2.29-3.33 2.95ZM641 88.42q-1.76-1.42-3.5-2.82l1.88-2.34c1.17.94 2.34 1.89 3.49 2.86Zm-271.3-3-1.88-2.34c1.17-.94 2.36-1.87 3.55-2.78l1.83 2.38c-1.2.88-2.4 1.8-3.55 2.72Zm262.58-3.91c-1.19-.89-2.38-1.77-3.59-2.64l1.76-2.43q1.83 1.32 3.63 2.68ZM378.5 78.68l-1.75-2.44c1.22-.87 2.45-1.74 3.69-2.59l1.7 2.47q-1.83 1.26-3.64 2.56ZM623.16 75q-1.85-1.25-3.72-2.46l1.63-2.52q1.89 1.23 3.77 2.49ZM387.7 72.42l-1.62-2.52q1.89-1.23 3.82-2.4l1.56 2.55q-1.89 1.17-3.76 2.37ZM613.77 69q-1.92-1.16-3.85-2.26l1.5-2.6c1.31.75 2.6 1.51 3.9 2.29ZM397.2 66.65l-1.49-2.6q2-1.12 3.94-2.2l1.44 2.63c-1.31.71-2.6 1.43-3.89 2.17Zm206.87-3.11-4-2 1.35-2.68c1.35.68 2.69 1.38 4 2.08ZM407 61.38l-1.35-2.68c1.34-.67 2.69-1.34 4.05-2l1.3 2.72c-1.35.64-2.68 1.3-4 1.96Zm187.1-2.82c-1.34-.63-2.7-1.25-4.06-1.85l1.21-2.71c1.39.61 2.76 1.23 4.12 1.87ZM417 56.63l-1.21-2.74c1.37-.61 2.75-1.2 4.14-1.78l1.15 2.77c-1.32.57-2.69 1.12-4.08 1.75Zm166.88-2.53c-1.38-.56-2.76-1.1-4.15-1.63l1.06-2.81c1.42.54 2.82 1.09 4.22 1.66Zm-156.56-1.68-1.07-2.81c1.41-.53 2.81-1 4.23-1.56l1 2.83c-1.39.5-2.78 1.01-4.16 1.54Zm146.11-2.24q-2.1-.72-4.23-1.41l.92-2.86q2.16.71 4.29 1.44ZM437.8 48.74l-.92-2.86c1.43-.45 2.86-.9 4.3-1.33l.86 2.88c-1.42.42-2.83.86-4.24 1.31Zm125-1.92c-1.43-.41-2.86-.81-4.3-1.19l.76-2.9c1.47.39 2.92.79 4.37 1.21Zm-114.34-1.2-.76-2.9c1.45-.38 2.9-.75 4.36-1.11l.71 2.92c-1.45.35-2.89.71-4.32 1.09ZM552 44c-1.45-.33-2.89-.65-4.35-1l.62-2.94c1.47.31 2.94.64 4.4 1Zm-92.76-1-.61-2.94c1.47-.31 2.94-.6 4.43-.88l.55 2.95c-1.45.33-2.91.62-4.36.93Zm81.86-1.27c-1.46-.26-2.93-.5-4.4-.73l.47-3c1.49.23 3 .48 4.45.74ZM470.19 41l-.46-3c1.48-.24 3-.45 4.47-.65l.4 3c-1.47.27-2.94.48-4.4.71Zm59.9-.92c-1.47-.19-2.94-.35-4.42-.51l.31-3c1.5.15 3 .32 4.48.51Zm-48.86-.51-.31-3c1.49-.16 3-.29 4.49-.42l.25 3c-1.47.19-2.95.33-4.42.48Zm37.77-.52c-1.48-.1-3-.2-4.44-.27l.15-3c1.5.08 3 .17 4.5.28Zm-26.7-.27-.15-3c1.5-.07 3-.13 4.51-.18l.09 3c-1.46.04-2.94.1-4.42.18Zm15.58-.24h-4.45v-3h4.51Z" class="colorb8edff svgShape"></path></svg>