<svg xmlns="http://www.w3.org/2000/svg" data-name="Livello 1" viewBox="0 0 8000 7000" width="550" height="550"><polygon fill="#656572" points="1788.08 3796.12 5188.54 5771.56 7432.76 4479.32 4020.98 2503.05 1788.08 3796.12" class="color656572 svgShape"></polygon><polygon fill="#5a5a60" points="3966.39 6615.25 3966.39 6474.21 7432.76 4479.32 7434.08 4619.53 3966.39 6615.25" class="color5a5a60 svgShape"></polygon><polygon fill="#4d4e51" points="565.92 4639.82 565.92 4498.77 3966.39 6474.21 3966.39 6615.25 565.92 4639.82" class="color4d4e51 svgShape"></polygon><polygon fill="#c7b87d" points="3856.49 480.92 3854.1 2599.72 7267.5 4574.44 7267.48 2455.58 3856.49 480.92" class="colorc7b87d svgShape"></polygon><polygon fill="#bcaa75" points="7267.5 4574.44 7432.76 4479.32 7432.76 2360.08 7267.5 2455.3 7267.5 4574.44" class="colorbcaa75 svgShape"></polygon><polygon fill="#f2e0ad" points="7432.76 2360.08 4185.52 480.92 4185.52 480.92 4022.67 384.75 4021 385.72 4019.38 384.77 3856.49 480.92 3856.49 480.92 2337.77 1356.75 2503.04 1451.96 4021 576.16 7267.5 2455.3 7432.76 2360.08" class="colorf2e0ad svgShape"></polygon><polygon fill="#e1cf96" points="4020.99 576.08 4020.99 2696.26 2503.04 3572.1 2503.04 1451.96 4020.99 576.08" class="colore1cf96 svgShape"></polygon><polygon fill="#bcaa75" points="2503.04 3572.1 2337.77 3475.98 2337.77 1356.75 2503.04 1451.96 2503.04 3572.1" class="colorbcaa75 svgShape"></polygon><polygon fill="#656572" points="565.92 4498.92 1788.13 3796.29 5188.54 5771.56 3966.39 6474.36 565.92 4498.92" class="color656572 svgShape"></polygon><polygon fill="#f9b341" points="3771.2 2067.07 2881.1 2582.25 2791.35 2530.54 3681.44 2015.61 3771.2 2067.07" class="colorf9b341 svgShape"></polygon><polygon fill="#fc943f" points="3771.2 2066.29 3771.2 2114.22 2881.1 2629.21 2881.1 2582.25 3771.2 2066.29" class="colorfc943f svgShape"></polygon><polygon fill="#e58833" points="2881.1 2629.21 2791.35 2577.55 2791.35 2530.54 2881.1 2582.25 2881.1 2629.21" class="colore58833 svgShape"></polygon><polygon fill="#7f4516" points="3732.74 1273.88 2842.53 1788.69 2791.35 1759.54 3681.55 1245.15 3732.74 1273.88" class="color7f4516 svgShape"></polygon><polygon fill="#c1762b" points="3732.74 1272.6 3732.74 2047.39 2842.53 2560.51 2842.53 1787.41 3732.74 1272.6" class="colorc1762b svgShape"></polygon><polygon fill="#282828" points="3676.3 1354.25 3676.3 2030.8 2898.97 2478.86 2898.97 1803.78 3676.3 1354.25" class="color282828 svgShape"></polygon><polygon fill="#9b591e" points="2842.53 2560.51 2791.35 2531.45 2791.35 1759.54 2842.53 1788.69 2842.53 2560.51" class="color9b591e svgShape"></polygon><polygon fill="#a68100" points="5296.48 1623.09 5296.48 2555.85 4714.26 2223.14 4714.26 1285.93 5296.48 1623.09" class="colora68100 svgShape"></polygon><polygon fill="#896800" points="5296.48 1623.09 5331.2 1602.3 5331.2 2532.45 5331.2 2536.17 5296.48 2555.85 5296.48 1623.09" class="color896800 svgShape"></polygon><polygon fill="#705300" points="5331.2 1602.3 4745.82 1268.11 4714.26 1285.93 5296.48 1623.09 5331.2 1602.3" class="color705300 svgShape"></polygon><polygon fill="#6ab3ef" points="5174.19 1631 5174.19 2405.53 4836.5 2212.97 4836.5 1437.02 5174.19 1631" class="color6ab3ef svgShape"></polygon><polygon fill="#705300" points="5022.9 1543.75 5022.9 2318.96 4987.79 2298.79 4987.79 1523.58 5022.9 1543.75" class="color705300 svgShape"></polygon><polygon fill="#705300" points="5174.19 2001.38 4836.5 1800.92 4836.5 1840.44 5174.19 2041.62 5174.19 2001.38" class="color705300 svgShape"></polygon><polygon fill="#aa7900" points="4975.86 1883.8 4975.86 1535.72 4836.5 1455.96 4836.5 1436.25 4987.79 1523.5 4987.79 1890.88 4975.86 1883.8" class="coloraa7900 svgShape"></polygon><polygon fill="#aa7900" points="4975.86 2291.94 4975.86 1942.56 4836.5 1860.22 4836.5 1840.51 4987.79 1930.34 4987.79 2299.02 4975.86 2291.94" class="coloraa7900 svgShape"></polygon><polygon fill="#aa7900" points="5162.31 1994.39 5162.31 1643.22 5022.95 1563.47 5022.95 1543.75 5174.24 1631 5174.24 2001.47 5162.31 1994.39" class="coloraa7900 svgShape"></polygon><polygon fill="#aa7900" points="5162.08 2398.45 5162.08 2053.29 5022.9 1971.25 5022.9 1951.54 5174.01 2041.08 5174.01 2405.53 5162.08 2398.45" class="coloraa7900 svgShape"></polygon><polygon fill="#87c8f4" points="5162.31 1679.5 5022.95 1722.61 5022.95 1777.57 5162.31 1736.62 5162.31 1679.5" class="color87c8f4 svgShape"></polygon><polygon fill="#87c8f4" points="5162.31 1764.64 5022.95 1807.75 5022.95 1862.71 5162.31 1821.76 5162.31 1764.64" class="color87c8f4 svgShape"></polygon><polygon fill="#87c8f4" points="4975.86 1970.31 4836.5 2013.41 4836.5 2068.38 4975.86 2027.43 4975.86 1970.31" class="color87c8f4 svgShape"></polygon><polygon fill="#87c8f4" points="4975.86 2065.15 4836.5 2108.25 4836.5 2163.22 4975.86 2122.27 4975.86 2065.15" class="color87c8f4 svgShape"></polygon><polygon fill="#b7b7b7" points="5296.48 2555.85 5227.05 2594.83 4647.79 2258.42 4714.26 2223.14 5296.48 2555.85" class="colorb7b7b7 svgShape"></polygon><polygon fill="#a8a8a8" points="5331.2 2536.17 5331.2 2573.67 5227.05 2632.15 5227.05 2594.83 5331.2 2536.17" class="colora8a8a8 svgShape"></polygon><polygon fill="#9b9b9b" points="5227.05 2632.15 4647.79 2295.18 4647.79 2258.42 5227.05 2594.83 5227.05 2632.15" class="color9b9b9b svgShape"></polygon><polygon fill="#a68100" points="6439.09 2267.79 6439.09 3200.55 5856.86 2867.85 5856.86 1930.64 6439.09 2267.79" class="colora68100 svgShape"></polygon><polygon fill="#896800" points="6439.09 2267.79 6473.81 2247 6473.81 3177.16 6473.81 3180.87 6439.09 3200.55 6439.09 2267.79" class="color896800 svgShape"></polygon><polygon fill="#705300" points="6473.81 2247 5888.43 1912.81 5856.86 1930.64 6439.09 2267.79 6473.81 2247" class="color705300 svgShape"></polygon><polygon fill="#6ab3ef" points="6316.8 2275.71 6316.8 3050.23 5979.11 2857.68 5979.11 2081.72 6316.8 2275.71" class="color6ab3ef svgShape"></polygon><polygon fill="#705300" points="6165.51 2188.46 6165.51 2963.66 6130.4 2943.5 6130.4 2168.29 6165.51 2188.46" class="color705300 svgShape"></polygon><polygon fill="#705300" points="6316.8 2646.08 5979.11 2445.63 5979.11 2485.14 6316.8 2686.32 6316.8 2646.08" class="color705300 svgShape"></polygon><polygon fill="#aa7900" points="6118.47 2528.5 6118.47 2180.42 5979.11 2100.67 5979.11 2080.95 6130.4 2168.2 6130.4 2535.58 6118.47 2528.5" class="coloraa7900 svgShape"></polygon><polygon fill="#aa7900" points="6118.47 2936.64 6118.47 2587.26 5979.11 2504.93 5979.11 2485.21 6130.4 2575.05 6130.4 2943.73 6118.47 2936.64" class="coloraa7900 svgShape"></polygon><polygon fill="#aa7900" points="6304.92 2639.09 6304.92 2287.92 6165.56 2208.17 6165.56 2188.46 6316.85 2275.71 6316.85 2646.17 6304.92 2639.09" class="coloraa7900 svgShape"></polygon><polygon fill="#aa7900" points="6304.69 3043.15 6304.69 2697.99 6165.51 2615.95 6165.51 2596.24 6316.62 2685.78 6316.62 3050.23 6304.69 3043.15" class="coloraa7900 svgShape"></polygon><polygon fill="#87c8f4" points="6304.92 2324.2 6165.56 2367.31 6165.56 2422.28 6304.92 2381.32 6304.92 2324.2" class="color87c8f4 svgShape"></polygon><polygon fill="#87c8f4" points="6304.92 2409.34 6165.56 2452.45 6165.56 2507.42 6304.92 2466.46 6304.92 2409.34" class="color87c8f4 svgShape"></polygon><polygon fill="#87c8f4" points="6118.47 2615.01 5979.11 2658.12 5979.11 2713.08 6118.47 2672.13 6118.47 2615.01" class="color87c8f4 svgShape"></polygon><polygon fill="#87c8f4" points="6118.47 2709.85 5979.11 2752.96 5979.11 2807.92 6118.47 2766.97 6118.47 2709.85" class="color87c8f4 svgShape"></polygon><polygon fill="#b7b7b7" points="6439.09 3200.55 6369.65 3239.54 5790.4 2903.12 5856.86 2867.85 6439.09 3200.55" class="colorb7b7b7 svgShape"></polygon><polygon fill="#a8a8a8" points="6473.81 3180.87 6473.81 3218.37 6369.65 3276.85 6369.65 3239.54 6473.81 3180.87" class="colora8a8a8 svgShape"></polygon><polygon fill="#9b9b9b" points="6369.65 3276.85 5790.4 2939.88 5790.4 2903.12 6369.65 3239.54 6369.65 3276.85" class="color9b9b9b svgShape"></polygon><polygon fill="#474751" points="3846.65 3967.27 4032.84 3967.27 3965.16 3899.59 3903.76 3899.59 3846.65 3967.27" class="color474751 svgShape"></polygon><polygon fill="#474751" points="4665.5 3486.76 4874.02 3486.76 4798.23 3410.97 4729.45 3410.97 4665.5 3486.76" class="color474751 svgShape"></polygon><polygon fill="#474751" points="3370.13 3679.02 3556.31 3679.02 3488.64 3611.35 3427.23 3611.35 3370.13 3679.02" class="color474751 svgShape"></polygon><path fill="#f4d7a8" d="M3875.1,1883.81s-117.22,136.32-169.49,76.64c0,0-82.86-123.29-104.07-133.16,0,0-21.7-7.89-33.53,6.91,0,0-6.91,8.12-16.28-9,0,0-15.29-6.28-9.86,9,0,0,11.34,23.92,18.24,28.73,0,0-55.23,8.89-49.81-39,0,0,0-17.82-6.9-15.36,0,0-24.66,39,3,69,0,0,32.55,31.07,73.48,33.54,0,0,85.82,149.93,143,156.34,0,0,57.7,18.24,104.55-47.35Z" class="colorf4d7a8 svgShape"></path><path fill="#262626" d="M4154.37,1607.92c25.44,33.28,25.69,75.83.56,95s-66.12,7.8-91.56-25.48-25.68-75.82-.55-95S4128.94,1574.64,4154.37,1607.92Z" class="color262626 svgShape"></path><path fill="#896e42" d="M3809,3056.87s-9,.07-21.93,10.79c0,0-55.11,51.42-70.65,54.38,0,0-32.55,20-38.1,44.39,0,0-11.1,29.59,43.64,24.78,0,0,85.08-15.54,113.93-56.59,0,0,25.76-32.48,14.36-66.18Z" class="color896e42 svgShape"></path><path fill="#f4d7a8" d="M3811.79,2570.86s-10.7,271.91,0,362.66c0,0,9.71,121.32-10.51,140.06,0,0-30.08,40.45-77.43,56.72,0,0-18.74,13.32,3.46,20.22,0,0,65.1,12.82,100.61-40.93,0,0,25.15-24.66,26.63-68.56,0,0,50.8-195.3,56.72-280.13,0,0,3.93-96.6,18.73-131.15Z" class="colorf4d7a8 svgShape"></path><path fill="#896e42" d="M3970.38,3046.42s-9,.58-21.27,12c0,0-52.07,54.49-67.41,58.33,0,0-31.36,21.81-35.5,46.5,0,0-9.38,30.18,45,22.24,0,0,84-20.39,110.49-63,0,0,23.86-33.9,10.55-66.89Z" class="color896e42 svgShape"></path><path fill="#f4d7a8" d="M3945.28,2561.05s4.9,272.07,20.78,362.06c0,0,16.66,120.56-2.46,140.43,0,0-27.71,42.1-74,61.07,0,0-18,14.36,4.61,20,0,0,65.73,9.08,98.1-46.63,0,0,23.69-26.06,22.66-70,0,0,39.52-197.89,40.56-282.92,0,0-1.61-96.66,11.19-132Z" class="colorf4d7a8 svgShape"></path><path fill="#d66e21" d="M3965.39,1874.39s-36.37-21.45-75.82-5.67c0,0-73,67.57-79.9,148.45,0,0-13.81,58.2,53.26,53.27,0,0,2,147.95-20.71,205.66,0,0-53.27,159.79-44.39,282.59,0,0,130.2,128.73,275.2,51.79,0,0,69.54-159.79,45.87-257.45,0,0-33.58-118.79-35.51-239.69,0,0,22.93-163.49,4.44-190.12,0,0-42.91-19.73-62.14-19.48Z" class="colord66e21 svgShape"></path><path fill="#3f3f3f" d="M3911.76,1718.79s-17.26-19.23-3.45-49.81c0,0-4.44-97.65,82.36-101.6,0,0,77.92,2.47,106.53,58.69,0,0,12.82,24.66,11.84,35.51,0,0,34.52-3.45,52.27,27.13,0,0,22.2,46.36,3.46,72.5,0,0-89.22,97.79-138.07,75.53l-50.83-64.68Z" class="color3f3f3f svgShape"></path><path fill="#ffe4b3" d="M3971.46,1845.41s2.44,22.69-6.07,29c0,0-25,5.68-35.88,33.29,0,0-17.26,59.68,23.18,68.06,0,0,50.8,2.47,73-72,0,0-9.68-25.32-4.6-63.71Z" class="colorffe4b3 svgShape"></path><path fill="#f4d7a8" d="M4029.63,1834.69s-50.8,40-91.73-16.27c0,0-15.78-17.27-15.29-58.2,0,0-11.84-5.92-10.85-41.43l18.74-2s-2-41.43,16.77-52.28c0,0,27.12,38.47,53.26,46.85,0,0,46.36,15.79,57.21,3.95,0,0,.5,42.91-8.87,56.72C4048.87,1772.06,4043.44,1826.8,4029.63,1834.69Z" class="colorf4d7a8 svgShape"></path><path fill="#876d44" d="M3522.14,1856.28l-40.93-347.34,12.05-5.18,52.3,359.67S3531,1863.06,3522.14,1856.28Z" class="color876d44 svgShape"></path><path fill="#f4d7a8" d="M4092.22,1935.1s111.51,45.33,101.89,138.54c0,0,7.4,65.1-129.46,178.29,0,0-28.85,33.29-32.55,42.54,0,0-39.21,75.46-97.65,55.11,0,0-9.62.37-10.36-10.73,0,0-4.44-15.16,15.17-8.87,0,0,33.28,7.39,56.59-47,0,0-29.38,14.43-39.47,13.32,0,0-23-6.29-3.81-18.5,0,0,91.41-78.36,109.86-100.61,0,0,55.21-46.11,54.22-106.77,0,0-3.71-26.3-24.5-37.27C4092.15,2033.17,4098.28,1957,4092.22,1935.1Z" class="colorf4d7a8 svgShape"></path><path fill="#af571c" d="M3862.93,2070.44s22.69,120.33,0,200.23c0,0-40.14,176.24-51.14,300.19l-14-12.17s-7.86-95.68,33.54-243.63C3831.37,2315.06,3858,2106.93,3862.93,2070.44Z" class="coloraf571c svgShape"></path><polygon fill="#c99867" points="3846.65 3206.56 3846.65 3967.27 3914.51 3928.83 3914.51 3165.75 3846.65 3206.56" class="colorc99867 svgShape"></polygon><polygon fill="#b28656" points="3846.65 3206.56 3846.65 3967.27 3778.79 3928.83 3778.79 3165.75 3846.65 3206.56" class="colorb28656 svgShape"></polygon><polygon fill="#c99867" points="4665.5 2906.32 4665.5 3485.3 4733.36 3446.86 4733.36 2865.51 4665.5 2906.32" class="colorc99867 svgShape"></polygon><polygon fill="#b28656" points="4665.5 2829.45 4665.5 3485.3 4597.64 3446.86 4597.64 2788.64 4665.5 2829.45" class="colorb28656 svgShape"></polygon><polygon fill="#c99867" points="4189.33 2715.72 4189.33 3294.7 4257.19 3256.26 4257.19 2674.91 4189.33 2715.72" class="colorc99867 svgShape"></polygon><polygon fill="#b28656" points="4189.33 2638.85 4189.33 3294.7 4121.47 3256.26 4121.47 2598.04 4189.33 2638.85" class="colorb28656 svgShape"></polygon><polygon fill="#c99867" points="3370.13 3042.57 3370.13 3681.77 3437.99 3643.33 3437.99 3001.76 3370.13 3042.57" class="colorc99867 svgShape"></polygon><polygon fill="#b28656" points="3370.13 3100.17 3370.13 3681.77 3302.26 3643.33 3302.26 3059.36 3370.13 3100.17" class="colorb28656 svgShape"></polygon><polygon fill="#b2855b" points="3437.23 3315.95 4188.22 2876.1 4188.22 2970.17 3437.23 3406.38 3437.23 3315.95" class="colorb2855b svgShape"></polygon><polygon fill="#9b7249" points="4188.22 2876.1 4120.35 2841.59 3437.23 3236.15 3437.23 3315.95 4188.22 2876.1" class="color9b7249 svgShape"></polygon><polygon fill="#8e6d3d" points="3302.26 3046.56 3850.21 3362.2 4733.3 2851.5 4187.13 2530.54 3302.26 3046.56" class="color8e6d3d svgShape"></polygon><polygon fill="#594328" points="3850.21 3410.97 3850.21 3362.2 3302.26 3046.56 3302.26 3095.32 3850.21 3410.97" class="color594328 svgShape"></polygon><polygon fill="#725733" points="3850.21 3410.97 3850.21 3362.2 4733.3 2851.5 4733.3 2900.26 3850.21 3410.97" class="color725733 svgShape"></polygon><polygon fill="#b2855b" points="3914.51 3752.55 4665.5 3312.71 4665.5 3406.78 3914.51 3842.99 3914.51 3752.55" class="colorb2855b svgShape"></polygon><polygon fill="#9b7249" points="4665.5 3312.71 4597.64 3278.2 3914.51 3672.76 3914.51 3752.55 4665.5 3312.71" class="color9b7249 svgShape"></polygon><polygon fill="#b2855b" points="3914.51 3520.91 4665.5 3081.07 4665.5 3175.14 3914.51 3611.35 3914.51 3520.91" class="colorb2855b svgShape"></polygon><polygon fill="#9b7249" points="4665.5 3081.07 4597.64 3046.56 3914.51 3441.12 3914.51 3520.91 4665.5 3081.07" class="color9b7249 svgShape"></polygon><polygon fill="#594328" points="3881.2 3202.43 3948.68 3202.43 4160.02 3082.74 4037.86 3006.29 3881.2 3202.43" class="color594328 svgShape"></polygon><polygon fill="#509324" points="3585.41 3031.97 3881.22 3202.43 4091.98 3080.69 3796.84 2909.47 3585.41 3031.97" class="color509324 svgShape"></polygon><polygon fill="#56a820" points="3585.41 2982.31 3881.22 3152.77 4091.98 3031.03 3796.84 2859.81 3585.41 2982.31" class="color56a820 svgShape"></polygon><polygon fill="#3d7519" points="3585.41 2982.31 3585.41 2987.99 3881.2 3158.42 3881.22 3152.77 3585.41 2982.31" class="color3d7519 svgShape"></polygon><polygon fill="#2e5613" points="3881.2 3158.42 4091.98 3036.7 4091.98 3031.03 3881.22 3152.77 3881.2 3158.42" class="color2e5613 svgShape"></polygon><polygon fill="#3d7519" points="3585.41 3026.33 3585.41 3032 3881.2 3202.43 3881.22 3196.79 3585.41 3026.33" class="color3d7519 svgShape"></polygon><polygon fill="#2e5613" points="3881.2 3202.43 4091.98 3080.72 4091.98 3075.04 3881.22 3196.79 3881.2 3202.43" class="color2e5613 svgShape"></polygon><polygon fill="#c16b2b" points="3585.41 3026.33 3618.96 3007.32 3625.95 3011.34 3591.84 3030.03 3585.41 3026.33" class="colorc16b2b svgShape"></polygon><polygon fill="#c16b2b" points="4091.98 3075.04 4058.64 3055.95 4049.59 3061.18 4062.18 3070.76 4084.33 3079.46 4091.98 3075.04" class="colorc16b2b svgShape"></polygon><polygon fill="#3d7519" points="3585.41 2982.31 3585.41 3032 3591.4 3035.28 3591.4 2985.76 3585.41 2982.31" class="color3d7519 svgShape"></polygon><polygon fill="#c16b2b" points="3591.4 3022.93 3591.4 2991.44 3618.96 3007.32 3591.4 3022.93" class="colorc16b2b svgShape"></polygon><polygon fill="#c6c6c6" points="3592.98 2992.4 3592.98 3028.66 3881.2 3193.73 3881.2 3158.58 3592.98 2992.4" class="colorc6c6c6 svgShape"></polygon><polygon fill="#e5e5e5" points="3881.2 3158.42 4085.24 3040.76 4085.24 3075.61 3881.2 3193.73 3881.2 3158.42" class="colore5e5e5 svgShape"></polygon><path fill="#4c931d" d="M3676.3,2964.54c-7.76,4.51-7.77,11.91,0,16.45l62.49,36.63c7.74,4.54,20.42,4.56,28.17.05l92.79-54c7.76-4.51,7.76-11.89,0-16.38l-62.86-36.44c-7.76-4.5-20.46-4.49-28.22,0Z" class="color4c931d svgShape"></path><polygon fill="#509324" points="3585.41 2975.98 3881.22 3146.44 4091.98 3024.69 3796.84 2853.47 3585.41 2975.98" class="color509324 svgShape"></polygon><polygon fill="#56a820" points="3585.41 2926.31 3881.22 3096.77 4091.98 2975.03 3796.84 2803.81 3585.41 2926.31" class="color56a820 svgShape"></polygon><polygon fill="#3d7519" points="3585.41 2926.31 3585.41 2931.99 3881.2 3102.42 3881.22 3096.77 3585.41 2926.31" class="color3d7519 svgShape"></polygon><polygon fill="#2e5613" points="3881.2 3102.42 4091.98 2980.71 4091.98 2975.03 3881.22 3096.77 3881.2 3102.42" class="color2e5613 svgShape"></polygon><polygon fill="#3d7519" points="3585.41 2970.33 3585.41 2976.01 3881.2 3146.44 3881.22 3140.79 3585.41 2970.33" class="color3d7519 svgShape"></polygon><polygon fill="#2e5613" points="3881.2 3146.44 4091.98 3024.72 4091.98 3019.05 3881.22 3140.79 3881.2 3146.44" class="color2e5613 svgShape"></polygon><polygon fill="#c16b2b" points="3585.41 2970.33 3618.96 2951.32 3625.95 2955.35 3591.84 2974.03 3585.41 2970.33" class="colorc16b2b svgShape"></polygon><polygon fill="#c16b2b" points="4091.98 3019.05 4058.64 2999.96 4049.59 3005.18 4062.18 3014.76 4084.33 3023.46 4091.98 3019.05" class="colorc16b2b svgShape"></polygon><polygon fill="#3d7519" points="3585.41 2926.31 3585.41 2976.01 3591.4 2979.29 3591.4 2929.77 3585.41 2926.31" class="color3d7519 svgShape"></polygon><polygon fill="#c16b2b" points="3591.4 2966.93 3591.4 2935.44 3618.96 2951.32 3591.4 2966.93" class="colorc16b2b svgShape"></polygon><polygon fill="#c6c6c6" points="3592.98 2936.4 3592.98 2972.67 3881.2 3137.74 3881.2 3102.58 3592.98 2936.4" class="colorc6c6c6 svgShape"></polygon><polygon fill="#e5e5e5" points="3881.2 3102.42 4085.24 2984.77 4085.24 3019.61 3881.2 3137.74 3881.2 3102.42" class="colore5e5e5 svgShape"></polygon><path fill="#4c931d" d="M3676.3,2908.55c-7.76,4.5-7.77,11.9,0,16.44l62.49,36.63c7.74,4.54,20.42,4.57,28.17.05l92.79-54c7.76-4.51,7.76-11.88,0-16.38l-62.86-36.43c-7.76-4.5-20.46-4.5-28.22,0Z" class="color4c931d svgShape"></path><polygon fill="#474751" points="2877.81 4733.46 3023.28 4733.46 2967.75 4677.93 2894.07 4677.93 2877.81 4733.46" class="color474751 svgShape"></polygon><polygon fill="#474751" points="3948.24 4548.53 4093.7 4548.53 4038.18 4493 3964.5 4493 3948.24 4548.53" class="color474751 svgShape"></polygon><polygon fill="#474751" points="3441.32 5062.04 3586.78 5062.04 3531.25 5006.52 3457.58 5006.52 3441.32 5062.04" class="color474751 svgShape"></polygon><polygon fill="#896b29" points="3980.76 4104.73 3249.4 4525.61 2845.28 4292.99 3577.63 3869.16 3980.76 4104.73" class="color896b29 svgShape"></polygon><polygon fill="#d39e50" points="3441.32 4593.36 3441.32 5062.04 3408.79 5042.82 3408.79 4574.88 3441.32 4593.36" class="colord39e50 svgShape"></polygon><polygon fill="#e8af62" points="3441.32 4593.36 3441.32 5062.04 3473.84 5042.82 3473.84 4574.88 3441.32 4593.36" class="colore8af62 svgShape"></polygon><polygon fill="#d39e50" points="3948.24 4079.84 3948.24 4548.53 3915.71 4529.31 3915.71 4061.36 3948.24 4079.84" class="colord39e50 svgShape"></polygon><polygon fill="#e8af62" points="3948.24 4079.84 3948.24 4548.53 3980.76 4529.31 3980.76 4061.36 3948.24 4079.84" class="colore8af62 svgShape"></polygon><polygon fill="#d39e50" points="2877.81 4264.78 2877.81 4733.46 2845.28 4714.24 2845.28 4246.3 2877.81 4264.78" class="colord39e50 svgShape"></polygon><polygon fill="#e8af62" points="2877.81 4264.78 2877.81 4733.46 2910.33 4714.24 2910.33 4246.3 2877.81 4264.78" class="colore8af62 svgShape"></polygon><polygon fill="#e8e8e8" points="3980.76 4061.36 3249.4 4482.24 2845.28 4249.63 3577.63 3825.79 3980.76 4061.36" class="colore8e8e8 svgShape"></polygon><polygon fill="#bcbcbc" points="3249.4 4525.61 3249.4 4482.24 2845.28 4249.63 2845.28 4292.99 3249.4 4525.61" class="colorbcbcbc svgShape"></polygon><polygon fill="#cecece" points="3980.76 4061.36 3980.76 4104.73 3249.4 4525.61 3249.4 4482.24 3980.76 4061.36" class="colorcecece svgShape"></polygon><polygon fill="#bcbcbc" points="3439.73 4635.1 3439.73 4591.74 3035.61 4359.12 3035.61 4402.49 3439.73 4635.1" class="colorbcbcbc svgShape"></polygon><polygon fill="#e8e8e8" points="3439.73 4591.74 3661.92 4460.56 3469.66 4355.49 3249.4 4482.24 3439.73 4591.74" class="colore8e8e8 svgShape"></polygon><polygon fill="#cecece" points="3661.92 4460.56 3661.92 4503.95 3439.73 4635.1 3439.73 4591.74 3661.92 4460.56" class="colorcecece svgShape"></polygon><polygon fill="#474751" points="3651.94 4884.46 3726.52 4884.46 3691.67 4849.61 3660.18 4849.61 3651.94 4884.46" class="color474751 svgShape"></polygon><polygon fill="#474751" points="3892.61 5036.08 3967.19 5036.08 3932.35 5001.23 3900.86 5001.23 3892.61 5036.08" class="color474751 svgShape"></polygon><polygon fill="#474751" points="4151.33 4890.16 4225.91 4890.16 4191.06 4855.32 4159.57 4855.32 4151.33 4890.16" class="color474751 svgShape"></polygon><polygon fill="#543918" points="3892.61 5036.08 3892.5 4771.95 3909.22 4762.12 3909.22 5026.7 3892.61 5036.08" class="color543918 svgShape"></polygon><polygon fill="#724c22" points="3892.61 5036.08 3892.5 4771.95 3875.77 4762.12 3875.77 5026.7 3892.61 5036.08" class="color724c22 svgShape"></polygon><polygon fill="#543918" points="4151.45 4890.16 4151.33 4626.03 4168.06 4616.21 4168.06 4880.78 4151.45 4890.16" class="color543918 svgShape"></polygon><polygon fill="#724c22" points="4151.45 4890.16 4151.33 4626.03 4134.6 4616.21 4134.6 4880.78 4151.45 4890.16" class="color724c22 svgShape"></polygon><polygon fill="#543918" points="3651.94 4884.46 3651.82 4620.33 3668.55 4610.5 3668.55 4875.08 3651.94 4884.46" class="color543918 svgShape"></polygon><polygon fill="#724c22" points="3651.94 4884.46 3651.82 4620.33 3635.1 4610.5 3635.1 4875.08 3651.94 4884.46" class="color724c22 svgShape"></polygon><polygon fill="#ffbe71" points="3613.34 4588.56 3901.7 4756.43 4209.23 4580.24 3920.88 4412.59 3613.34 4588.56" class="colorffbe71 svgShape"></polygon><polygon fill="#f4b25b" points="3613.34 4588.56 3613.34 4613.54 3901.7 4780.54 3901.7 4756.43 3613.34 4588.56" class="colorf4b25b svgShape"></polygon><polygon fill="#d89c44" points="3901.7 4780.54 4209.23 4608.49 4209.23 4580.24 3901.7 4756.43 3901.7 4780.54" class="colord89c44 svgShape"></polygon><polygon fill="#543918" points="3892.61 4728.7 3892.5 4464.57 3909.22 4454.74 3909.22 4719.32 3892.61 4728.7" class="color543918 svgShape"></polygon><polygon fill="#724c22" points="3892.61 4728.7 3892.5 4464.57 3875.77 4454.74 3875.77 4719.32 3892.61 4728.7" class="color724c22 svgShape"></polygon><polygon fill="#543918" points="4139.61 4581.88 4139.49 4317.75 4156.22 4307.92 4156.22 4572.5 4139.61 4581.88" class="color543918 svgShape"></polygon><polygon fill="#724c22" points="4139.61 4581.88 4139.49 4317.75 4122.77 4307.92 4122.77 4572.5 4139.61 4581.88" class="color724c22 svgShape"></polygon><polygon fill="#ba7a3a" points="4180.12 4133.71 3866.58 4315.03 3846.89 4303.66 4160.43 4122.49 4180.12 4133.71" class="colorba7a3a svgShape"></polygon><polygon fill="#d89c44" points="4180.19 4133.7 4180.19 4394.55 3866.65 4575.28 3866.65 4315.02 4180.19 4133.7" class="colord89c44 svgShape"></polygon><polygon fill="#f4b25b" points="3866.65 4575.28 3846.89 4562.47 3846.89 4303.66 3866.65 4315.04 3866.65 4575.28" class="colorf4b25b svgShape"></polygon><polygon fill="#474751" points="4121.13 3970.63 4266.6 3970.63 4211.07 3915.1 4137.39 3915.1 4121.13 3970.63" class="color474751 svgShape"></polygon><polygon fill="#474751" points="5191.56 3785.7 5337.03 3785.7 5281.5 3730.17 5207.82 3730.17 5191.56 3785.7" class="color474751 svgShape"></polygon><polygon fill="#474751" points="4684.64 4299.21 4830.1 4299.21 4774.57 4243.69 4700.9 4243.69 4684.64 4299.21" class="color474751 svgShape"></polygon><polygon fill="#896b29" points="5224.09 3341.9 4492.73 3762.78 4088.6 3530.16 4820.95 3106.33 5224.09 3341.9" class="color896b29 svgShape"></polygon><polygon fill="#d39e50" points="4684.64 3830.53 4684.64 4299.21 4652.11 4279.99 4652.11 3812.05 4684.64 3830.53" class="colord39e50 svgShape"></polygon><polygon fill="#e8af62" points="4684.64 3830.53 4684.64 4299.21 4717.16 4279.99 4717.16 3812.05 4684.64 3830.53" class="colore8af62 svgShape"></polygon><polygon fill="#d39e50" points="5191.56 3317.01 5191.56 3785.7 5159.03 3766.48 5159.03 3298.53 5191.56 3317.01" class="colord39e50 svgShape"></polygon><polygon fill="#e8af62" points="5191.56 3317.01 5191.56 3785.7 5224.09 3766.48 5224.09 3298.53 5191.56 3317.01" class="colore8af62 svgShape"></polygon><polygon fill="#d39e50" points="4121.13 3501.95 4121.13 3970.63 4088.6 3951.41 4088.6 3483.47 4121.13 3501.95" class="colord39e50 svgShape"></polygon><polygon fill="#e8af62" points="4121.13 3501.95 4121.13 3970.63 4153.66 3951.41 4153.66 3483.47 4121.13 3501.95" class="colore8af62 svgShape"></polygon><polygon fill="#e8e8e8" points="5224.09 3298.53 4492.73 3719.41 4088.6 3486.8 4820.95 3062.96 5224.09 3298.53" class="colore8e8e8 svgShape"></polygon><polygon fill="#bcbcbc" points="4492.73 3762.78 4492.73 3719.41 4088.6 3486.8 4088.6 3530.16 4492.73 3762.78" class="colorbcbcbc svgShape"></polygon><polygon fill="#cecece" points="5224.09 3298.53 5224.09 3341.9 4492.73 3762.78 4492.73 3719.41 5224.09 3298.53" class="colorcecece svgShape"></polygon><polygon fill="#bcbcbc" points="4683.05 3872.27 4683.05 3828.91 4278.93 3596.29 4278.93 3639.66 4683.05 3872.27" class="colorbcbcbc svgShape"></polygon><polygon fill="#e8e8e8" points="4683.05 3828.91 4905.24 3697.73 4712.98 3592.66 4492.73 3719.41 4683.05 3828.91" class="colore8e8e8 svgShape"></polygon><polygon fill="#cecece" points="4905.24 3697.73 4905.24 3741.13 4683.05 3872.27 4683.05 3828.91 4905.24 3697.73" class="colorcecece svgShape"></polygon><polygon fill="#474751" points="4895.26 4121.63 4969.84 4121.63 4935 4086.78 4903.51 4086.78 4895.26 4121.63" class="color474751 svgShape"></polygon><polygon fill="#474751" points="5135.94 4273.25 5210.51 4273.25 5175.67 4238.4 5144.18 4238.4 5135.94 4273.25" class="color474751 svgShape"></polygon><polygon fill="#474751" points="5394.65 4127.33 5469.23 4127.33 5434.39 4092.49 5402.9 4092.49 5394.65 4127.33" class="color474751 svgShape"></polygon><polygon fill="#543918" points="5135.94 4273.25 5135.82 4009.12 5152.55 3999.29 5152.55 4263.87 5135.94 4273.25" class="color543918 svgShape"></polygon><polygon fill="#724c22" points="5135.94 4273.25 5135.82 4009.12 5119.09 3999.29 5119.09 4263.87 5135.94 4273.25" class="color724c22 svgShape"></polygon><polygon fill="#543918" points="5394.77 4127.33 5394.65 3863.2 5411.38 3853.38 5411.38 4117.95 5394.77 4127.33" class="color543918 svgShape"></polygon><polygon fill="#724c22" points="5394.77 4127.33 5394.65 3863.2 5377.92 3853.38 5377.92 4117.95 5394.77 4127.33" class="color724c22 svgShape"></polygon><polygon fill="#543918" points="4895.26 4121.63 4895.15 3857.5 4911.87 3847.67 4911.87 4112.25 4895.26 4121.63" class="color543918 svgShape"></polygon><polygon fill="#724c22" points="4895.26 4121.63 4895.15 3857.5 4878.42 3847.67 4878.42 4112.25 4895.26 4121.63" class="color724c22 svgShape"></polygon><polygon fill="#ffbe71" points="4856.67 3825.73 5145.02 3993.6 5452.55 3817.41 5164.2 3649.76 4856.67 3825.73" class="colorffbe71 svgShape"></polygon><polygon fill="#f4b25b" points="4856.67 3825.73 4856.67 3850.71 5145.02 4017.71 5145.02 3993.6 4856.67 3825.73" class="colorf4b25b svgShape"></polygon><polygon fill="#d89c44" points="5145.02 4017.71 5452.55 3845.66 5452.55 3817.41 5145.02 3993.6 5145.02 4017.71" class="colord89c44 svgShape"></polygon><polygon fill="#543918" points="5135.94 3965.87 5135.82 3701.74 5152.55 3691.91 5152.55 3956.49 5135.94 3965.87" class="color543918 svgShape"></polygon><polygon fill="#724c22" points="5135.94 3965.87 5135.82 3701.74 5119.09 3691.91 5119.09 3956.49 5135.94 3965.87" class="color724c22 svgShape"></polygon><polygon fill="#543918" points="5382.93 3819.05 5382.82 3554.92 5399.54 3545.09 5399.54 3809.67 5382.93 3819.05" class="color543918 svgShape"></polygon><polygon fill="#724c22" points="5382.93 3819.05 5382.82 3554.92 5366.09 3545.09 5366.09 3809.67 5382.93 3819.05" class="color724c22 svgShape"></polygon><polygon fill="#ba7a3a" points="5423.44 3370.88 5109.9 3552.2 5090.22 3540.83 5403.76 3359.66 5423.44 3370.88" class="colorba7a3a svgShape"></polygon><polygon fill="#d89c44" points="5423.51 3370.87 5423.51 3631.72 5109.97 3812.45 5109.97 3552.19 5423.51 3370.87" class="colord89c44 svgShape"></polygon><polygon fill="#f4b25b" points="5109.97 3812.45 5090.22 3799.64 5090.22 3540.83 5109.97 3552.21 5109.97 3812.45" class="colorf4b25b svgShape"></polygon><path fill="#49422f" d="M4681.86,4770s-7.43,34.45,7.43,49.31c0,0,44.92,45.93,88.14,52.34,0,0,40.87,10.81,58.43-21.27a43.08,43.08,0,0,0-9.79-43.91s-67.55-48.29-82.07-76.32c0,0-7.09-17.23-19.25-7.43S4681.86,4770,4681.86,4770Z" class="color49422f svgShape"></path><path fill="#d8bc6f" d="M4644.7,4459.19s2.71,155.14,12.84,190.39c0,0,25,96.05,24.32,120.37,0,0,13.51,9.45,18.91,5.4,0,0,24.32-51.33,43.23-45.25,0,0-12.16-99.3-10.81-129,0,0,6.31-139.19-10-166.86Z" class="colord8bc6f svgShape"></path><path fill="#49422f" d="M4423.84,4532.79s-24.82,7.43-28.2,20.6c0,0-10.47,130.7,104.7,155.69,0,0,25.66,4.4,24.65-27.35,0,0-6.41-78-33.26-95.24Z" class="color49422f svgShape"></path><path fill="#d8bc6f" d="M4489 4501.29s-39.36 23.9-65.2 31.5c0 0-1.52 53.7 10.64 64.84 0 0 24.82-20.77 57.25-11.14 0 0 75-31.32 91.69-64zM4488.45 3969.53s-106.16 106.39-118.32 170.22c0 0-40.52 210.74 21.28 282.67 0 0 18.58 10.14 24-3 0 0 8.11-13.85 2-34.11 0 0-8.45-22.3-5.74-35.8 0 0 16.21-15.88 26.34-6.08 0 0 11.14 4.39 11.14-3.38 0 0-2.7-32.76-17.22-46.94 0 0-8.11-90.85 4.73-115.17 0 0 41.2-41.88 41.88-62.82l61.46-52 18.24-64.17-33.77-40.52z" class="colord8bc6f svgShape"></path><path fill="#25ff44" d="M4544.9,3942s-34.38,1.52-56.45,27.52c0,0,46.83-9.12,45.48,41.54,0,0-.67,50-30.39,70.93,0,0-25,20.26-25,33.09,0,0,21,210.81-46,357.8,0,0,141.89,106.92,310.41,15.06,0,0,55.44-249.25,20.6-528.21,0,0-3.39-8.8-8.12-11.83,0,0-21.61-13.83-47.2-11.48Z" class="color25ff44 svgShape"></path><path fill="#1dd833" d="M4738.22,3940.16s26.15,125.69,9.44,217.89c0,0,10.18,170.4-20.49,338L4743,4488s24.91-129.17,22.39-165.77l10.33-67.88,14-140.83s-19.74-150.09-30.39-161.67C4759.31,3951.8,4753.48,3943.6,4738.22,3940.16Z" class="color1dd833 svgShape"></path><path fill="#d8bc6f" d="M4601.5,3966.76s11.8,22.36,61.78,17.63c0,0,57.78.21,42.4-65.33l-119.23-8.29Z" class="colord8bc6f svgShape"></path><path fill="#f4da87" d="M4600.13,3925.46s49.14,41.54,89.16,8.61c0,0,47.62-38,52.18-74,0,0,5.57-53.19-4.56-74,0,0-77.51,37-140.84,12.15C4596.07,3798.3,4584.42,3897.09,4600.13,3925.46Z" class="colorf4da87 svgShape"></path><path fill="#d8bc6f" d="M4759.31,3951.8s42.1,8.61,49.53,49.14c0,0,14.19,91.86,10.81,132.39,0,0-16.88,121.58-18.24,151.3,0,0,6.76,83.76-.67,106.72,0,0-19.25,53.7-55.39,65.19,0,0-20.26,1-12.16-11.82,0,0,28-20.61,31.75-49,0,0-8.78,10-15.37,9.46,0,0-22.79-8.1-14.69-25.33,0,0,25.84-52.68,26.85-73.45,0,0,6.27-100.82,1.87-145.4C4763.6,4161,4782.73,4025.26,4759.31,3951.8Z" class="colord8bc6f svgShape"></path><path fill="#1dd833" d="M4493.68,4091s30.14,265.55-36,397.3l-25.08-15.41s60-112,46-357.8C4478.55,4115.09,4475.57,4107.31,4493.68,4091Z" class="color1dd833 svgShape"></path><path fill="#353535" d="M4596.9,3926.8s-24.46,17.51-38.63-29.17c0,0-75.42-51.66-25.41-133.35,0,0-10-12.51,13.34-36.68,0,0,57.61-101.09,221,8.1,0,0,28.34,18.34,9.16,36.68,0,0-78,50.76-176.4,35.9C4600,3808.28,4618,3885.12,4596.9,3926.8Z" class="color353535 svgShape"></path><polygon fill="#474751" points="3987.29 5404.42 4132.76 5404.42 4077.23 5348.89 4003.56 5348.89 3987.29 5404.42" class="color474751 svgShape"></polygon><polygon fill="#474751" points="5057.72 5219.49 5203.19 5219.49 5147.66 5163.96 5073.99 5163.96 5057.72 5219.49" class="color474751 svgShape"></polygon><polygon fill="#474751" points="4550.8 5733 4696.27 5733 4640.74 5677.48 4567.06 5677.48 4550.8 5733" class="color474751 svgShape"></polygon><polygon fill="#896b29" points="5090.25 4775.69 4358.89 5196.57 3954.77 4963.95 4687.11 4540.12 5090.25 4775.69" class="color896b29 svgShape"></polygon><polygon fill="#d39e50" points="4550.8 5264.32 4550.8 5733 4518.27 5713.78 4518.27 5245.84 4550.8 5264.32" class="colord39e50 svgShape"></polygon><polygon fill="#e8af62" points="4550.8 5264.32 4550.8 5733 4583.33 5713.78 4583.33 5245.84 4550.8 5264.32" class="colore8af62 svgShape"></polygon><polygon fill="#d39e50" points="5057.72 4750.8 5057.72 5219.49 5025.2 5200.27 5025.2 4732.32 5057.72 4750.8" class="colord39e50 svgShape"></polygon><polygon fill="#e8af62" points="5057.72 4750.8 5057.72 5219.49 5090.25 5200.27 5090.25 4732.32 5057.72 4750.8" class="colore8af62 svgShape"></polygon><polygon fill="#d39e50" points="3987.29 4935.74 3987.29 5404.42 3954.77 5385.2 3954.77 4917.26 3987.29 4935.74" class="colord39e50 svgShape"></polygon><polygon fill="#e8af62" points="3987.29 4935.74 3987.29 5404.42 4019.82 5385.2 4019.82 4917.26 3987.29 4935.74" class="colore8af62 svgShape"></polygon><polygon fill="#e8e8e8" points="5090.25 4732.32 4358.89 5153.2 3954.77 4920.59 4687.11 4496.75 5090.25 4732.32" class="colore8e8e8 svgShape"></polygon><polygon fill="#bcbcbc" points="4358.89 5196.57 4358.89 5153.2 3954.77 4920.59 3954.77 4963.95 4358.89 5196.57" class="colorbcbcbc svgShape"></polygon><polygon fill="#cecece" points="5090.25 4732.32 5090.25 4775.69 4358.89 5196.57 4358.89 5153.2 5090.25 4732.32" class="colorcecece svgShape"></polygon><polygon fill="#bcbcbc" points="4549.22 5306.06 4549.22 5262.7 4145.09 5030.08 4145.09 5073.45 4549.22 5306.06" class="colorbcbcbc svgShape"></polygon><polygon fill="#e8e8e8" points="4549.22 5262.7 4771.4 5131.52 4579.14 5026.45 4358.89 5153.2 4549.22 5262.7" class="colore8e8e8 svgShape"></polygon><polygon fill="#cecece" points="4771.4 5131.52 4771.4 5174.91 4549.22 5306.06 4549.22 5262.7 4771.4 5131.52" class="colorcecece svgShape"></polygon><polygon fill="#474751" points="4761.43 5555.41 4836 5555.41 4801.16 5520.57 4769.67 5520.57 4761.43 5555.41" class="color474751 svgShape"></polygon><polygon fill="#474751" points="5002.1 5707.04 5076.68 5707.04 5041.83 5672.19 5010.35 5672.19 5002.1 5707.04" class="color474751 svgShape"></polygon><polygon fill="#474751" points="5260.81 5561.12 5335.39 5561.12 5300.55 5526.28 5269.06 5526.28 5260.81 5561.12" class="color474751 svgShape"></polygon><polygon fill="#543918" points="5002.1 5707.04 5001.98 5442.91 5018.71 5433.08 5018.71 5697.66 5002.1 5707.04" class="color543918 svgShape"></polygon><polygon fill="#724c22" points="5002.1 5707.04 5001.98 5442.91 4985.26 5433.08 4985.26 5697.66 5002.1 5707.04" class="color724c22 svgShape"></polygon><polygon fill="#543918" points="5260.93 5561.12 5260.81 5296.99 5277.54 5287.16 5277.54 5551.74 5260.93 5561.12" class="color543918 svgShape"></polygon><polygon fill="#724c22" points="5260.93 5561.12 5260.81 5296.99 5244.09 5287.16 5244.09 5551.74 5260.93 5561.12" class="color724c22 svgShape"></polygon><polygon fill="#543918" points="4761.43 5555.41 4761.31 5291.29 4778.03 5281.46 4778.03 5546.04 4761.43 5555.41" class="color543918 svgShape"></polygon><polygon fill="#724c22" points="4761.43 5555.41 4761.31 5291.29 4744.58 5281.46 4744.58 5546.04 4761.43 5555.41" class="color724c22 svgShape"></polygon><polygon fill="#ffbe71" points="4722.83 5259.52 5011.18 5427.39 5318.71 5251.2 5030.37 5083.55 4722.83 5259.52" class="colorffbe71 svgShape"></polygon><polygon fill="#f4b25b" points="4722.83 5259.52 4722.83 5284.5 5011.18 5451.5 5011.18 5427.39 4722.83 5259.52" class="colorf4b25b svgShape"></polygon><polygon fill="#d89c44" points="5011.18 5451.5 5318.71 5279.45 5318.71 5251.2 5011.18 5427.39 5011.18 5451.5" class="colord89c44 svgShape"></polygon><polygon fill="#543918" points="5002.1 5399.66 5001.98 5135.53 5018.71 5125.7 5018.71 5390.28 5002.1 5399.66" class="color543918 svgShape"></polygon><polygon fill="#724c22" points="5002.1 5399.66 5001.98 5135.53 4985.26 5125.7 4985.26 5390.28 5002.1 5399.66" class="color724c22 svgShape"></polygon><polygon fill="#543918" points="5249.1 5252.84 5248.98 4988.71 5265.7 4978.88 5265.7 5243.46 5249.1 5252.84" class="color543918 svgShape"></polygon><polygon fill="#724c22" points="5249.1 5252.84 5248.98 4988.71 5232.25 4978.88 5232.25 5243.46 5249.1 5252.84" class="color724c22 svgShape"></polygon><polygon fill="#ba7a3a" points="5289.61 4804.67 4976.06 4985.99 4956.38 4974.62 5269.92 4793.45 5289.61 4804.67" class="colorba7a3a svgShape"></polygon><polygon fill="#d89c44" points="5289.68 4804.66 5289.68 5065.51 4976.13 5246.24 4976.13 4985.98 5289.68 4804.66" class="colord89c44 svgShape"></polygon><polygon fill="#f4b25b" points="4976.13 5246.24 4956.38 5233.43 4956.38 4974.62 4976.13 4986 4976.13 5246.24" class="colorf4b25b svgShape"></polygon><polygon fill="#474751" points="5230.62 4641.59 5376.08 4641.59 5320.55 4586.06 5246.88 4586.06 5230.62 4641.59" class="color474751 svgShape"></polygon><polygon fill="#474751" points="6301.05 4456.66 6446.51 4456.66 6390.98 4401.13 6317.31 4401.13 6301.05 4456.66" class="color474751 svgShape"></polygon><polygon fill="#474751" points="5794.12 4970.17 5939.59 4970.17 5884.06 4914.65 5810.39 4914.65 5794.12 4970.17" class="color474751 svgShape"></polygon><polygon fill="#896b29" points="6333.57 4012.86 5602.21 4433.74 5198.09 4201.12 5930.44 3777.29 6333.57 4012.86" class="color896b29 svgShape"></polygon><polygon fill="#d39e50" points="5794.12 4501.49 5794.12 4970.17 5761.6 4950.95 5761.6 4483.01 5794.12 4501.49" class="colord39e50 svgShape"></polygon><polygon fill="#e8af62" points="5794.12 4501.49 5794.12 4970.17 5826.65 4950.95 5826.65 4483.01 5794.12 4501.49" class="colore8af62 svgShape"></polygon><polygon fill="#d39e50" points="6301.05 3987.97 6301.05 4456.66 6268.52 4437.44 6268.52 3969.49 6301.05 3987.97" class="colord39e50 svgShape"></polygon><polygon fill="#e8af62" points="6301.05 3987.97 6301.05 4456.66 6333.57 4437.44 6333.57 3969.49 6301.05 3987.97" class="colore8af62 svgShape"></polygon><polygon fill="#d39e50" points="5230.62 4172.91 5230.62 4641.59 5198.09 4622.37 5198.09 4154.43 5230.62 4172.91" class="colord39e50 svgShape"></polygon><polygon fill="#e8af62" points="5230.62 4172.91 5230.62 4641.59 5263.14 4622.37 5263.14 4154.43 5230.62 4172.91" class="colore8af62 svgShape"></polygon><polygon fill="#e8e8e8" points="6333.57 3969.49 5602.21 4390.37 5198.09 4157.76 5930.44 3733.92 6333.57 3969.49" class="colore8e8e8 svgShape"></polygon><polygon fill="#bcbcbc" points="5602.21 4433.74 5602.21 4390.37 5198.09 4157.76 5198.09 4201.12 5602.21 4433.74" class="colorbcbcbc svgShape"></polygon><polygon fill="#cecece" points="6333.57 3969.49 6333.57 4012.86 5602.21 4433.74 5602.21 4390.37 6333.57 3969.49" class="colorcecece svgShape"></polygon><polygon fill="#bcbcbc" points="5792.54 4543.23 5792.54 4499.87 5388.42 4267.25 5388.42 4310.62 5792.54 4543.23" class="colorbcbcbc svgShape"></polygon><polygon fill="#e8e8e8" points="5792.54 4499.87 6014.72 4368.69 5822.46 4263.62 5602.21 4390.37 5792.54 4499.87" class="colore8e8e8 svgShape"></polygon><polygon fill="#cecece" points="6014.72 4368.69 6014.72 4412.09 5792.54 4543.23 5792.54 4499.87 6014.72 4368.69" class="colorcecece svgShape"></polygon><polygon fill="#474751" points="6004.75 4792.59 6079.33 4792.59 6044.48 4757.74 6012.99 4757.74 6004.75 4792.59" class="color474751 svgShape"></polygon><polygon fill="#474751" points="6245.42 4944.21 6320 4944.21 6285.15 4909.36 6253.67 4909.36 6245.42 4944.21" class="color474751 svgShape"></polygon><polygon fill="#474751" points="6504.14 4798.29 6578.72 4798.29 6543.87 4763.45 6512.38 4763.45 6504.14 4798.29" class="color474751 svgShape"></polygon><polygon fill="#543918" points="6245.42 4944.21 6245.3 4680.08 6262.03 4670.25 6262.03 4934.83 6245.42 4944.21" class="color543918 svgShape"></polygon><polygon fill="#724c22" points="6245.42 4944.21 6245.3 4680.08 6228.58 4670.25 6228.58 4934.83 6245.42 4944.21" class="color724c22 svgShape"></polygon><polygon fill="#543918" points="6504.26 4798.29 6504.14 4534.16 6520.86 4524.34 6520.86 4788.91 6504.26 4798.29" class="color543918 svgShape"></polygon><polygon fill="#724c22" points="6504.26 4798.29 6504.14 4534.16 6487.41 4524.34 6487.41 4788.91 6504.26 4798.29" class="color724c22 svgShape"></polygon><polygon fill="#543918" points="6004.75 4792.59 6004.63 4528.46 6021.36 4518.63 6021.36 4783.21 6004.75 4792.59" class="color543918 svgShape"></polygon><polygon fill="#724c22" points="6004.75 4792.59 6004.63 4528.46 5987.91 4518.63 5987.91 4783.21 6004.75 4792.59" class="color724c22 svgShape"></polygon><polygon fill="#ffbe71" points="5966.15 4496.69 6254.5 4664.56 6562.04 4488.37 6273.69 4320.72 5966.15 4496.69" class="colorffbe71 svgShape"></polygon><polygon fill="#f4b25b" points="5966.15 4496.69 5966.15 4521.67 6254.5 4688.66 6254.5 4664.56 5966.15 4496.69" class="colorf4b25b svgShape"></polygon><polygon fill="#d89c44" points="6254.5 4688.66 6562.04 4516.62 6562.04 4488.37 6254.5 4664.56 6254.5 4688.66" class="colord89c44 svgShape"></polygon><polygon fill="#543918" points="6245.42 4636.83 6245.3 4372.69 6262.03 4362.87 6262.03 4627.45 6245.42 4636.83" class="color543918 svgShape"></polygon><polygon fill="#724c22" points="6245.42 4636.83 6245.3 4372.69 6228.58 4362.87 6228.58 4627.45 6245.42 4636.83" class="color724c22 svgShape"></polygon><polygon fill="#543918" points="6492.42 4490.01 6492.3 4225.88 6509.03 4216.05 6509.03 4480.63 6492.42 4490.01" class="color543918 svgShape"></polygon><polygon fill="#724c22" points="6492.42 4490.01 6492.3 4225.88 6475.58 4216.05 6475.58 4480.63 6492.42 4490.01" class="color724c22 svgShape"></polygon><polygon fill="#ba7a3a" points="6532.93 4041.84 6219.39 4223.16 6199.7 4211.79 6513.24 4030.61 6532.93 4041.84" class="colorba7a3a svgShape"></polygon><polygon fill="#d89c44" points="6533 4041.83 6533 4302.68 6219.45 4483.41 6219.45 4223.15 6533 4041.83" class="colord89c44 svgShape"></polygon><polygon fill="#f4b25b" points="6219.45 4483.41 6199.7 4470.6 6199.7 4211.79 6219.45 4223.17 6219.45 4483.41" class="colorf4b25b svgShape"></polygon><path fill="#49422f" d="M2475.49,4218.81s-7.44,34.45,7.43,49.31c0,0,44.91,45.93,88.14,52.35,0,0,40.87,10.81,58.43-21.28a43.06,43.06,0,0,0-9.79-43.9s-67.55-48.3-82.07-76.33c0,0-7.1-17.22-19.25-7.43S2475.49,4218.81,2475.49,4218.81Z" class="color49422f svgShape"></path><path fill="#d8bc6f" d="M2438.33,3908.05s2.71,155.14,12.84,190.4c0,0,25,96,24.32,120.36,0,0,13.5,9.46,18.91,5.41,0,0,24.31-51.34,43.23-45.26,0,0-12.16-99.29-10.81-129,0,0,6.3-139.2-10-166.86Z" class="colord8bc6f svgShape"></path><path fill="#49422f" d="M2217.47,3981.66s-24.82,7.43-28.2,20.6c0,0-10.47,130.7,104.7,155.69,0,0,25.66,4.39,24.65-27.36,0,0-6.42-78-33.27-95.24Z" class="color49422f svgShape"></path><path fill="#d8bc6f" d="M2282.67 3950.16s-39.36 23.9-65.2 31.5c0 0-1.52 53.69 10.64 64.84 0 0 24.82-20.77 57.24-11.15 0 0 75-31.31 91.7-64zM2282.08 3418.4s-106.16 106.38-118.32 170.21c0 0-40.53 210.74 21.28 282.68 0 0 18.57 10.13 24-3 0 0 8.1-13.85 2-34.11 0 0-8.44-22.29-5.74-35.8 0 0 16.21-15.87 26.34-6.08 0 0 11.15 4.39 11.15-3.38 0 0-2.7-32.75-17.22-46.94 0 0-8.11-90.85 4.73-115.17 0 0 41.2-41.87 41.87-62.81l61.47-52 18.24-64.17-33.78-40.53z" class="colord8bc6f svgShape"></path><path fill="#7a4e00" d="M2338.53,3390.88s-34.39,1.51-56.45,27.52c0,0,46.83-9.12,45.48,41.54,0,0-.68,50-30.39,70.92,0,0-25,20.26-25,33.1,0,0,21,210.8-46,357.79,0,0,141.89,106.92,310.4,15.06,0,0,55.44-249.24,20.61-528.21,0,0-3.39-8.8-8.12-11.83,0,0-21.62-13.83-47.2-11.47Z" class="color7a4e00 svgShape"></path><path fill="#5b3800" d="M2531.84,3389s26.16,125.69,9.44,217.89c0,0,10.19,170.4-20.49,338l15.83-8.09s24.92-129.16,22.39-165.76l10.34-67.89,14-140.83s-19.74-150.08-30.39-161.67C2552.94,3400.66,2547.1,3392.46,2531.84,3389Z" class="color5b3800 svgShape"></path><path fill="#d8bc6f" d="M2395.12,3415.63s11.81,22.35,61.79,17.63c0,0,57.77.2,42.4-65.34l-119.23-8.29Z" class="colord8bc6f svgShape"></path><path fill="#f4da87" d="M2393.75,3374.32s49.14,41.54,89.17,8.61c0,0,47.61-38,52.17-74,0,0,5.58-53.19-4.56-74,0,0-77.5,37-140.83,12.16C2389.7,3247.17,2378.05,3346,2393.75,3374.32Z" class="colorf4da87 svgShape"></path><path fill="#d8bc6f" d="M2552.94,3400.66s42.1,8.62,49.53,49.14c0,0,14.19,91.87,10.81,132.4,0,0-16.89,121.58-18.24,151.3,0,0,6.76,83.75-.68,106.72,0,0-19.25,53.7-55.38,65.18,0,0-20.27,1-12.16-11.82,0,0,28-20.6,31.75-49,0,0-8.78,10-15.37,9.46,0,0-22.8-8.11-14.69-25.33,0,0,25.83-52.69,26.85-73.46,0,0,6.27-100.81,1.87-145.39C2557.23,3609.89,2576.36,3474.12,2552.94,3400.66Z" class="colord8bc6f svgShape"></path><path fill="#5b3800" d="M2287.31,3539.87s30.13,265.54-36,397.3l-25.08-15.42s60-112,46-357.79C2272.17,3564,2269.2,3556.18,2287.31,3539.87Z" class="color5b3800 svgShape"></path><path fill="#353535" d="M2390.53,3375.67s-24.46,17.5-38.63-29.18c0,0-75.43-51.66-25.41-133.35,0,0-10-12.5,13.33-36.68,0,0,57.61-101.09,221,8.11,0,0,28.34,18.34,9.17,36.68,0,0-78,50.75-176.4,35.9C2393.58,3257.15,2411.65,3334,2390.53,3375.67Z" class="color353535 svgShape"></path><path fill="#49422f" d="M2676,5289.07s7.43,34.45-7.43,49.31c0,0-44.92,45.93-88.15,52.35,0,0-40.87,10.81-58.43-21.28a43.08,43.08,0,0,1,9.8-43.9s67.54-48.3,82.06-76.33c0,0,7.1-17.22,19.26-7.43S2676,5289.07,2676,5289.07Z" class="color49422f svgShape"></path><path fill="#d8bc6f" d="M2713.11,4978.32s-2.71,155.14-12.85,190.39c0,0-25,96.05-24.31,120.36,0,0-13.51,9.46-18.92,5.41,0,0-24.31-51.34-43.23-45.26,0,0,12.16-99.29,10.81-129,0,0-6.3-139.19,10-166.86Z" class="colord8bc6f svgShape"></path><path fill="#49422f" d="M2934,5051.92s24.82,7.43,28.2,20.6c0,0,10.47,130.7-104.69,155.69,0,0-25.67,4.39-24.66-27.35,0,0,6.42-78,33.27-95.24Z" class="color49422f svgShape"></path><path fill="#d8bc6f" d="M2868.76 5020.42s39.37 23.9 65.2 31.5c0 0 1.52 53.7-10.64 64.84 0 0-24.82-20.77-57.24-11.14 0 0-75-31.32-91.69-64zM2869.35 4488.66s106.16 106.38 118.32 170.21c0 0 40.53 210.75-21.28 282.68 0 0-18.57 10.13-24-3 0 0-8.11-13.84-2-34.11 0 0 8.44-22.29 5.74-35.8 0 0-16.21-15.87-26.34-6.08 0 0-11.15 4.39-11.15-3.37 0 0 2.7-32.76 17.23-46.95 0 0 8.1-90.85-4.73-115.16 0 0-41.21-41.88-41.88-62.82l-61.47-52L2799.56 4518l33.77-40.53z" class="colord8bc6f svgShape"></path><path fill="#ffa22a" d="M2812.9,4461.14s34.39,1.51,56.45,27.52c0,0-46.83-9.12-45.48,41.54,0,0,.68,50,30.4,70.92,0,0,25,20.27,25,33.1,0,0-21.05,210.8,45.95,357.79,0,0-141.88,106.92-310.4,15.06,0,0-55.44-249.24-20.61-528.21,0,0,3.39-8.8,8.12-11.83,0,0,21.62-13.83,47.2-11.47Z" class="colorffa22a svgShape"></path><path fill="#d67a16" d="M2619.59,4459.29s-26.16,125.68-9.44,217.88c0,0-10.19,170.4,20.49,338l-15.83-8.09s-24.92-129.16-22.39-165.76l-10.34-67.88-14-140.84s19.75-150.08,30.39-161.67C2598.49,4470.92,2604.33,4462.73,2619.59,4459.29Z" class="colord67a16 svgShape"></path><path fill="#d8bc6f" d="M2756.31,4485.89s-11.8,22.36-61.79,17.63c0,0-57.77.2-42.39-65.33l119.23-8.3Z" class="colord8bc6f svgShape"></path><path fill="#f4da87" d="M2757.68,4444.58s-49.14,41.55-89.16,8.62c0,0-47.62-38-52.18-74,0,0-5.57-53.19,4.56-74,0,0,77.51,37,140.83,12.16C2761.73,4317.43,2773.38,4416.22,2757.68,4444.58Z" class="colorf4da87 svgShape"></path><path fill="#d8bc6f" d="M2598.49,4470.92s-42.1,8.62-49.53,49.15c0,0-14.18,91.86-10.81,132.39,0,0,16.89,121.58,18.24,151.3,0,0-6.75,83.76.68,106.72,0,0,19.25,53.7,55.38,65.18,0,0,20.27,1,12.16-11.82,0,0-28-20.6-31.74-49,0,0,8.78,10,15.36,9.46,0,0,22.8-8.11,14.69-25.33,0,0-25.83-52.69-26.85-73.46,0,0-6.27-100.81-1.87-145.39C2594.2,4680.15,2575.07,4544.38,2598.49,4470.92Z" class="colord8bc6f svgShape"></path><path fill="#d67a16" d="M2864.12,4610.13s-30.13,265.54,36,397.3l25.07-15.42s-60-112-45.95-357.79C2879.26,4634.22,2882.23,4626.44,2864.12,4610.13Z" class="colord67a16 svgShape"></path><path fill="#353535" d="M2760.9,4445.93s24.46,17.5,38.63-29.17c0,0,75.43-51.67,25.41-133.36,0,0,10-12.5-13.33-36.67,0,0-57.61-101.09-221,8.1,0,0-28.34,18.34-9.17,36.68,0,0,78,50.75,176.41,35.9C2757.86,4327.41,2739.78,4404.25,2760.9,4445.93Z" class="color353535 svgShape"></path><path fill="#49422f" d="M5590.6,5224.24s7.43,34.45-7.43,49.31c0,0-44.91,45.93-88.14,52.35,0,0-40.87,10.81-58.43-21.28a43.06,43.06,0,0,1,9.79-43.9s67.55-48.3,82.07-76.33c0,0,7.09-17.22,19.25-7.43S5590.6,5224.24,5590.6,5224.24Z" class="color49422f svgShape"></path><path fill="#d8bc6f" d="M5627.76,4913.48s-2.71,155.14-12.84,190.4c0,0-25,96.05-24.32,120.36,0,0-13.5,9.46-18.91,5.41,0,0-24.32-51.34-43.23-45.26,0,0,12.16-99.29,10.81-129,0,0-6.3-139.2,10-166.86Z" class="colord8bc6f svgShape"></path><path fill="#49422f" d="M5848.62,4987.09s24.82,7.43,28.2,20.6c0,0,10.47,130.7-104.7,155.69,0,0-25.66,4.39-24.65-27.36,0,0,6.42-78,33.27-95.24Z" class="color49422f svgShape"></path><path fill="#d8bc6f" d="M5783.42 4955.59s39.36 23.9 65.2 31.5c0 0 1.52 53.69-10.64 64.84 0 0-24.82-20.77-57.24-11.15 0 0-75-31.31-91.7-64zM5784 4423.83s106.16 106.38 118.32 170.21c0 0 40.53 210.75-21.28 282.68 0 0-18.57 10.13-24-3 0 0-8.1-13.85-2-34.11 0 0 8.44-22.29 5.74-35.8 0 0-16.21-15.87-26.35-6.08 0 0-11.14 4.39-11.14-3.38 0 0 2.7-32.75 17.22-46.94 0 0 8.11-90.85-4.72-115.17 0 0-41.21-41.87-41.88-62.81l-61.47-52-18.24-64.17 33.78-40.53z" class="colord8bc6f svgShape"></path><path fill="#ac63ff" d="M5727.56,4396.31s34.39,1.51,56.45,27.52c0,0-46.83-9.12-45.48,41.54,0,0,.68,50,30.4,70.92,0,0,25,20.26,25,33.1,0,0-21.05,210.8,45.95,357.79,0,0-141.89,106.92-310.4,15.06,0,0-55.44-249.24-20.61-528.21,0,0,3.39-8.8,8.12-11.83,0,0,21.62-13.83,47.2-11.47Z" class="colorac63ff svgShape"></path><path fill="#834ad3" d="M5534.25,4394.45s-26.16,125.69-9.44,217.89c0,0-10.19,170.4,20.49,338l-15.83-8.09s-24.92-129.16-22.39-165.76l-10.34-67.89-14-140.83s19.74-150.08,30.39-161.67C5513.15,4406.09,5519,4397.9,5534.25,4394.45Z" class="color834ad3 svgShape"></path><path fill="#d8bc6f" d="M5671,4421.06s-11.81,22.35-61.79,17.63c0,0-57.77.2-42.4-65.34l119.23-8.29Z" class="colord8bc6f svgShape"></path><path fill="#f4da87" d="M5672.33,4379.75s-49.13,41.54-89.16,8.61c0,0-47.62-38-52.17-74,0,0-5.58-53.19,4.55-74,0,0,77.51,37,140.84,12.16C5676.39,4252.6,5688,4351.38,5672.33,4379.75Z" class="colorf4da87 svgShape"></path><path fill="#d8bc6f" d="M5513.15,4406.09s-42.1,8.62-49.53,49.14c0,0-14.19,91.87-10.81,132.4,0,0,16.89,121.58,18.24,151.3,0,0-6.76,83.75.67,106.72,0,0,19.26,53.7,55.39,65.18,0,0,20.26,1,12.16-11.82,0,0-28-20.6-31.75-49,0,0,8.78,10,15.37,9.46,0,0,22.8-8.11,14.69-25.33,0,0-25.83-52.69-26.85-73.46,0,0-6.27-100.81-1.87-145.39C5508.86,4615.32,5489.73,4479.55,5513.15,4406.09Z" class="colord8bc6f svgShape"></path><path fill="#834ad3" d="M5778.78,4545.3s-30.13,265.54,36,397.3l25.08-15.42s-60-112-45.95-357.79C5793.92,4569.39,5796.89,4561.61,5778.78,4545.3Z" class="color834ad3 svgShape"></path><path fill="#353535" d="M5675.56,4381.1s24.46,17.5,38.63-29.18c0,0,75.43-51.66,25.41-133.35,0,0,10-12.5-13.34-36.67,0,0-57.6-101.1-221,8.1,0,0-28.34,18.34-9.17,36.68,0,0,78,50.75,176.4,35.9C5672.51,4262.58,5654.44,4339.42,5675.56,4381.1Z" class="color353535 svgShape"></path><polygon fill="#474751" points="1098.46 4646.71 1344.82 4646.71 2189.02 4168.52 1746.23 3915.1 1098.46 4646.71" class="color474751 svgShape"></polygon><polygon fill="#d39235" points="1955.84 4108.76 1098.46 4602.88 807.95 4440.03 1668.42 3943.13 1955.84 4108.76" class="colord39235 svgShape"></polygon><polygon fill="#b77b2c" points="1098.46 4646.71 1098.46 4602.88 807.95 4440.03 807.95 4483.87 1098.46 4646.71" class="colorb77b2c svgShape"></polygon><polygon fill="#a56d2b" points="1098.46 4646.71 1098.46 4602.88 1955.84 4108.76 1955.84 4152.6 1098.46 4646.71" class="colora56d2b svgShape"></polygon><polygon fill="#af7031" points="1919.06 3626.86 1919.06 4130.02 1628.54 3967.17 1628.54 3464.01 1919.06 3626.86" class="coloraf7031 svgShape"></polygon><polygon fill="#935d27" points="1955.84 3605.66 1955.84 4108.82 1919.06 4130.02 1919.06 3626.86 1955.84 3605.66" class="color935d27 svgShape"></polygon><polygon fill="#b77b2c" points="1955.84 3034.65 1098.46 3528.76 807.95 3365.91 1668.42 2869.02 1955.84 3034.65" class="colorb77b2c svgShape"></polygon><polygon fill="#4f74aa" points="1524.36 4001.94 1524.36 4334.53 1466.95 4364.81 1466.95 4032.85 1524.36 4001.94" class="color4f74aa svgShape"></polygon><polygon fill="#43658e" points="1466.95 4032.85 1284.97 3923.93 1284.97 4258.68 1466.95 4364.81 1466.95 4032.85" class="color43658e svgShape"></polygon><polygon fill="#395877" points="1524.36 4001.94 1338.03 3895.58 1331.77 3899.75 1507.14 4001.94 1466.95 4023.97 1293.66 3920.11 1284.97 3923.93 1466.95 4032.85 1524.36 4001.94" class="color395877 svgShape"></polygon><polygon fill="#2e4960" points="1331.77 3899.75 1331.77 3942.94 1466.95 4023.97 1507.14 4001.94 1331.77 3899.75" class="color2e4960 svgShape"></polygon><polygon fill="#dddddd" points="1303.85 3926.21 1334.72 3908.28 1501.46 4005.05 1466.95 4023.97 1303.85 3926.21" class="colorddd svgShape"></polygon><polygon fill="#3cb72a" points="1436.68 4055.11 1436.68 4387.71 1379.27 4417.99 1379.27 4086.03 1436.68 4055.11" class="color3cb72a svgShape"></polygon><polygon fill="#329920" points="1379.27 4086.03 1197.28 3977.11 1197.28 4311.85 1379.27 4417.99 1379.27 4086.03" class="color329920 svgShape"></polygon><polygon fill="#2c821a" points="1436.68 4055.11 1250.35 3948.76 1244.08 3952.93 1419.46 4055.11 1379.27 4077.15 1205.98 3973.28 1197.28 3977.11 1379.27 4086.03 1436.68 4055.11" class="color2c821a svgShape"></polygon><polygon fill="#266b15" points="1244.08 3952.93 1244.08 3996.12 1379.27 4077.15 1419.46 4055.11 1244.08 3952.93" class="color266b15 svgShape"></polygon><polygon fill="#dddddd" points="1216.16 3979.39 1247.04 3961.45 1413.77 4058.23 1379.27 4077.15 1216.16 3979.39" class="colorddd svgShape"></polygon><polygon fill="#d8d312" points="1344.82 4106.5 1344.82 4439.1 1287.4 4469.37 1287.4 4137.41 1344.82 4106.5" class="colord8d312 svgShape"></polygon><polygon fill="#bcb30f" points="1287.4 4137.41 1105.42 4028.5 1105.42 4363.24 1287.4 4469.37 1287.4 4137.41" class="colorbcb30f svgShape"></polygon><polygon fill="#82760b" points="1344.82 4106.5 1158.48 4000.14 1152.22 4004.31 1327.59 4106.5 1287.4 4128.54 1114.11 4024.67 1105.42 4028.5 1287.4 4137.41 1344.82 4106.5" class="color82760b svgShape"></polygon><polygon fill="#72650c" points="1152.22 4004.31 1152.22 4047.51 1287.4 4128.54 1327.59 4106.5 1152.22 4004.31" class="color72650c svgShape"></polygon><polygon fill="#dddddd" points="1124.3 4030.77 1155.17 4012.84 1321.91 4109.62 1287.4 4128.54 1124.3 4030.77" class="colorddd svgShape"></polygon><polygon fill="#ce1d26" points="1248.78 4159.68 1248.78 4492.28 1191.36 4522.55 1191.36 4190.59 1248.78 4159.68" class="colorce1d26 svgShape"></polygon><polygon fill="#ad1423" points="1191.36 4190.59 1009.38 4081.68 1009.38 4416.42 1191.36 4522.55 1191.36 4190.59" class="colorad1423 svgShape"></polygon><polygon fill="#931124" points="1248.78 4159.68 1062.44 4053.32 1056.18 4057.49 1231.56 4159.68 1191.36 4181.72 1018.08 4077.85 1009.38 4081.68 1191.36 4190.59 1248.78 4159.68" class="color931124 svgShape"></polygon><polygon fill="#7f0d23" points="1056.18 4057.49 1056.18 4100.69 1191.36 4181.72 1231.56 4159.68 1056.18 4057.49" class="color7f0d23 svgShape"></polygon><polygon fill="#dddddd" points="1028.26 4083.95 1059.14 4066.02 1225.87 4162.8 1191.36 4181.72 1028.26 4083.95" class="colorddd svgShape"></polygon><polygon fill="#d39235" points="1955.84 3561.76 1098.46 4055.87 807.95 3893.03 1668.42 3396.13 1955.84 3561.76" class="colord39235 svgShape"></polygon><polygon fill="#b77b2c" points="1098.46 4099.72 1098.46 4055.87 807.95 3893.03 807.95 3936.87 1098.46 4099.72" class="colorb77b2c svgShape"></polygon><polygon fill="#a56d2b" points="1098.46 4099.72 1098.46 4055.87 1955.84 3561.76 1955.84 3605.61 1098.46 4099.72" class="colora56d2b svgShape"></polygon><polygon fill="#a56d2b" points="1098.46 4099.72 1098.46 4602.88 807.95 4440.03 807.95 3936.87 1098.46 4099.72" class="colora56d2b svgShape"></polygon><polygon fill="#935d27" points="1135.24 4078.52 1135.24 4581.67 1098.46 4602.88 1098.46 4099.72 1135.24 4078.52" class="color935d27 svgShape"></polygon><polygon fill="#a56d2b" points="1098.46 3528.76 1098.46 4055.87 807.95 3893.03 807.95 3365.91 1098.46 3528.76" class="colora56d2b svgShape"></polygon><polygon fill="#935d27" points="1135.24 3507.56 1135.24 4034.67 1098.46 4055.87 1098.46 3528.76 1135.24 3507.56" class="color935d27 svgShape"></polygon><polygon fill="#af7031" points="1919.06 3055.79 1919.06 3582.9 1628.54 3420.05 1628.54 2892.94 1919.06 3055.79" class="coloraf7031 svgShape"></polygon><polygon fill="#935d27" points="1955.84 3034.59 1955.84 3561.7 1919.06 3582.9 1919.06 3055.79 1955.84 3034.59" class="color935d27 svgShape"></polygon><polygon fill="#4f74aa" points="1867.94 3252.1 1867.94 3584.7 1810.53 3614.97 1810.53 3283.01 1867.94 3252.1" class="color4f74aa svgShape"></polygon><polygon fill="#43658e" points="1810.53 3283.01 1628.54 3174.1 1628.54 3508.84 1810.53 3614.97 1810.53 3283.01" class="color43658e svgShape"></polygon><polygon fill="#395877" points="1867.94 3252.1 1681.61 3145.74 1675.34 3149.91 1850.72 3252.1 1810.53 3274.14 1637.24 3170.27 1628.54 3174.1 1810.53 3283.01 1867.94 3252.1" class="color395877 svgShape"></polygon><polygon fill="#2e4960" points="1675.34 3149.91 1675.34 3193.11 1810.53 3274.14 1850.72 3252.1 1675.34 3149.91" class="color2e4960 svgShape"></polygon><polygon fill="#dddddd" points="1647.42 3176.37 1678.3 3158.44 1845.03 3255.22 1810.53 3274.14 1647.42 3176.37" class="colorddd svgShape"></polygon><polygon fill="#3cb72a" points="1780.25 3305.28 1780.25 3637.88 1722.84 3668.15 1722.84 3336.19 1780.25 3305.28" class="color3cb72a svgShape"></polygon><polygon fill="#329920" points="1722.84 3336.19 1540.86 3227.28 1540.86 3562.02 1722.84 3668.15 1722.84 3336.19" class="color329920 svgShape"></polygon><polygon fill="#2c821a" points="1780.25 3305.28 1593.92 3198.92 1587.65 3203.09 1763.03 3305.28 1722.84 3327.32 1549.55 3223.45 1540.86 3227.28 1722.84 3336.19 1780.25 3305.28" class="color2c821a svgShape"></polygon><polygon fill="#266b15" points="1587.65 3203.09 1587.65 3246.29 1722.84 3327.32 1763.03 3305.28 1587.65 3203.09" class="color266b15 svgShape"></polygon><polygon fill="#dddddd" points="1559.74 3229.55 1590.61 3211.62 1757.35 3308.4 1722.84 3327.32 1559.74 3229.55" class="colorddd svgShape"></polygon><polygon fill="#d8d312" points="1688.39 3356.66 1688.39 3689.26 1630.98 3719.53 1630.98 3387.57 1688.39 3356.66" class="colord8d312 svgShape"></polygon><polygon fill="#bcb30f" points="1630.98 3387.57 1448.99 3278.66 1448.99 3613.4 1630.98 3719.53 1630.98 3387.57" class="colorbcb30f svgShape"></polygon><polygon fill="#82760b" points="1688.39 3356.66 1502.06 3250.3 1495.79 3254.47 1671.17 3356.66 1630.98 3378.7 1457.69 3274.83 1448.99 3278.66 1630.98 3387.57 1688.39 3356.66" class="color82760b svgShape"></polygon><polygon fill="#72650c" points="1495.79 3254.47 1495.79 3297.67 1630.98 3378.7 1671.17 3356.66 1495.79 3254.47" class="color72650c svgShape"></polygon><polygon fill="#dddddd" points="1467.88 3280.94 1498.76 3263 1665.48 3359.78 1630.98 3378.7 1467.88 3280.94" class="colorddd svgShape"></polygon><polygon fill="#ce1d26" points="1592.36 3409.84 1592.36 3742.44 1534.94 3772.71 1534.94 3440.76 1592.36 3409.84" class="colorce1d26 svgShape"></polygon><polygon fill="#ad1423" points="1534.94 3440.76 1352.95 3331.84 1352.95 3666.59 1534.94 3772.71 1534.94 3440.76" class="colorad1423 svgShape"></polygon><polygon fill="#931124" points="1592.36 3409.84 1406.02 3303.48 1399.75 3307.66 1575.13 3409.84 1534.94 3431.88 1361.66 3328.01 1352.95 3331.84 1534.94 3440.76 1592.36 3409.84" class="color931124 svgShape"></polygon><polygon fill="#7f0d23" points="1399.75 3307.66 1399.75 3350.85 1534.94 3431.88 1575.13 3409.84 1399.75 3307.66" class="color7f0d23 svgShape"></polygon><polygon fill="#dddddd" points="1371.84 3334.12 1402.71 3316.18 1569.44 3412.96 1534.94 3431.88 1371.84 3334.12" class="colorddd svgShape"></polygon><polygon fill="#d39235" points="1955.84 2990.81 1098.46 3484.92 807.95 3322.07 1668.42 2825.18 1955.84 2990.81" class="colord39235 svgShape"></polygon><polygon fill="#b77b2c" points="1098.46 3528.76 1098.46 3484.92 807.95 3322.07 807.95 3365.91 1098.46 3528.76" class="colorb77b2c svgShape"></polygon><polygon fill="#a56d2b" points="1098.46 3528.76 1098.46 3484.92 1955.84 2990.81 1955.84 3034.65 1098.46 3528.76" class="colora56d2b svgShape"></polygon><polygon fill="#474751" points="6847.04 4671.56 7080.85 4671.56 6982.55 4573.26 6903.38 4573.26 6847.04 4671.56" class="color474751 svgShape"></polygon><path fill="#69892c" d="M6979,4588l34.26-303.72H6670.61l34.27,303.89c-1.75,21.66,11.5,43.64,39.78,60.08,53.44,31.07,140.87,31.07,194.3,0,20.4-11.85,33-26.59,37.9-42h.11l.06-.53A48,48,0,0,0,6979,4588Z" class="color69892c svgShape"></path><path fill="#45541b" d="M6720.06,4346.59c-67-38.92-66.69-102.6.57-141.52s176.81-38.92,243.44,0,66.37,102.6-.57,141.52S6787,4385.51,6720.06,4346.59Z" class="color45541b svgShape"></path><path fill="#566d24" d="M6737,4254.6c58.2-33.68,153-33.68,210.63,0,20,11.69,33.05,26,39.12,41,11.36-28.22-1.66-59.14-39.12-81-57.64-33.67-152.43-33.67-210.63,0-38,22-51.27,53.11-39.8,81.43C6703.34,4280.82,6716.6,4266.39,6737,4254.6Z" class="color566d24 svgShape"></path><path fill="#23280d" d="M6736.48,4337.06c57.93,33.67,152.71,33.67,210.64,0,20.29-11.8,33.48-26.23,39.61-41.44-6.07-15.06-19.1-29.33-39.12-41-57.64-33.68-152.43-33.68-210.63,0-20.38,11.79-33.64,26.22-39.8,41.43C6703.28,4311.09,6716.38,4325.37,6736.48,4337.06Z" class="color23280d svgShape"></path><polygon fill="#474751" points="1459.05 4853.13 1692.86 4853.13 1594.56 4754.83 1515.38 4754.83 1459.05 4853.13" class="color474751 svgShape"></polygon><path fill="#69892c" d="M1591,4769.58l34.26-303.71H1282.61l34.28,303.89c-1.75,21.65,11.5,43.63,39.78,60.08,53.43,31.06,140.87,31.06,194.3,0,20.4-11.86,33-26.6,37.9-42l.11,0,.06-.53A47.92,47.92,0,0,0,1591,4769.58Z" class="color69892c svgShape"></path><path fill="#45541b" d="M1332.07,4528.16c-67-38.92-66.69-102.6.57-141.52s176.81-38.92,243.44,0,66.37,102.6-.57,141.52S1399,4567.08,1332.07,4528.16Z" class="color45541b svgShape"></path><path fill="#566d24" d="M1349,4436.17c58.2-33.67,153-33.67,210.63,0,20,11.69,33.05,26,39.12,41,11.35-28.21-1.66-59.14-39.12-81-57.65-33.67-152.43-33.67-210.63,0-38,22-51.27,53.11-39.8,81.43C1315.34,4462.39,1328.61,4448,1349,4436.17Z" class="color566d24 svgShape"></path><path fill="#23280d" d="M1348.49,4518.63c57.93,33.67,152.71,33.67,210.63,0,20.29-11.8,33.49-26.23,39.62-41.44-6.07-15.06-19.11-29.33-39.12-41-57.65-33.67-152.43-33.67-210.63,0-20.38,11.8-33.65,26.22-39.8,41.43C1315.29,4492.66,1328.39,4506.94,1348.49,4518.63Z" class="color23280d svgShape"></path></svg>