<svg xmlns="http://www.w3.org/2000/svg" enable-background="new 0 0 600 550" viewBox="0 0 600 550" width="550" height="550"><path fill="#ffc165" d="M355.283 461.854h8.59l7.084-99.772h-8.6z" class="colorffc165 svgShape"></path><path fill="#ff9f3e" d="M363.873 461.854h3.81l7.076-99.772h-3.802z" class="colorff9f3e svgShape"></path><path fill="#222130" d="M353.447 460.866v6.98a1.12 1.12 0 0 0 1.117 1.118h13.839a1.12 1.12 0 0 0 1.117-1.118v-6.98a1.12 1.12 0 0 0-1.117-1.117h-13.84a1.12 1.12 0 0 0-1.116 1.117z" class="color222130 svgShape"></path><path fill="#ff9f3e" d="M202.765 461.854h8.59l7.085-99.772h-8.6z" class="colorff9f3e svgShape"></path><path fill="#ea8124" d="M211.356 461.854h3.81l7.076-99.772h-3.802z" class="colorea8124 svgShape"></path><path fill="#222130" d="M200.93 460.866v6.98a1.12 1.12 0 0 0 1.116 1.118h13.839a1.12 1.12 0 0 0 1.117-1.118v-6.98a1.12 1.12 0 0 0-1.117-1.117h-13.839a1.12 1.12 0 0 0-1.117 1.117z" class="color222130 svgShape"></path><path fill="#ea8124" d="M383.78 461.854h8.59l-8.896-210.678h-8.599z" class="colorea8124 svgShape"></path><path fill="#ce5d09" d="M392.37 461.854h3.81l-8.904-210.678h-3.802z" class="colorce5d09 svgShape"></path><path fill="#222130" d="M381.943 460.866v6.98a1.12 1.12 0 0 0 1.117 1.118H396.9a1.12 1.12 0 0 0 1.117-1.118v-6.98a1.12 1.12 0 0 0-1.117-1.117H383.06a1.12 1.12 0 0 0-1.117 1.117z" class="color222130 svgShape"></path><path fill="#ea8124" d="M233.69 461.854h8.591l-6.642-159.981h-8.6z" class="colorea8124 svgShape"></path><path fill="#222130" d="M231.854 460.866v6.98a1.12 1.12 0 0 0 1.118 1.118h13.838a1.12 1.12 0 0 0 1.117-1.118v-6.98a1.12 1.12 0 0 0-1.117-1.117h-13.838a1.12 1.12 0 0 0-1.118 1.117z" class="color222130 svgShape"></path><path fill="#2a213b" d="M192.748 385.2h184.318l24.102-242.564H216.859z" class="color2a213b svgShape"></path><path fill="#4d475b" d="m377.077 377.821 22.636-227.807h-176.98L200.088 377.82z" class="color4d475b svgShape"></path><path fill="#ffffff" d="m368.758 366.828 23.424-209.814H229.08l-22.805 209.814z" class="colorfff svgShape"></path><path fill="#b1b6bc" d="M332.321 266.041h23.923v22.82h-23.923z" transform="rotate(-72.317 344.283 277.45)" class="colorb1b6bc svgShape"></path><path fill="#55b1f4" d="M334.388 265.104h23.923v22.82h-23.923z" transform="rotate(-72.317 346.35 276.514)" class="color55b1f4 svgShape"></path><path fill="#ffffff" d="M345.485 275.456c-.137.58.224 1.165.804 1.303l6.836 1.616c.589.14 1.165-.224 1.302-.804s-.215-1.163-.804-1.302l-6.836-1.617a1.084 1.084 0 0 0-1.302.804zM339.7 268.056a1.117 1.117 0 0 0 .723 1.4l14.844 4.733a1.11 1.11 0 0 0 1.4-.723 1.11 1.11 0 0 0-.723-1.4l-14.844-4.733a1.117 1.117 0 0 0-1.4.723z" class="colorfff svgShape"></path><path fill="#b1b6bc" d="M322.054 304.135h22.161v23.232h-22.161z" transform="rotate(-25.256 333.134 315.752)" class="colorb1b6bc svgShape"></path><path fill="#ffcf30" d="M322.904 302.103h22.161v23.232h-22.161z" transform="rotate(-25.256 333.984 313.719)" class="colorffcf30 svgShape"></path><path fill="#ffffff" d="M323.661 312.105c.255.539.902.771 1.44.517l13.685-6.456c.548-.258.771-.902.517-1.44a1.078 1.078 0 0 0-1.44-.518l-13.685 6.456a1.084 1.084 0 0 0-.517 1.44zM332.736 312.342c.255.539.902.771 1.44.517l6.354-2.997c.547-.259.771-.902.517-1.44a1.078 1.078 0 0 0-1.44-.518l-6.354 2.997a1.084 1.084 0 0 0-.517 1.44z" class="colorfff svgShape"></path><path fill="#ee2a33" d="M343.068 210.253h12.729l-4.698 30.454h-12.728z" class="coloree2a33 svgShape"></path><path fill="#55b1f4" d="M362.585 219.083h12.728l-3.335 21.624H359.25zM323.067 204.566h12.728l-5.575 36.141h-12.728z" class="color55b1f4 svgShape"></path><path fill="#ee2a33" d="M303.973 191.153H316.7l-7.36 49.554h-12.728z" class="coloree2a33 svgShape"></path><path fill="#2a213b" d="M376.74 385.2h5.308a4.293 4.293 0 0 0 4.272-3.868l23.253-233.98a4.296 4.296 0 0 0-4.272-4.716h-4.46l-24.1 242.563z" class="color2a213b svgShape"></path><path fill="#51505e" d="M343.969 164.836h1.999v62.276h-1.999z" transform="rotate(-65.204 344.968 195.974)" class="color51505e svgShape"></path><path fill="#51505e" d="m320.224 179.85-4.377 7.397a.49.49 0 0 1-.878-.07l-2.573-6.52a.49.49 0 0 1 .395-.666l6.95-.877a.49.49 0 0 1 .483.735z" class="color51505e svgShape"></path><path fill="#1b152b" d="M478.209 182.875c1.466 1.545 3.378 2.656 5.49 3.445 8.811 3.278 21.28.911 21.28.911-12.669-9.034 3.222-49.972-1.868-59.94-5.09-9.978-16.835-11.745-16.835-11.745l-2.133 4.267-3.89 7.79-7.378 10.39s-2.278 36.881 5.334 44.882z" class="color1b152b svgShape"></path><path fill="#5e130f" d="M478.209 182.875c1.466 1.545 3.378 2.656 5.49 3.445.321-7.012-2.134-14.268.144-20.913 1.733-5.09 5.967-8.89 8.79-13.468 3.322-5.39 4.655-11.968 3.689-18.225-.956-6.245-4.2-12.123-8.98-16.268l.657 2.633c-1.267-.122-2.578-.255-3.856-.266l-3.89 7.79-7.378 10.39s-2.278 36.881 5.334 44.882z" class="color5e130f svgShape"></path><path fill="#04020f" d="M458.094 434.087s2.68 3.248 2.377 9.503c-.303 6.256-1.816 16.648-1.816 16.648l-6.457 1.413-.706-6.155s-5.55 9.585-17.153 10.897c-11.602 1.311-24.719 1.917-24.517-2.926.202-4.843 15.639-10.998 15.639-10.998l32.633-18.382z" class="color04020f svgShape"></path><path fill="#feabb5" d="M440.183 427.283c.115 2.993.077 4.895-.158 5.336-1.955 3.668-14.562 19.845-14.562 19.845s8.95 3.838 16.275-.558c7.324-4.385 16.36-17.818 16.36-17.818l.152-6.805h-18.067z" class="colorfeabb5 svgShape"></path><path fill="#04020f" d="M505.04 434.087s2.68 3.248 2.377 9.503c-.303 6.256-1.817 16.648-1.817 16.648l-6.457 1.413-.706-6.155s-5.55 9.585-17.152 10.897c-11.603 1.311-24.72 1.917-24.518-2.926.202-4.843 15.64-10.998 15.64-10.998l32.633-18.382z" class="color04020f svgShape"></path><path fill="#feabb5" d="M487.129 427.283c.114 2.993.077 4.895-.158 5.336-1.956 3.668-14.563 19.845-14.563 19.845s8.951 3.838 16.275-.558c7.324-4.385 16.36-17.818 16.36-17.818l.152-6.805H487.13z" class="colorfeabb5 svgShape"></path><path fill="#283151" d="M438.314 431.053c0 2.27 22.177 2.27 22.177 0l15.432-75.457 2.02-9.886 1.82-8.907-3.309-62.085-8.627-12.602-1.28-1.853-16.515-1.05-11.718 171.84z" class="color283151 svgShape"></path><path fill="#04020f" d="M462.707 292.253c3.694 4.35 5.744 8.554 6.306 14.225-1.675 13.612 1.863 30.834 6.91 49.118l2.02-9.886-1.489-70.992-8.627-12.602c-5.047 1.259-2.997-.531-4.142 5.817-1.8 9.886-5.62 18.856-.978 24.32z" class="color04020f svgShape"></path><path fill="#283151" d="M485.417 434.444 471.02 298.45s-13.863-3.636-10.48-22.293c3.394-18.668 33.159-8.75 33.159-8.75l.392-23.16 10.965 25.93 1.327 42.147 2.304 122.12c0 2.274-23.27 2.274-23.27 0z" class="color283151 svgShape"></path><path fill="#feabb5" d="m401.55 218.006-3.695-2.955a11.658 11.658 0 0 1-3.856-5.648c-1.685-5.42.287-9.207-4.004-11.277-2.288-1.103-1.97 7.957-1.97 7.957s-16.15-18.107-17.456-13.122c-1.305 4.986 13.532 16.737 13.532 16.737s-16.499 12.322-4.748 17.971c11.751 5.65 22.196 3.583 22.196 3.583" class="colorfeabb5 svgShape"></path><path fill="#e1e1fe" d="M457.694 220.446s-.4 1.028-1.14 2.744c-2.369 5.527-8.196 18.122-15.089 25.767-2.431 2.707-5 4.787-7.582 5.727-12.194 4.424-43.295-23.063-43.295-23.063l8.29-17.712 28.037 15.046c11.467-20.64 15.477-37.058 24.325-44.088l6.454 35.579z" class="colore1e1fe svgShape"></path><path fill="#b7b7e4" d="M441.465 248.957c.952-4.524.927-9.274.627-13.91-.389-6.254-1.241-12.52-.702-18.774.614-7.081 2.982-13.873 5.339-20.578l.914 1.792c3.67 8.357 7.345 16.785 8.91 25.703-2.368 5.527-8.195 18.122-15.088 25.767z" class="colorb7b7e4 svgShape"></path><path fill="#e1e1fe" d="M443.21 225.267c.115.187.22.395.323.645 1.312 2.696 2.914 8.336 4.205 14.475.364 1.707.697 3.435.988 5.162 1.228 7.139 1.145 17.4.156 20.543l56.174.697s-.447-12.727.125-24.101c0-.209 0-.427.01-.635.157-3.133.302-6.442.458-9.824.052-1.082.094-2.175.146-3.278.052-1.124.094-2.248.135-3.382.698-16.983 1.062-33.613-.01-34.747-3.101-3.278-7.451-6.431-12.665-8.783a44.446 44.446 0 0 0-7.981-2.716h-.01a24.069 24.069 0 0 0-.833-.198 42.523 42.523 0 0 0-15.985-.479c-5.734.915-10.064 2.783-15.214 5.183a12.08 12.08 0 0 0-7.034 10.635l-.438 14.663s-5.63 10.687-2.55 16.14z" class="colore1e1fe svgShape"></path><path fill="#b7b7e4" d="m459.018 190.489 9.47-11.79-.042-.053a43.828 43.828 0 0 0-7.888 2.05l-1.54 9.793zM470.757 178.345l1.883 14.35 3.858-3.73c4.31-1.01 8.557-9.268 8.703-9.528l.062-.114a24.069 24.069 0 0 0-.832-.198 42.352 42.352 0 0 0-13.674-.78zM505.647 232.226c-.15 3.384-.3 6.693-.45 9.826-.013.213-.013.426-.013.639-.577 11.367-.128 24.095-.128 24.095h-10.89c1.654-8.872.44-22.128-1.866-30.863l2.168-.062c2.996-2.732 7.169-3.998 11.18-3.635z" class="colorb7b7e4 svgShape"></path><path fill="#b7b7e4" d="M505.797 228.957c-.195 4.518-.401 8.964-.595 13.093-.013.218-.025.425-.025.644-14.161-2.952-43.845-8.029-57.436-2.308-1.3-6.146-2.902-11.781-4.202-14.477.336 4.933 38.301.143 62.258 3.048z" class="colorb7b7e4 svgShape"></path><path fill="#b7b7e4" d="M499.19 239.001c-.814-.546-1.118-1.566-1.36-2.514-.863-3.206-1.713-6.425-2.576-9.643-.62-2.332-1.238-4.688-1.348-7.105-.109-2.417.352-4.931 1.725-6.923 7.131 8.62 8.393 17.346 3.558 26.185z" class="colorb7b7e4 svgShape"></path><path fill="#ee2a33" d="m488.47 246.037-30.595 35.256 46.911 45.163 31.323-34.965z" class="coloree2a33 svgShape"></path><path fill="#feabb5" d="M494.128 285.781s-7.83 1.06-10.971 3.597-16.552 10.149-13.049 11.961c3.504 1.812 10.874-.966 10.874-.966s-11.599 8.94-5.195 14.377c6.403 5.437 12.635 5.089 15.827 2.658 4.86-3.699 12.897-20.746 12.897-20.746l-10.383-10.881z" class="colorfeabb5 svgShape"></path><path fill="#e1e1fe" d="M504.56 189.47c4.41 2.933 36.646 52.116 33.214 70.789-2.343 12.749-32.634 37.229-32.634 37.229l-11.954-12.527 24.05-29.103s-23.032-31.834-23.032-39.61c0-7.774 10.356-26.779 10.356-26.779z" class="colore1e1fe svgShape"></path><path fill="#ea806e" d="M480.16 173.998v-18.725s-14.87 1.939-14.87 2.24-.55 13.113-.55 13.113V181.9l7.71 1.81 6.714-3.957.996-5.755z" class="colorea806e svgShape"></path><path fill="#e1e1fe" d="m471.884 178.928 1.594 12.176c1.02-.517 2.041-1.267 3.02-2.139 4.273-3.82 7.8-9.87 7.8-9.87l-4.138-5.097c-1.668 3.895-8.276 4.93-8.276 4.93z" class="colore1e1fe svgShape"></path><path fill="#55b1f4" d="M462.033 202.954c3.612 1.487 14.507-13.84 14.465-13.989-.979.872-2 1.622-3.02 2.14l-1.44-11.003s-6.561-.35-6.691-.35c-.126 0-5.965 7.992-6.212 8.924-.247.937-.713 12.792 2.898 14.278z" class="color55b1f4 svgShape"></path><path fill="#e1e1fe" d="m467.156 178.689-8.951 11.148 4.228-11.148 2.307-3.075z" class="colore1e1fe svgShape"></path><path fill="#feabb5" d="M451.128 166.218h.011a12.887 12.887 0 0 0 4.445 2.433c10.701 3.39 18.869-3.278 23.48-8.756a30.489 30.489 0 0 1 8.857-7.156c3.933-2.112 6.467-7.001 3.289-10.613-.122-.144-.256-.277-.4-.422-4.3-4.134-7.668 1.389-8.601 3.223-.189.344-.278.555-.278.555l.067-1.711.055-1.622.567-14.746-11.546-10.857-15.946.333s-9.934 8.734-10.4 10.001c-.145.39-.812 4.09-1.145 9.168v.022c-.023.422-.045.856-.067 1.3v.045c-.467 9.49.4 22.813 7.612 28.803z" class="colorfeabb5 svgShape"></path><path fill="#1b152b" d="M443.512 137.406v-.04a6.2 6.2 0 0 1 .075-1.299v-.024c.995-5.892 10.454-8.848 16.863-8.997 6.882-.164 11.36-7.215 11.36-7.215s4.146 4.478 6.056 8.295c1.906 3.811.91 13.35 1.244 15.754.329 2.408 2.827 1.597 2.827 1.597s3.771-8.673 8.872-3.772c.144.14.279.279.403.418.065-.428 3.463-23.282-8.041-31.91-11.61-8.709-32.424-3.404-38.067 6.334-5.588 9.648-1.667 20.66-1.592 20.859z" class="color1b152b svgShape"></path><path fill="#0686cf" d="M461.358 187.403c-2.047 3.48-1.336 8.197 1.675 10.913-2.727-3.072-3.351-7.18-1.675-10.913z" class="color0686cf svgShape"></path><path fill="#0686cf" d="M471.86 192.032c-1.322 1.727-2.755 3.527-4.822 4.2-2.57.903-4.794-.577-5.137-2.398.268 2.792 4.51 4.438 7.98.824.771-.793 1.393-1.704 1.98-2.626zM470.163 188.52c-.467.898-1.324 2.123-2.156 2.707-1.242.939-2.589.387-2.805-.536.06.99 1.467 1.8 2.958.746.955-.756 1.63-1.794 2.003-2.918zM465.326 185.215c-2.234.344-3.635 2.898-2.748 4.958-.445-2.194.658-4.177 2.748-4.958z" class="color0686cf svgShape"></path><path fill="#222130" d="M468.92 140.89c0 1.673-.91 3.032-2.022 3.032-1.124 0-2.022-1.36-2.022-3.033 0-1.674.898-3.033 2.022-3.033 1.112 0 2.022 1.36 2.022 3.033zM452.041 140.89c0 1.673-.91 3.032-2.022 3.032-1.123 0-2.022-1.36-2.022-3.033 0-1.674.899-3.033 2.022-3.033 1.112 0 2.022 1.36 2.022 3.033zM463.419 135.396c2.099-2.157 6.155-1.936 7.871.589-2.559-1.231-5.096-1.365-7.871-.589zM445.51 135.634c1.721-2.468 5.76-2.907 7.862-.693-2.725-.8-5.25-.522-7.863.693z" class="color222130 svgShape"></path><path fill="#e48a9a" d="M456.849 139.306c-.255 2.453-.806 4.825-1.425 7.179-.647 1.838-.472 3.454 1.642 3.207.567-.069 1.135-.308 1.717-.512-.473.394-.979.761-1.598.989-1.46.578-3.11-.387-3.048-2.027.368-3.099 1.532-5.95 2.712-8.836z" class="colore48a9a svgShape"></path><path fill="#ae5053" d="M463.597 156.493s-.16 2.275-1.64 4.067c-.876 1.047-2.195 1.933-4.198 2.114-1.772.15-3-.393-3.835-1.218-1.873-1.802-1.883-4.963-1.883-4.963h11.556z" class="colorae5053 svgShape"></path><path fill="#ffffff" d="M463.366 156.493c-.946 1.087-2.577 2.114-5.356 2.285-3.18.202-4.821-1.006-5.657-2.285h11.013z" class="colorfff svgShape"></path><path fill="#e86060" d="M461.957 160.56c-.876 1.047-2.195 1.933-4.198 2.114-1.772.15-3-.393-3.835-1.218.644-.815 1.973-1.822 4.449-1.741 1.812.05 2.919.442 3.584.845z" class="colore86060 svgShape"></path><path fill="#ea806e" d="M464.466 169.3c6.379-1.134 11.364-5.556 14.6-9.407 2.466-2.924 5.484-5.338 8.856-7.16 3.933-2.102 6.462-6.992 3.288-10.603-.125-.146-.26-.281-.395-.427-4.308-4.132-7.67 1.394-8.606 3.226l-.385.583c1.144-1.114 2.872-2.092 4.402-2.612 1.519-.51 3.455-.167 4.297 1.207 1.093 1.78-.218 4.152-1.946 5.328-1.737 1.186-3.86 1.727-5.484 3.049-1.686 1.374-2.643 3.434-3.84 5.245-2.653 3.985-7.836 9.522-14.787 11.572z" class="colorea806e svgShape"></path><path fill="#e1e1fe" d="M71.06 455.67c6.819.555 6.819-9.879 12.845-8.355.213.048.413.106.603.177l-.367-10.764-16.152 6.44-.934 4.147-.011.024-.485 2.221c-.296 2.34.083 5.743 4.502 6.11z" class="colore1e1fe svgShape"></path><path fill="#1b152b" d="M62.258 464.874a2.203 2.203 0 0 0 2.198 2.032h44.097c1.182 0 2.127-.933 2.21-2.103.674-9.95-10.765-8.897-16.188-10.103-5.577-1.229-4.726-5.541-10.067-7.208-.19-.07-.39-.13-.603-.177-6.026-1.524-6.026 8.91-12.844 8.354-4.42-.366-4.798-3.77-4.502-6.109.13-1.17.437-2.091.485-2.221l.011-.024c-5.199 3.9-5.116 13.376-4.797 17.559z" class="color1b152b svgShape"></path><path fill="#4d475b" d="M62.169 463.974c.017.32.037.623.058.9a2.203 2.203 0 0 0 2.197 2.032h44.098c1.182 0 2.127-.933 2.21-2.103.02-.286.026-.56.026-.829h-48.59z" class="color4d475b svgShape"></path><path fill="#e1e1fe" d="M129.671 455.67c7.006.57 6.907-10.63 13.447-8.178l-.366-10.764-16.153 6.44-1.43 6.392c-.295 2.34.083 5.743 4.502 6.11z" class="colore1e1fe svgShape"></path><path fill="#1b152b" d="M120.868 464.874a2.203 2.203 0 0 0 2.198 2.032h44.098c1.181 0 2.126-.933 2.21-2.103.673-9.95-10.765-8.897-16.189-10.103-5.577-1.229-4.726-5.541-10.067-7.208-.19-.07-.39-.13-.603-.177-6.026-1.524-6.026 8.91-12.844 8.354-4.419-.366-4.797-3.77-4.502-6.109.13-1.17.438-2.091.485-2.221l.012-.024c-5.2 3.9-5.117 13.376-4.798 17.559z" class="color1b152b svgShape"></path><path fill="#4d475b" d="M120.779 463.974c.017.32.037.623.058.9a2.203 2.203 0 0 0 2.198 2.032h44.097c1.182 0 2.127-.933 2.21-2.103.02-.286.026-.56.026-.829h-48.59z" class="color4d475b svgShape"></path><path fill="#283151" d="M63.205 444.788c0 1.829 14.169 2.298 21.425 1.406 2.493-.306 4.172-.775 4.172-1.406.351-1.94 16.602-122.19 16.602-122.19l5.057.526s11.175 119.803 11.162 121.664c0 1.894 25.661 2.063 25.661.17.078-1.927-8.258-157.934-8.258-157.934L75.35 290.55 63.205 444.788z" class="color283151 svgShape"></path><path fill="#4de9d2" d="M139.194 286.852c.756-.043-9.987.57-63.665 3.65-.004-.11-6.458-88.863-1.956-95.812 3.208-4.944 42.026-12.245 61.171 1.147 2.252 1.567 3.682 8.657 4.545 18.251 2.314 25.658.61 69.209-.095 72.764z" class="color4de9d2 svgShape"></path><path fill="#20aea7" d="m139.194 286.852-6.838.39c.369-5.892 10.656-15.094-1.02-20.903-2.083-1.02-4.313-1.757-6.238-3.05-2.536-1.726-4.481-4.892-3.535-7.806.694-2.157 2.704-3.545 4.313-5.133 3.009-2.956 4.818-6.943 5.807-11.036.989-4.102 1.21-8.331 1.42-12.539.326-6.344 1.21-14.286 1.547-20.63 2.251 1.6 3.398 5.44 4.639 7.943 2.314 25.658.61 69.209-.095 72.764zM108.845 254.115c-2.42 10.762-9.615 20.356-19.261 25.7-3.608 1.988-7.922 3.85-9.194 7.774-.274.841-.432 1.82-.705 2.682l-4.156.232s-2.998-41.563-3.482-70.072c4.563-6.986 7.478-12.639 10.846-12.118 2.483.39 3.177 5.018 3.903 6.943 1.262 3.345 2.525 6.68 3.787 10.025 5.39 14.307 6.583 17.995 9.236 21.891 2.188 3.209 5.281 5.954 9.026 6.943z" class="color20aea7 svgShape"></path><path fill="#ce5d09" d="M74.947 285.522s50.659 2.245 64.593-2.945l.633 11.288s-42.405 6.445-65.226 2.276v-10.62z" class="colorce5d09 svgShape"></path><path fill="#f3f7fb" d="M103.312 285.397v11.338c0 .533.43.963.964.963h18.587c.527 0 .963-.43.963-.963v-11.338a.97.97 0 0 0-.963-.963h-18.587a.965.965 0 0 0-.964.963z" class="colorf3f7fb svgShape"></path><path fill="#ee2a33" d="m113.332 200.984-3 3.854 11.699 65.808-5.727 10.074-8.744-8.496s.397-40.12-2.565-65.507l-4.08-4.709 4.938-7.527 7.479 6.503z" class="coloree2a33 svgShape"></path><path fill="#e1e1fe" d="m95.86 185.442-4.729 4.345c1.206 6.746 3.95 12.387 9.02 16.359 1.912-5.645 3.012-9.537 6.338-10.152 3.408 1.03 5.73 4.162 7.64 8.092 4.126-4.706 5.717-10.006 4.96-14.542l-6.39-5.274-16.839 1.172z" class="colore1e1fe svgShape"></path><path fill="#e48a9a" d="M112.54 175.652c.069.207.564 8.952.564 8.952.226 2.742-6.615 11.39-6.615 11.39s-10.339-7.027-10.629-10.552l-.14-29.306 16.82 19.516z" class="colore48a9a svgShape"></path><path fill="#feabb5" d="M126.47 140.083s-.012.91-.034 2.375c-.057 4.976-.227 16.45-.42 20.95-.182 4.34-2.636 10.18-8.783 13.44-2.897 1.534-6.612 2.51-11.293 2.477-10.963-.08-16.11-6.192-18.496-11.35h-.011c-1.75-3.772-2.023-7.044-2.023-7.044s-10.713 1.83-9.611-9.805c.863-9.043 6.828-6.498 9.611-4.124.455.375.818.761 1.068 1.08-1.01-6.749-1.92-18.497 3.42-21.19 7.6-3.828 30.403-3.373 33.652 0 3.25 3.387 2.92 13.191 2.92 13.191z" class="colorfeabb5 svgShape"></path><path fill="#e48a9a" d="M117.233 176.848c-2.897 1.534-6.612 2.51-11.293 2.477-10.963-.08-16.11-6.192-18.496-11.35h-.011c-1.75-3.772-2.023-7.044-2.023-7.044s-10.713 1.83-9.611-9.805c.863-9.043 6.828-6.498 9.611-4.124-.806.637-2.579-.25-3.578-.193-1.41.08-2.795.636-3.772 1.682-2.159 2.295-1.83 6.441.67 8.373 2.454 1.897 6.26 1.67 8.282 4.022 1.739 2.022 1.41 5.078 2.432 7.532 1.26 3 5.755 6.29 8.777 7.472 6.453 2.51 12.139 1.81 19.012.958z" class="colore48a9a svgShape"></path><path fill="#222130" d="M126.501 146.766c.042-.43.074-2.146-.063-4.312-.198-3.423-.774-8.008-2.323-10.395-2.649-4.103-6.375.46-11.985 2.052-5.621 1.601-12.53-2.355-17.994-2.44-5.464-.062-5.997 9.641-5.17 12.918.837 3.276-.974 8.583-2.042 8.73-1.067.156-.45-5.234-.45-5.234-1.769-2.282-9.326-7.191-10.582 2.281-6.228-4.396-9.892-16.14-1.56-16.737-11.849-15.334 36.877-37.682 52.64-23.07.477.44 1.036.71 1.645.883 4.765 1.348 8.702 4.855 9.828 9.677 2.56 10.96-4.78 18.271-11.944 25.647z" class="color222130 svgShape"></path><path fill="#222130" d="M99.807 149.1c0 1.692.92 3.067 2.045 3.067 1.136 0 2.045-1.375 2.045-3.067 0-1.693-.91-3.068-2.045-3.068-1.125 0-2.045 1.375-2.045 3.068zM116.292 148.69c0 1.693.92 3.068 2.045 3.068 1.136 0 2.045-1.375 2.045-3.068s-.91-3.067-2.045-3.067c-1.125 0-2.045 1.374-2.045 3.067zM105.37 143.544c-2.802-.793-5.377-.657-7.96.596 1.74-2.547 5.833-2.77 7.96-.596zM122.898 143.376c-2.637-1.237-5.2-1.519-7.952-.701 2.13-2.232 6.205-1.788 7.952.7z" class="color222130 svgShape"></path><path fill="#e48a9a" d="M112.015 147.499c1.187 2.919 2.364 5.803 2.737 8.936.063 1.655-1.603 2.63-3.076 2.047-.626-.229-1.138-.6-1.617-.997.588.207 1.162.45 1.735.52 2.143.253 2.322-1.388 1.667-3.247-.626-2.38-1.184-4.78-1.446-7.26z" class="colore48a9a svgShape"></path><path fill="#ae5053" d="M104.442 163.165s.182 2.568 1.852 4.59c2.255 2.695 6.75 3.3 9.066 1.011 2.113-2.034 2.125-5.601 2.125-5.601h-13.043z" class="colorae5053 svgShape"></path><path fill="#ffffff" d="M104.703 163.165c1.068 1.227 2.909 2.386 6.045 2.579 3.59.227 5.441-1.136 6.385-2.58h-12.43z" class="colorfff svgShape"></path><path fill="#e86060" d="M106.294 167.755c2.255 2.695 6.75 3.3 9.066 1.011-.727-.92-2.227-2.056-5.021-1.965-2.045.056-3.295.5-4.045.954z" class="colore86060 svgShape"></path><path fill="#feabb5" d="M126.779 250.105s8.436-2.159 11.187-.648c2.75 1.511 5.087 5.1 5.087 5.1l-8.722 6.867-7.552-1.374c-.445-.08-2.302-5.411-2.302-5.411l2.302-4.534z" class="colorfeabb5 svgShape"></path><path fill="#4de9d2" d="M74.777 193.853s4.18.338 7.843 11.501c3.661 11.164 12.413 48.227 12.413 48.227s31.616-4.108 31.705-3.84c.09.268.357 6.787.357 6.787s-33.19 26.581-45.247 22.92-18.462-51.262-19.59-60.162c-2.102-16.57 7.89-23.539 12.519-25.433z" class="color4de9d2 svgShape"></path><path fill="#4de9d2" d="M156.415 271.266c-9.13 8.255-42.846-4.89-42.846-4.89l13.524-9.851s9.7-3.738 13.275-4.769h.008v-.008c-.203-.619-5.33-54.828-9.026-57.895 0 0 8 3.27 13.478 11.501 6.799 10.217 21.088 57.32 11.587 65.912z" class="color4de9d2 svgShape"></path><path fill="#feabb5" d="M104.68 252.341s-12.69-8.052-15.87-8.142c-3.18-.091-1.863 1.59-1.863 1.59s-5.725-.227-5.043 1.408c.681 1.636 3.408 2.261 3.408 2.261s-2.727 1.484-.591 2.883c2.136 1.4 10.312 1.24 10.312 1.24l9.648-1.24z" class="colorfeabb5 svgShape"></path><path fill="#003538" d="M96.58 250.105c-3.1-1.71-6.309-3.084-9.633-4.316.347.102 5.277.647 9.633 4.316zM94.533 251.877c-2.86-1.52-6.032-2.02-9.221-2.419.345.015 5.561-.71 9.221 2.42z" class="color003538 svgShape"></path><ellipse cx="261.368" cy="200.728" fill="#e1e1fe" rx="26.002" ry="24.447" transform="rotate(-44.117 261.368 200.728)" class="colore1e1fe svgShape"></ellipse><path fill="#222130" d="M252.866 192.445c-.479 3.306-6.514 17.273-6.244 19.246.405 2.962 7.13 3.263 9.803-1.46.303-.535.557-1.133 1.058-1.495.478-.344 1.111-.403 1.652-.247 1.5.434 2.279 2.252 3.159 3.443 2.197 2.971 4.786 1.373 4.798-.106.007-.856 4.229-21.43 3.354-22.819-1.054-1.673-5.028 11.547-5.845 9.737-.386-.855-.416-1.967-1.18-2.502-1.445-1.01-3.594.989-5.108.146-1.096-.609-1.024-2.293-1.93-3.15-.736-.698-2.09-.611-2.822.18l-.695-.973z" class="color222130 svgShape"></path><path fill="#ffcf30" d="M271.737 223.038a26.406 26.406 0 0 1-4.54 1.824c-.536.162-1.08.303-1.628.432-.004-.003-.008 0-.008 0-.087.018-.175.04-.262.058-1.23-2.269-1.926-4.217-2.493-5.782.27-1.106 1.978-8.137 2.637-10.85.685.572 1.249 1.346 1.773 2.292 1.436 2.608 4.521 12.026 4.521 12.026z" class="colorffcf30 svgShape"></path><path fill="#ffa719" d="M267.196 224.862c-.535.162-1.08.303-1.627.432-.004-.003-.008 0-.008 0-.087.018-.175.04-.262.058-.834-1.539-1.648-3.426-2.2-4.943.735-3.038 2.105-5.63 3.515-8.386.192.645.155.55.19.655 1.83 6.399.825 7.23.392 12.184z" class="colorffa719 svgShape"></path><path fill="#ffcf30" d="M267.13 221.042a2.113 2.113 0 0 0-.11.194c0 .004-.003.007-.004.01a1.97 1.97 0 0 0-.09.17c0 .003-.003.007-.003.007-.467.91-1.08 2.858-1.354 3.871-.004-.003-.008 0-.008 0-.087.018-.175.04-.262.058l-.408.086c-6.264 1.256-12.38.064-16.924-2.55.011-.715.172-11.83.69-12.351.141-.137.286-.273.442-.41 1.42-1.262 3.403-2.306 4.361-2.576 2.527-1.015 5.788-1.205 8.713-.277 1.35.436 2.968 1.258 3.261 1.482 1.808 1.344 1.283 3.421 1.337 3.806l-.007.173v.004l-.104 3.381s1.511 3.26.47 4.922z" class="colorffcf30 svgShape"></path><path fill="#b7b7e4" d="m251.96 224.29-.108.342c-1.32-.452-2.692-1.081-3.408-1.486 1.054.016 2.095.387 2.859 1.126l.657.018z" class="colorb7b7e4 svgShape"></path><path fill="#feabb5" d="M256.654 200.278s3.375 5.748 8.52 4.956c2.508-.387 4.798-9.325 4.08-14.655-.265-1.945-.736-3.41-1.353-3.81-2.302-1.498-9.448 0-9.448 0l-1.922 3.66.444 5.755s-2.154-1.653-2.806.167c-.965 2.694 2.485 3.927 2.485 3.927z" class="colorfeabb5 svgShape"></path><path fill="#feabb5" d="M252.684 207.86c5.792 8.895 11.256 7.073 11.092.047-1.3-.612-2.13-.773-2.58-.903.153-1.087.709-4.688 1.218-5.666.587-1.129-5.1-3.228-5.1-3.228s-.5 7.61-1.884 8.859a14.44 14.44 0 0 0-2.746.89z" class="colorfeabb5 svgShape"></path><path fill="#222130" d="M251.725 198.44c.898 1.978 4.93 1.838 4.93 1.838s-3.451-1.233-2.486-3.927c.652-1.82 2.806-.167 2.806-.167s.066 1.012.533.911c.467-.098.853-5.3.853-5.3s5.684.819 8.567-.192c2.138-.75 2.374-.641 3.961-1.171 1.079-.36 1.84-2.012.846-3.508-1.351-2.037-9.592-4.831-14.673-1.471-5.079 3.357-6.235 11.013-5.337 12.988zM266.33 195.276c-.032.527.228.955.578.955.354 0 .663-.428.696-.955.033-.528-.224-.956-.578-.956-.35 0-.663.428-.696.956z" class="color222130 svgShape"></path><path fill="#222130" d="M267.942 193.922c-.631.05-1.288.093-1.942-.085.07-1.16 2.016-1.101 1.942.085zM262.124 195.276c-.033.527.228.955.578.955.354 0 .663-.428.696-.955.032-.528-.224-.956-.578-.956-.35 0-.664.428-.696.956zM263.736 193.922c-.632.05-1.288.093-1.943-.085.07-1.16 2.017-1.101 1.943.085z" class="color222130 svgShape"></path><path fill="#e48a9a" d="M264.798 194.665c.683 1.025 1.07 2.028 1.079 3.224-.112 1.104-1.507 1.235-1.991.32.594.064 1.093.108 1.047-.39-.177-1.009-.399-2.059-.135-3.154z" class="colore48a9a svgShape"></path><path fill="#ae5053" d="M261.83 200.352s.007.742.454 1.326c.264.341.676.63 1.326.689.574.05.985-.128 1.274-.397.647-.588.714-1.618.714-1.618h-3.768z" class="colorae5053 svgShape"></path><path fill="#ffffff" d="M261.906 200.352c.287.354.798.689 1.7.745 1.033.066 1.592-.328 1.89-.745h-3.59z" class="colorfff svgShape"></path><path fill="#e86060" d="M262.284 201.678c.264.341.676.63 1.326.689.574.05.985-.128 1.274-.397-.193-.266-.606-.594-1.415-.568-.592.016-.96.144-1.185.276z" class="colore86060 svgShape"></path><path fill="#ffa719" d="M266.923 221.423c-.471.918-1.082 2.875-1.362 3.871-.087.018-.175.04-.262.058l-.408.086c-3.297-1.077-8.327-.354-10.734-.14-2.373-.567-4.545-1.464-6.19-2.41h-.004l.012-.724c7.245-.847 17.814.451 18.948-.74z" class="colorffa719 svgShape"></path><path fill="#b7b7e4" d="M267.017 221.236v.01a.317.317 0 0 1-.09.17c.029-.065.061-.122.09-.18z" class="colorb7b7e4 svgShape"></path><path fill="#ffa719" d="M250.394 224.074a18.39 18.39 0 0 1-1.166-.525c-.5-2.335.56-4.512 2.152-6.306 1.029 1.668-.03 3.834-.986 6.831z" class="colorffa719 svgShape"></path><path fill="#ffcf30" d="M251.751 218.283c-.05.102.284.621-2.563 4.935h-.004a3.665 3.665 0 0 1-.155.234c-.277-.135-.849-.442-1.062-.565h-.004a23.13 23.13 0 0 1-5.227-4.025 82.539 82.539 0 0 1 4.252-6.285c1.015-1.35 1.793-2.252 2.108-2.454l.003.004c.825 1.8 2.77 6.122 2.652 8.156z" class="colorffcf30 svgShape"></path><ellipse cx="289.911" cy="277.151" fill="#e1e1fe" rx="21.07" ry="19.021" transform="rotate(-43.535 289.91 277.151)" class="colore1e1fe svgShape"></ellipse><path fill="#55b1f4" d="m293.884 296.29-.003.029c.898-.195 3.295-1.131 5.29-2.337.123-5.416-.866-11.909-.866-11.909h-.157l-1.813.323s-1.962 8.233-2.45 13.894z" class="color55b1f4 svgShape"></path><path fill="#e1e1fe" d="M283.808 296.719c3.058.685 6.394.564 9.321-.194.66-4.975 1.089-12.313-.255-17.148l-1.535-1.249c-.107-.067-.006-.046-.286-.168h-.002c-1.47-.648-3.633-.377-3.633-.377-.45.333-1.305 1.75-1.38 1.85l-2.23 17.286z" class="colore1e1fe svgShape"></path><path fill="#bcc4d8" d="m289.908 279.416.343 1.32c-.141.09-1.934 1.002-3.45 2.496l-.429.423c-.016-.386-.013-.952-.085-1.474-.156-1.148-.128-2.055-.012-2.765h3.633z" class="colorbcc4d8 svgShape"></path><path fill="#bcc4d8" d="M289.919 280.356c.521-.087.794-.42.91-.94h1.425c.365.932.481 1.78.555 2.128l-.092 1.322s-1.955-1.344-3.05-1.995l-.129-.082.044-.423h.266c.02 0 .041-.004.071-.01z" class="colorbcc4d8 svgShape"></path><path fill="#ee2a33" d="m289.44 283.279-.935 3.33-1.017 10.556c1.174.019 2.275-.026 3.58-.226 0-.1.192-10.576.18-9.91l-1.063-3.793c.858-.66 1.14-1.6 1.196-1.7l-.444-.485-1.118-.603c-1.485.817-1.322 1.053-1.423 1.143-.115.47.976 1.586 1.044 1.688z" class="coloree2a33 svgShape"></path><path fill="#55b1f4" d="m279.598 281.536-.27 5.756-.36 7.604c1.91 1.062 4.109 1.808 6.558 2.12a289.102 289.102 0 0 0 .694-6.556c.047-.571.613-6.693.362-8.084-.101-1.033-.283-2.196.097-3.568.099-.349.23-.654.313-.802.042-.074.081-.147.131-.217.033-.059.112-.156.153-.206-.114.053-.77.28-1.79.914-.612.387-1.193.824-1.693 1.351l-4.195 1.688z" class="color55b1f4 svgShape"></path><path fill="#258bca" d="m283.463 284.447 1.782.467-1.882 1.09s1.868 6.896 2.494 8.078c.258-2.4 1.023-9.584.696-11.964-.306-2.243.123-3.515.44-4.113l.003-.005c.145-.27.265-.4.28-.416-.06.021-2.105.81-3.483 2.264 0 0-.74 2.69-.33 4.6z" class="color258bca svgShape"></path><path fill="#55b1f4" d="M291.101 278.051c.83.818 1.247 2.378 1.436 3.525v.003c.74 4.297-.03 11.287-.38 15.168 1.301-.261 2.681-.685 3.941-1.21.703-5.442 1.414-10.624 2.207-13.464l-4.516-2.093c-.824-.997-1.79-1.618-2.45-1.852 0 0-.003 0-.005-.002-.11-.041-.143-.047-.233-.075z" class="color55b1f4 svgShape"></path><path fill="#258bca" d="M291.102 278.05c.715.729 1.171 1.948 1.436 3.527v.003c.565 3.342.274 8.295-.227 13.6 1.413-2.517 3.006-9.194 3.006-9.194l-1.678-1.197 1.392-.177c-.03-3.174-1.243-4.633-1.243-4.633-1.327-1.608-2.686-1.928-2.686-1.928z" class="color258bca svgShape"></path><path fill="#e1e1fe" d="M286.623 283.052c.918-.905 2.03-1.712 3.314-2.433l-.56-2.158-2.1-.877-.284.421c-.904 1.702-.405 3.887-.37 5.047z" class="colore1e1fe svgShape"></path><path fill="#e48a9a" d="M289.937 280.62c1.62-.273 1.158-2.505 1.158-2.505-.284-.827.298-1.669.317-1.769 0 0-3.543-4.903-3.69-3.153-.147 1.747-.446 4.39-.446 4.39-.166.534 1.148 3.33 2.661 3.036z" class="colore48a9a svgShape"></path><path fill="#feabb5" d="M287.1 273.015s2.125 5.148 6.399 3.246c.128-.056.25-.13.372-.224 1.42-1.072 2.265-4.412 2.26-7.41 0-1.038-.104-2.036-.32-2.884-.18-.701-.436-1.299-.775-1.736h-.003c-.398-.518-.912-.809-1.556-.777-3.41.166-6.727 2.065-6.727 2.065l.305 3.687.039.325.114.942s-1.558-1.067-2.03.786c-.473 1.854 1.923 1.98 1.923 1.98z" class="colorfeabb5 svgShape"></path><path fill="#e48a9a" d="M287.1 273.015s2.125 5.148 6.399 3.246c.128-.056.25-.13.372-.224-.904.179-1.918.325-2.77.101-1.247-.323-2.245-1.245-2.958-2.28-.304-.443-.556-.95-1.012-1.243-.283-.182-.634-.27-.868-.51-.292-.296-.339-.808-.112-1.203.23-.395.714-.64 1.142-.576l.108-.323c.14-.141.122-.379.005-.515a.613.613 0 0 0-.312-.181l.114.942s-1.558-1.067-2.03.786c-.473 1.854 1.923 1.98 1.923 1.98z" class="colore48a9a svgShape"></path><path fill="#222130" d="M287.101 273.014s-2.396-.125-1.923-1.979c.472-1.854 2.03-.787 2.03-.787l.027.835.71-.09.461-3.639s1.135-1.03 1.099-2.209c0 0 4 .955 6.306.598.677-.104 1.225-.312 1.451-.707 3.009-5.245-5.133-4.498-5.947-4.442-.811.053-2.556-.762-4.501 2.634 0 0-2.256-.52-2.706 3.882-.568 5.564 1.634 6.565 2.993 5.904z" class="color222130 svgShape"></path><path fill="#222130" d="M295.036 264.006c.34.438.596 1.035.775 1.737.217.848.32 1.846.32 2.883 1.149-1.003.788-3.91.718-3.929l-.752-.426s-.692-.193-1.06-.265zM289.897 269.755c-.04.397.142.72.406.72.267 0 .514-.323.554-.72.04-.398-.14-.72-.406-.72-.264 0-.513.322-.554.72zM293.905 269.755c-.04.397.142.72.406.72.267 0 .513-.323.554-.72.04-.398-.14-.72-.406-.72-.264 0-.513.322-.554.72zM291.337 268.45c-.885.332-1.055.33-1.884.14.046-1.059 1.688-1.194 1.884-.14zM295.584 268.507c-.925.176-1.067.15-1.85-.165.191-1.045 1.854-.91 1.85.165z" class="color222130 svgShape"></path><path fill="#e48a9a" d="M292.802 269.379c.632.666 1.3 2.275.303 2.805a.747.747 0 0 1-.673-.04c-.808-.691.22-.261.27-.628-.235-.594-.225-1.411.1-2.137z" class="colore48a9a svgShape"></path><path fill="#ae5053" d="M290.647 273.057s-.019.603.325 1.078c.479.652 1.522.759 2.104.237.545-.477.633-1.315.633-1.315h-3.062z" class="colorae5053 svgShape"></path><path fill="#ffffff" d="M290.709 273.057c.559.729 2.229.912 2.918 0h-2.918z" class="colorfff svgShape"></path><path fill="#e86060" d="M290.972 274.135c.479.652 1.522.759 2.104.237-.434-.631-1.604-.522-2.104-.237z" class="colore86060 svgShape"></path><path fill="#e1e1fe" d="M289.821 280.633v.005s2.585 1.444 2.741 1.743l-.024-.804c-.265-1.58-.721-2.798-1.436-3.526l-.031-.011.024.075s.462 2.232-1.158 2.504a.607.607 0 0 1-.116.014z" class="colore1e1fe svgShape"></path><path fill="#55b1f4" d="M279.596 281.569c.554.48 2.575 2.401 2.92 3.718.689 2.625-1.236 10.15-1.236 10.15l.768.051-.074.725a17.552 17.552 0 0 1-5.94-3.356c.953-5.262 3.473-11.365 3.562-11.288z" class="color55b1f4 svgShape"></path><ellipse cx="243.589" cy="261.423" fill="#e1e1fe" rx="20.988" ry="18.914" transform="rotate(-43.51 243.589 261.423)" class="colore1e1fe svgShape"></ellipse><path fill="#4d475b" d="M251.945 278.571a22.16 22.16 0 0 1-4.023 1.76c-1.23-2.231-1.733-4.04-2.162-5.27.03-.1 2.569-8.992 2.408-8.43 1.946 2.192 2.035 6.872 3.777 11.94z" class="color4d475b svgShape"></path><path fill="#1b152b" d="M241.91 262.319c-.396 3.803-5.15 5.708-7.603 3.142-.755-.788-1.16-1.905-1.032-3.142.227-2.175 2.021-3.973 4.145-4.273.204-.03.413-.046.623-.046 2.383 0 4.116 1.934 3.867 4.319z" class="color1b152b svgShape"></path><path fill="#e48a9a" d="m240.196 264.266-.357-4.906 4.83 1.742.006 3.784-.409 2.152-3.14-.403z" class="colore48a9a svgShape"></path><path fill="#4d475b" d="M249.836 279.614c-4.831 2.067-10.297 2.355-15.12.498.01-.7.216-12.44.73-12.942.048-.045.101-.088.16-.13.218-.162.516-.319.852-.46h.003c1.18-.504 2.802-.865 2.802-.865h.12a15328.745 15328.745 0 0 0 3.399-.074l2.25-.046c.006.003.011.006.017.006h.003c.491.142 2.895.764 3.17 1.072l.014.02a.045.045 0 0 1 .015.02l.005.005c.73 1.004 1.07 7.187 1.084 7.287.298.374.537.858.636 1.123v.003c.582 1.434.478 3.011-.14 4.483z" class="color4d475b svgShape"></path><path fill="#1b152b" d="M248.564 272.365c-.489 1.797-4.306 7.573-4.306 7.573-.619-1.928-5.666-7.837-5.666-7.837l2.202-1.832-2.937-.67c-.831-3.573 1.527-3.886 1.527-3.886h.002l5.648-.117.016.006c2.606.852 3.51 4.014 3.51 4.014l-1.845 1.05 1.849 1.7z" class="color1b152b svgShape"></path><path fill="#1b152b" d="M248.185 266.636c.027.022.05.043.074.072l-.008-.004s.012.006.014.01l-.009-.006h.003l.01.011-.007-.008.009.005.035.047c.022.1 1.027 1.736 1.272 7.126l-.001-.02.007.127-.062-.154.036.047-.024-.03.018.02.01.01.006.01.061.085-.025-.033c.036.046.077.1.118.17l-.021-.034c.03.043.064.093.1.159l-.013-.023c.236.38.327.65.422.876l-.007.053v.002l-.016-.109c.52 1.564.458 3.022-.35 4.57a7.374 7.374 0 0 0 .368-2.238c.006-1.099-.332-1.806-.46-2.21l.005-.06v-.003l.013.104c-.28-.651-.523-.922-.59-1.022l.015.019-.018-.02-.023-.03.01.013-.061-.153c-.104-1.143-.154-3.015-.583-6.372-.049-.295-.162-.564-.233-.863v.002l-.027-.055.008.004-.012-.013.01.01h-.003l-.009-.006h.004l-.008-.005a.485.485 0 0 0-.058-.081z" class="color1b152b svgShape"></path><path fill="#e1e1fe" d="M244.258 279.939c-.018-5.335-4.831-14.124-4.875-14.225l.812-1.448 3.321 1.366 1.12-.812s.841 1.398 1.382 3.867c.038.169.13.636.184.97.502 3.072-1.944 10.282-1.944 10.282z" class="colore1e1fe svgShape"></path><path fill="#d1cfea" d="M246.099 269.087c-.102-.112-.87-.61-2.514-2.921-1.047 3.047-2.094 3.62-2.16 3.72a59.301 59.301 0 0 0-2.042-4.172l.812-1.448 3.321 1.366 1.12-.812s.841 1.398 1.382 3.867c.029.13.055.264.08.4z" class="colord1cfea svgShape"></path><path fill="#e1e1fe" d="M246.018 268.687c-1.062-.927-2.502-3.055-2.502-3.055l1.12-.812s.841 1.398 1.382 3.867zM240.195 264.266l3.321 1.366s-.876 2.991-2.184 4.041l-1.946-3.959.81-1.448z" class="colore1e1fe svgShape"></path><path fill="#feabb5" d="M239.81 259.427s1.27 4.553 6.038 3.89c.503-.068.959-.227 1.367-.458 2.742-1.518 3.456-6.19 3.26-8.967-.05-.734-.163-1.336-.32-1.712-.839-2.02-3.707-3.94-3.707-3.94l-3.574 1.128-3.601 4.537 1.213 2.292c-.905-.935-1.662-.912-2.106.374-.713 2.064 1.43 2.856 1.43 2.856z" class="colorfeabb5 svgShape"></path><path fill="#e48a9a" d="M239.81 259.427s1.27 4.553 6.038 3.89c.503-.068.959-.227 1.367-.458-2.266.085-4.466-.75-6.097-2.168a9.352 9.352 0 0 1-1.624-1.836c-.358-.527-.668-1.19-.42-1.836.207-.544.829-.917 1.379-.859-.79-.883-1.625-.885-2.073.41-.713 2.065 1.43 2.857 1.43 2.857z" class="colore48a9a svgShape"></path><path fill="#1b152b" d="m251.163 254.121-.687-.229c-.053-.045-1.138-.922-2.695-.922-1.6 0-4.523-2.47-4.523-2.47s-.744 4.666-2.771 5.698c-.557-.657-1.479-1.127-2.024.16 0 0-1.354-2.76-.28-5.02s3.795-2.807 3.795-2.807 1.97-3.247 5.773-1.017c3.804 2.227 3.412 6.607 3.412 6.607z" class="color1b152b svgShape"></path><path fill="#d1cfea" d="M243.585 266.166c1.796 4.238 2.667 9.463.673 13.773.612-4.654-.231-9.158-.673-13.773z" class="colord1cfea svgShape"></path><path fill="#222130" d="M244.453 256.462c-.043.418.142.757.411.757.272 0 .525-.34.568-.757.044-.418-.138-.757-.41-.757-.27 0-.525.34-.569.757zM245.825 255.083c-.863.315-.91.327-1.715.164-.085-1.058 1.622-1.24 1.715-.164zM247.995 256.058c-.019.417.188.742.458.726.273-.016.507-.368.525-.785.019-.416-.185-.742-.458-.726-.27.016-.507.368-.525.785zM249.289 254.608c-.843.369-.898.383-1.712.265-.138-1.05 1.548-1.33 1.712-.265z" class="color222130 svgShape"></path><path fill="#e48a9a" d="M246.943 256.031c.627.703 1.332 2.38.304 2.93a.775.775 0 0 1-.694-.037c-.849-.713.21-.252.29-.63-.2-.669-.236-1.487.1-2.263z" class="colore48a9a svgShape"></path><path fill="#ae5053" d="M244.672 259.896s-.021.634.339 1.133c.214.291.555.538 1.108.588.489.042.846-.109 1.103-.339.573-.502.668-1.382.668-1.382h-3.218z" class="colorae5053 svgShape"></path><path fill="#ffffff" d="M244.737 259.896c.588.768 2.342.956 3.066 0h-3.066z" class="colorfff svgShape"></path><path fill="#e86060" d="M245.011 261.029c.497.679 1.593.803 2.21.25-.155-.228-.496-.508-1.188-.486-.506.014-.825.124-1.022.236z" class="colore86060 svgShape"></path><path fill="#1b152b" d="M249.836 279.614c-4.831 2.067-10.297 2.355-15.12.498.007-.425.036-1.764.041-2.002 3.586.47 6.912 1.186 9.81.87 2.434-.302 4.58-1.251 5.782-2.212.066.978-.132 1.939-.513 2.846z" class="color1b152b svgShape"></path><path fill="#4d475b" d="M234.234 279.916a17.292 17.292 0 0 1-4.647-2.877c1.59-4.401 4.411-9.172 6.016-10.002.813 1.087 2.72 3.857 2.843 5.217.12 1.305-3.49 6.596-4.212 7.662z" class="color4d475b svgShape"></path><path fill="#51505e" d="M278.828 227.202c3.848 7.357-.527 17.028-8.495 19.207-1.088.298-2.202.503-3.318.504 1.09-.227 2.153-.523 3.155-.966 7.284-2.806 11.1-11.395 8.658-18.745zM240.791 286.616c1.178 5.044 5.779 8.413 10.557 9.669 3.653.946 7.546.891 11.315.632l3.842-.243c-5.045 1.078-10.306 1.875-15.408.578-4.963-1.287-9.886-5.249-10.306-10.636z" class="color51505e svgShape"></path><path fill="#51505e" d="m270.073 243.42 1.338 4.758a.788.788 0 0 1-1.018.957l-4.074-1.425a.788.788 0 0 1-.349-1.243l2.736-3.334a.788.788 0 0 1 1.367.286zM263.087 299.609l-1.339-4.759a.788.788 0 0 1 1.019-.957l4.074 1.425c.516.181.696.82.349 1.244l-2.736 3.333a.788.788 0 0 1-1.367-.286z" class="color51505e svgShape"></path><path fill="#ffcf30" d="M416.134 99.11c-2.764-8.99-12.3-14.247-21.38-11.8-9.408 2.533-14.963 12.23-12.397 21.62 1.475 5.398 5.312 9.52 10.093 11.555 2.669 1.136 4.828 3.165 6.057 5.73l12.67-3.463c-.249-2.83.578-5.673 2.297-8.005 3.19-4.325 4.375-10.062 2.66-15.637z" class="colorffcf30 svgShape"></path><path fill="#ffffff" d="M407.82 93.259c-3.146-2.545-7.33-3.444-11.19-2.404a.508.508 0 01-.266-.982h.002c4.174-1.124 8.695-.154 12.094 2.595a.509.509 0 01-.64.791zM412.525 99.626a.509.509 0 01-.62-.341 12.404 12.404 0 00-1.36-2.965.508.508 0 11.86-.543 13.423 13.423 0 011.472 3.209.508.508 0 01-.337.635l-.015.005z" opacity=".3" class="colorfff svgShape"></path><path fill="#ffffff" d="m406.88 124.437-3.46-11.744c-.101.03-3.248.895-3.35.922l2.992 11.865-.74.187-2.992-11.866c-2.345.56-5.3.953-7.166-.374-1.052-.749-1.631-1.956-1.723-3.59-.063-1.142.383-2.59 2.87-3.007 2.707-.454 5.364 1.29 6.049 3.97l.523 2.075c.101-.027 3.219-.884 3.322-.914l-.603-2.046c-.773-2.657.627-5.51 3.19-6.496 2.353-.907 3.473.115 4 1.13.725 1.402.828 2.708.305 3.881-.95 2.133-3.809 3.361-5.946 4.042l3.46 11.75-.73.215zm-15.677-14.643c.079 1.41.538 2.395 1.404 3.011 1.618 1.151 4.337.782 6.536.256l-.522-2.073c-.588-2.299-2.865-3.795-5.184-3.406-1.372.23-2.31.84-2.234 2.212zm14.862-5.663c-2.195.845-3.394 3.291-2.73 5.57l.6 2.04c2.008-.64 4.637-1.762 5.465-3.621.43-.965.336-2.018-.286-3.22-.632-1.22-1.75-1.268-3.049-.77z" class="colorfff svgShape"></path><path fill="#ffcf30" d="M401.496 131.679c.02.09.035.18.06.271a5.138 5.138 0 1 0 9.913-2.709c-.025-.09-.057-.176-.086-.264l-9.887 2.702z" class="colorffcf30 svgShape"></path><path fill="#ffcf30" d="M401.496 131.679c.02.09.035.18.06.271a5.138 5.138 0 1 0 9.913-2.709c-.025-.09-.057-.176-.086-.264l-9.887 2.702z" class="colorffcf30 svgShape"></path><path fill="#ffcf30" d="M401.496 131.679c.02.09.035.18.06.271a5.138 5.138 0 1 0 9.913-2.709c-.025-.09-.057-.176-.086-.264l-9.887 2.702z" class="colorffcf30 svgShape"></path><path fill="#1b152b" d="M401.496 131.679c.02.09.035.18.06.271a5.138 5.138 0 1 0 9.913-2.709c-.025-.09-.057-.176-.086-.264l-9.887 2.702z" class="color1b152b svgShape"></path><path fill="#4d475b" d="M413.373 123.796c.115.42.05.85-.154 1.2a1.566 1.566 0 0 1-.955.744l-13.17 3.598a1.583 1.583 0 1 1-.835-3.056l13.17-3.598a1.583 1.583 0 0 1 1.944 1.112z" class="color4d475b svgShape"></path><path fill="#4d475b" d="M414.208 126.853c.115.42.05.849-.154 1.2a1.566 1.566 0 0 1-.955.743l-13.17 3.599a1.583 1.583 0 1 1-.835-3.057l13.17-3.598a1.583 1.583 0 0 1 1.944 1.113z" class="color4d475b svgShape"></path><path fill="#1b152b" d="M413.372 123.796c.115.42.05.85-.154 1.2a1.564 1.564 0 0 1-.955.743l-13.168 3.598a1.583 1.583 0 0 1-2.002-1.525 1.582 1.582 0 0 0 1.782.72l13.168-3.598c.42-.115.757-.39.955-.744.136-.232.211-.502.209-.781.071.116.127.247.165.387zM414.207 126.853c.115.418.05.85-.154 1.2a1.564 1.564 0 0 1-.954.742l-13.169 3.599a1.583 1.583 0 0 1-2.002-1.526 1.582 1.582 0 0 0 1.782.72l13.168-3.598c.42-.115.757-.39.955-.743.137-.233.211-.503.21-.782.07.116.126.247.164.388z" class="color1b152b svgShape"></path><path fill="#ffcf30" d="M394.144 85.178a.716.716 0 0 1-.879-.501L392.534 82a.716.716 0 1 1 1.38-.377l.732 2.675a.716.716 0 0 1-.502.88zM384.254 90.368l-1.971-1.952a.716.716 0 0 1 1.007-1.017l1.971 1.952a.716.716 0 0 1-1.007 1.017zM379.295 99.802l-2.682-.704a.716.716 0 1 1 .363-1.385l2.683.705a.716.716 0 1 1-.364 1.384zM379.719 110.452l-2.676.731a.716.716 0 1 1-.377-1.38l2.675-.732a.716.716 0 1 1 .378 1.381zM382.446 121.44a.716.716 0 0 1-.005-1.012l1.952-1.972a.715.715 0 1 1 1.017 1.007l-1.952 1.972a.715.715 0 0 1-1.012.005zM421.783 110.962l-2.683-.705a.716.716 0 1 1 .364-1.384l2.683.705a.716.716 0 1 1-.364 1.384zM422.094 98.873l-2.676.73a.716.716 0 1 1-.377-1.38l2.676-.731a.716.716 0 1 1 .377 1.38zM414.047 90.406a.715.715 0 0 1-.698-1.194l1.952-1.971a.715.715 0 1 1 1.017 1.007l-1.951 1.97a.71.71 0 0 1-.32.188zM404.425 85.127a.716.716 0 0 1-.51-.874l.705-2.682a.715.715 0 1 1 1.384.363l-.705 2.683c-.1.38-.49.612-.874.51z" class="colorffcf30 svgShape"></path><circle cx="173.989" cy="131.717" r="20.605" fill="#55b1f4" class="color55b1f4 svgShape"></circle><path fill="#55b1f4" d="m166.633 151.523-8.336 2.079-.557-8.582z" class="color55b1f4 svgShape"></path><path fill="#ffffff" d="m186.746 131.308-1.316-4.863-3.35.502a9.817 9.817 0 0 0-.724-.9l1.3-3.029-4.37-2.513-2.003 2.709a8.903 8.903 0 0 0-1.175-.145l-1.207-3.03-4.863 1.316.48 3.227c-.363.239-.702.5-1.017.785l-2.895-1.237-2.508 4.37 2.52 1.865c-.098.46-.16.928-.179 1.396l-2.807 1.123 1.317 4.863 3.024-.449c.27.413.579.798.911 1.16l-1.167 2.723 4.375 2.506 1.828-2.468c.47.09.957.139 1.439.143l1.118 2.79 4.863-1.315-.47-3.148c.369-.258.713-.544 1.035-.848l2.863 1.228 2.513-4.376-2.665-1.968c.067-.399.109-.809.121-1.216l3.009-1.201zm-10.682 6.377a5.669 5.669 0 0 1-2.962-10.944 5.666 5.666 0 0 1 6.951 3.994 5.665 5.665 0 0 1-3.99 6.95z" class="colorfff svgShape"></path><path fill="#e1e1fe" d="M245.865 352.045c-10.112 0-17.735-8.227-16.992-18.339s9.574-18.34 19.686-18.34c10.113 0 17.735 8.228 16.992 18.34s-9.574 18.34-19.686 18.34zm2.159-29.393c-6.095 0-11.418 4.959-11.866 11.054-.448 6.095 4.147 11.054 10.242 11.054 6.095 0 11.418-4.959 11.866-11.054.448-6.095-4.147-11.054-10.242-11.054z" class="colore1e1fe svgShape"></path><path fill="#ee2a33" d="M245.865 352.045c-2.012 0-3.523-1.63-3.375-3.642.147-2.012 1.898-3.643 3.91-3.643 6.095 0 11.418-4.959 11.866-11.054.448-6.095-4.147-11.054-10.242-11.054-6.095 0-11.418 4.959-11.866 11.054-.148 2.012-1.898 3.643-3.91 3.643s-3.523-1.631-3.375-3.643c.743-10.112 9.574-18.34 19.686-18.34 10.113 0 17.735 8.228 16.992 18.34s-9.574 18.34-19.686 18.34z" class="coloree2a33 svgShape"></path></svg>